SplineFontDB: 2.0
FontName: Sawasdee-Oblique
FullName: Sawasdee Oblique
FamilyName: Sawasdee
Weight: Regular
Copyright: Created by Pol Udomwittayanukul,,, with FontForge 2.0 (http://fontforge.sf.net)
Version: 001.000
ItalicAngle: -12
UnderlinePosition: -75
UnderlineWidth: 50
Ascent: 750
Descent: 250
XUID: [1021 180 1442959360 14105407]
UniqueID: 4256560
FSType: 8
OS2Version: 0
OS2_WeightWidthSlopeOnly: 0
OS2_UseTypoMetrics: 1
CreationTime: 1178430034
ModificationTime: 1181039171
PfmFamily: 17
TTFWeight: 400
TTFWidth: 5
LineGap: 90
VLineGap: 0
OS2TypoAscent: 0
OS2TypoAOffset: 1
OS2TypoDescent: 0
OS2TypoDOffset: 1
OS2TypoLinegap: 90
OS2WinAscent: 0
OS2WinAOffset: 1
OS2WinDescent: 0
OS2WinDOffset: 1
HheadAscent: 2
HheadAOffset: 1
HheadDescent: 40
HheadDOffset: 1
OS2Vendor: 'PfEd'
Lookup: 4 0 1 "'liga' Standard Ligatures in Latin lookup 0"  {"'liga' Standard Ligatures in Latin lookup 0"  } ['liga' ('latn' <'dflt' > ) ]
Lookup: 4 0 0 "'frac' Diagonal Fractions in Latin lookup 42"  {"'frac' Diagonal Fractions in Latin lookup 42"  } ['frac' ('latn' <'dflt' > ) ]
Lookup: 6 0 0 "'ccmp' Glyph Composition/Decomposition in Thai lookup 0"  {"'ccmp' Glyph Composition/Decomposition in Thai lookup 0"  } ['ccmp' ('thai' <'KUY ' 'PAL ' 'THA ' 'dflt' > ) ]
Lookup: 6 0 0 "'ccmp' Glyph Composition/Decomposition in Thai lookup 1"  {"'ccmp' Glyph Composition/Decomposition in Thai lookup 1"  } ['ccmp' ('thai' <'KUY ' 'PAL ' 'THA ' 'dflt' > ) ]
Lookup: 5 0 0 "Required Feature in Thai lookup 2"  {"Required Feature in Thai lookup 2"  } [' RQD' ('thai' <'PAL ' > ) ]
Lookup: 1 0 0 "Single Substitution lookup 3"  {"Single Substitution lookup 3"  } []
Lookup: 1 0 0 "Single Substitution lookup 4"  {"Single Substitution lookup 4"  } []
Lookup: 2 0 0 "Multiple Substitution lookup 5"  {"Multiple Substitution lookup 5"  } []
Lookup: 1 0 0 "Single Substitution lookup 6"  {"Single Substitution lookup 6"  } []
Lookup: 2 0 0 "Multiple Substitution lookup 7"  {"Multiple Substitution lookup 7"  } []

StartChar: exclam
Encoding: 1 33 1
Width: 168
Flags: W
HStem: 480 20G<170.278 210.278>
VStem: 60.8887 149.389<23 500>
Fore
113.13 90 m 1
 93.1299 90 l 1
 170.278 500 l 1
 210.278 500 l 1
 113.13 90 l 1
60.8887 23 m 0
 64.0771 38 79.8408 51 94.8408 51 c 0
 109.841 51 120.077 38 116.889 23 c 0
 113.7 8 97.9375 -5 82.9375 -5 c 0
 67.9375 -5 57.7002 8 60.8887 23 c 0
EndSplineSet
EndChar
StartChar: quotedbl
Encoding: 2 34 2
Width: 232
Flags: W
Fore
168.897 390 m 1
 148.897 390 l 1
 166.529 520 l 1
 206.529 520 l 1
 168.897 390 l 1
248.897 390 m 1
 228.897 390 l 1
 246.529 520 l 1
 286.529 520 l 1
 248.897 390 l 1
EndSplineSet
EndChar
StartChar: numbersign
Encoding: 3 35 3
Width: 358
Flags: W
HStem: 0 21G<35 66 175 205> 155 30<39.3232 104.946 148.323 244.946 288.323 355.946> 315 30<107.332 176.955 221.332 315.955 361.332 424.955> 480 20G<260.278 291.278 400.278 431.278>
VStem: 32.9463 398.386<155 345>
Fore
205 0 m 1
 175 0 l 1
 244.946 155 l 1
 135.946 155 l 1
 66 0 l 1
 35 0 l 1
 104.946 155 l 1
 32.9463 155 l 1
 39.3232 185 l 1
 118.323 185 l 1
 176.955 315 l 1
 100.955 315 l 1
 107.332 345 l 1
 190.332 345 l 1
 260.278 500 l 1
 291.278 500 l 1
 221.332 345 l 1
 330.332 345 l 1
 400.278 500 l 1
 431.278 500 l 1
 361.332 345 l 1
 431.332 345 l 1
 424.955 315 l 1
 346.955 315 l 1
 288.323 185 l 1
 362.323 185 l 1
 355.946 155 l 1
 274.946 155 l 1
 205 0 l 1
148.323 185 m 1
 257.323 185 l 1
 315.955 315 l 1
 206.955 315 l 1
 148.323 185 l 1
EndSplineSet
EndChar
StartChar: dollar
Encoding: 4 36 4
Width: 396
Flags: W
VStem: 70.5449 30.8511<41.111 145.403> 381.235 30.125<401 457.416>
Fore
204.372 -50 m 1
 173.372 -50 l 1
 182.087 -9 l 1
 117.149 -4 62.9277 42 70.5449 139 c 1
 101.396 143 l 1
 95.3906 63 136.739 27 188.676 22 c 1
 241.391 270 l 1
 192.491 294 148.443 322 162.26 387 c 0
 174.8 446 226.641 497 290.916 503 c 1
 300.481 548 l 1
 330.481 548 l 1
 320.916 503 l 1
 365.641 497 404.052 466 411.36 411 c 1
 381.235 401 l 1
 375.375 444 348.264 467 315.539 473 c 1
 276.854 291 l 1
 336.902 263 404.525 233 385.396 143 c 0
 367.753 60 290.638 3 213.938 -5 c 1
 204.372 -50 l 1
268.414 256 m 1
 218.676 22 l 1
 278.377 30 339.729 74 353.971 141 c 0
 367.787 206 320.313 232 268.414 256 c 1
248.192 302 m 1
 283.901 470 l 1
 237.626 464 200.975 428 191.834 385 c 0
 182.907 343 211.23 321 248.192 302 c 1
EndSplineSet
EndChar
StartChar: percent
Encoding: 5 37 5
Width: 526
Flags: W
HStem: -6 31<342.913 441.713> 159 31<371.397 470.197> 308 31<161.657 260.457> 473 31<190.139 288.939>
VStem: 67 498.278<0 500>
Fore
427.386 190 m 0
 481.386 190 516.033 146 504.556 92 c 0
 493.077 38 439.725 -6 385.725 -6 c 0
 331.725 -6 297.077 38 308.556 92 c 0
 320.033 146 373.386 190 427.386 190 c 0
338.556 92 m 0
 330.69 55 354.313 25 392.313 25 c 0
 430.313 25 466.69 55 474.556 92 c 0
 482.42 129 458.797 159 420.797 159 c 0
 382.797 159 346.42 129 338.556 92 c 0
246.129 504 m 0
 300.129 504 334.776 460 323.298 406 c 0
 311.82 352 258.468 308 204.468 308 c 0
 150.468 308 115.82 352 127.298 406 c 0
 138.776 460 192.129 504 246.129 504 c 0
157.298 406 m 0
 149.434 369 173.057 339 211.057 339 c 0
 249.057 339 285.434 369 293.298 406 c 0
 301.162 443 277.539 473 239.539 473 c 0
 201.539 473 165.162 443 157.298 406 c 0
528.278 500 m 1
 565.278 500 l 1
 104 0 l 1
 67 0 l 1
 528.278 500 l 1
EndSplineSet
EndChar
StartChar: ampersand
Encoding: 6 38 6
Width: 454
Flags: W
HStem: -5 29<120.702 297.502> 477 30<288.49 391.19>
VStem: 79.2598 377.788<161.652 180 179 180>
Fore
425.048 179 m 1
 457.048 179 l 1
 448.971 141 429.531 106 403.367 77 c 1
 442 0 l 1
 405 0 l 1
 378.266 53 l 1
 336.613 17 282.938 -5 228.938 -5 c 0
 124.938 -5 57.5791 78 79.2598 180 c 0
 95.627 257 157.656 323 231.607 351 c 1
 225.071 372 224.535 393 228.573 412 c 0
 240.689 469 292.767 507 350.767 507 c 0
 404.767 507 448.327 472 432.811 399 c 1
 402.811 399 l 1
 414.926 456 380.39 477 344.39 477 c 0
 301.39 477 266.863 451 258.573 412 c 0
 254.747 394 256.283 373 267.183 349 c 2
 389.894 103 l 1
 407.782 126 419.096 151 425.048 179 c 1
366.367 77 m 1
 241.868 324 l 1
 177.192 302 123.076 245 109.048 179 c 0
 90.9805 94 147.102 24 235.102 24 c 0
 283.102 24 330.565 45 366.367 77 c 1
EndSplineSet
EndChar
StartChar: quoteright
Encoding: 300 8217 7
Width: 176
Flags: W
HStem: 485 20G<184.331 184.341>
VStem: 118.623 97.718<361 458>
Fore
184.341 505 m 1
 184.331 505 l 1
 203.481 505 223.217 490.35 216.341 458 c 0
 208.189 419.65 178.636 383.88 144.233 361 c 1
 118.623 361 l 1
 147.149 380.51 172.97 414.57 177.825 437.79 c 1
 175.328 437.24 172.728 437 169.888 437 c 0
 151.407 437 139.187 452.52 143.114 471 c 0
 147.042 489.48 165.861 505 184.341 505 c 1
EndSplineSet
EndChar
StartChar: parenleft
Encoding: 8 40 8
Width: 164
Flags: W
VStem: 89.5703 163.448<228.584 527>
Fore
230.018 527 m 1
 253.018 527 l 1
 188.155 428.277 144.447 327.316 122.617 224.613 c 0
 100.664 121.335 100.836 16.2959 123.87 -90 c 1
 100.87 -90 l 1
 71.4824 17.5283 67.3467 124.028 89.5703 228.584 c 0
 111.163 330.169 157.639 429.92 230.018 527 c 1
EndSplineSet
EndChar
StartChar: parenright
Encoding: 9 41 9
Width: 154
Flags: W
VStem: 1.87012 169.733<-90 228.584>
Fore
135.018 527 m 1
 158.018 527 l 1
 189.125 429.92 193.195 330.169 171.603 228.584 c 0
 149.379 124.028 99.9678 17.5283 24.8701 -90 c 1
 1.87012 -90 l 1
 70.0908 16.2959 114.917 121.335 136.869 224.613 c 0
 158.699 327.316 157.91 428.277 135.018 527 c 1
EndSplineSet
EndChar
StartChar: asterisk
Encoding: 10 42 10
Width: 306
Flags: W
HStem: 410 182<262.833 285.148>
VStem: 164.616 194<511 511>
Fore
262.833 592 m 1
 294.833 592 l 1
 279.954 522 l 1
 357.78 540 l 1
 358.616 511 l 1
 283.003 494 l 1
 313.762 427 l 1
 285.148 410 l 1
 254.39 477 l 1
 195.148 410 l 1
 173.762 427 l 1
 233.003 494 l 1
 164.616 511 l 1
 177.78 540 l 1
 247.954 522 l 1
 262.833 592 l 1
EndSplineSet
EndChar
StartChar: plus
Encoding: 11 43 11
Width: 348
Flags: W
HStem: 235 30<97.3271 208.951 245.327 356.951>
VStem: 90.9512 272.376<235 265>
Fore
213.869 117 m 1
 183.869 117 l 1
 208.951 235 l 1
 90.9512 235 l 1
 97.3271 265 l 1
 215.327 265 l 1
 240.409 383 l 1
 270.409 383 l 1
 245.327 265 l 1
 363.327 265 l 1
 356.951 235 l 1
 238.951 235 l 1
 213.869 117 l 1
EndSplineSet
EndChar
StartChar: comma
Encoding: 12 44 12
Width: 176
Flags: W
VStem: 38.7832 83.3428<-81 10>
Fore
60.8887 23 m 4
 64.0771 38 79.8408 51 94.8408 51 c 4
 110.841 51 128.29 39 122.126 10 c 4
 110.223 -46 53.7832 -81 53.7832 -81 c 5
 38.7832 -81 l 5
 62.1836 -65 93.6865 -25 99 0 c 5
 93.1494 -4 88.9375 -5 82.9375 -5 c 4
 67.9375 -5 57.7002 8 60.8887 23 c 4
EndSplineSet
EndChar
StartChar: hyphen
Encoding: 13 45 13
Width: 288
Flags: W
HStem: 185 30<86.6992 286.323>
VStem: 80.3232 212.376<185 215>
Fore
292.699 215 m 5
 286.323 185 l 5
 80.3232 185 l 5
 86.6992 215 l 5
 292.699 215 l 5
EndSplineSet
EndChar
StartChar: period
Encoding: 14 46 14
Width: 168
Flags: W
VStem: 60.8887 56.0003<4.65571 41.3477 23 23>
Fore
60.8887 23 m 4
 64.0771 38 79.8408 51 94.8408 51 c 4
 109.841 51 120.077 38 116.889 23 c 4
 113.7 8 97.9375 -5 82.9375 -5 c 4
 67.9375 -5 57.7002 8 60.8887 23 c 4
EndSplineSet
EndChar
StartChar: slash
Encoding: 15 47 15
Width: 392
Flags: W
HStem: 0 21G<0 37> 480 20G<461.278 498.278>
VStem: 0 498.278<0 500>
Fore
461.278 500 m 1
 498.278 500 l 1
 37 0 l 1
 0 0 l 1
 461.278 500 l 1
EndSplineSet
EndChar
StartChar: zero
Encoding: 16 48 16
Width: 400
Flags: W
HStem: -5 30<115.613 295.013> 475 30<211.265 390.665>
VStem: 87.1387 332<231.652 268.348 250 250>
Fore
419.139 250 m 0
 390.656 116 296.938 -5 198.938 -5 c 0
 100.938 -5 58.6562 116 87.1387 250 c 0
 115.622 384 209.341 505 307.341 505 c 0
 405.341 505 447.622 384 419.139 250 c 0
117.139 250 m 0
 89.2939 119 136.313 25 205.313 25 c 0
 274.313 25 361.294 119 389.139 250 c 0
 416.984 381 369.965 475 300.965 475 c 0
 231.965 475 144.984 381 117.139 250 c 0
EndSplineSet
EndChar
StartChar: one
Encoding: 17 49 17
Width: 400
Flags: W
HStem: 0 21G<185 215>
VStem: 185 136.278<0 500>
Fore
185 0 m 1
 278.8 446 l 1
 217.998 414 l 1
 208.524 440 l 1
 321.278 500 l 1
 215 0 l 1
 185 0 l 1
EndSplineSet
EndChar
StartChar: two
Encoding: 18 50 18
Width: 400
Flags: W
HStem: 0 30<70.377 360> 346 21G<128.545 158.545> 475 30<220.065 382.565>
VStem: 34 384.545<0 346>
Fore
360 0 m 1
 34 0 l 1
 36.9756 14 l 2
 73.3232 185 360.85 211 389.545 346 c 0
 405.062 419 363.965 475 301.965 475 c 0
 238.965 475 174.062 419 158.545 346 c 1
 128.545 346 l 1
 147.037 433 226.341 505 307.341 505 c 0
 388.341 505 437.037 433 418.545 346 c 0
 386.236 194 117.284 166 70.377 30 c 1
 366.377 30 l 1
 360 0 l 1
EndSplineSet
EndChar
StartChar: three
Encoding: 19 51 19
Width: 400
Flags: W
HStem: -5 30<117.913 294.713> 273 30<259.028 329.104> 475 30<236.965 366.965>
VStem: 77.6709 325.376<149 386>
Fore
77.6709 149 m 1
 108.671 149 l 1
 94.2168 81 138.313 25 206.313 25 c 0
 274.313 25 342.217 81 356.671 149 c 0
 371.125 217 327.028 273 259.028 273 c 1
 265.404 303 l 1
 314.404 303 362.419 336 373.047 386 c 0
 383.462 435 351.965 475 301.965 475 c 0
 251.965 475 203.462 435 193.047 386 c 1
 163.047 386 l 1
 177.075 452 242.341 505 308.341 505 c 0
 374.341 505 417.075 452 403.047 386 c 0
 393.907 343 363.468 308 325.429 289 c 1
 373.327 265 398.85 211 385.671 149 c 0
 367.604 64 283.938 -5 198.938 -5 c 0
 113.938 -5 59.6035 64 77.6709 149 c 1
EndSplineSet
EndChar
StartChar: four
Encoding: 20 52 20
Width: 400
Flags: W
HStem: 0 21G<283 313> 93 30<86.1445 302.768 339.145 377.768>
VStem: 19.7676 400.786<93 506>
Fore
309.145 123 m 1
 371.424 416 l 1
 86.1445 123 l 1
 309.145 123 l 1
313 0 m 1
 283 0 l 1
 302.768 93 l 1
 19.7676 93 l 1
 420.554 506 l 1
 339.145 123 l 1
 394.145 123 l 1
 377.768 93 l 1
 332.768 93 l 1
 313 0 l 1
EndSplineSet
EndChar
StartChar: five
Encoding: 21 53 21
Width: 400
Flags: W
HStem: -6 30<117.002 301.602> 328 28<214.87 366.219> 470 30<193.901 406.901>
VStem: 64.458 30<57.8371 150.185>
Fore
406.901 470 m 1
 193.901 470 l 1
 144.404 303 l 1
 182.419 336 228.67 356 274.67 356 c 0
 368.67 356 425.24 274 404.197 175 c 0
 383.154 76 291.725 -6 197.725 -6 c 0
 112.725 -6 58.1787 62 64.458 148 c 1
 94.458 148 l 1
 91.3672 77 137.102 24 204.102 24 c 0
 279.102 24 356.343 91 374.41 176 c 0
 392.478 261 343.719 328 268.719 328 c 0
 217.719 328 164.917 296 131.139 250 c 1
 98.1387 250 l 1
 172.278 500 l 1
 423.278 500 l 1
 406.901 470 l 1
EndSplineSet
EndChar
StartChar: six
Encoding: 22 54 22
Width: 400
Flags: W
HStem: 0 29<107.664 302.664> 333 29<236.476 367.281> 484 20G<315.129 351.129>
VStem: 69.4727 336<162.652 199.348 181 181>
Fore
375.473 181 m 0
 393.54 266 344.781 333 269.781 333 c 0
 194.781 333 117.54 266 99.4727 181 c 0
 81.4053 96 130.164 29 205.164 29 c 0
 280.164 29 357.405 96 375.473 181 c 0
315.129 504 m 1
 351.129 504 l 1
 215.607 351 l 1
 235.096 358 255.945 362 275.945 362 c 0
 369.945 362 426.516 280 405.473 181 c 0
 384.43 82 293 0 199 0 c 0
 105 0 48.4297 82 69.4727 181 c 0
 90.5156 280 170.27 340 315.129 504 c 1
EndSplineSet
EndChar
StartChar: seven
Encoding: 23 55 23
Width: 400
Flags: W
HStem: 0 21G<133 166> 470 30<161.278 443.901>
VStem: 133 363.278<0 500>
Fore
161.278 500 m 1
 496.278 500 l 1
 166 0 l 1
 133 0 l 1
 443.901 470 l 1
 144.901 470 l 1
 161.278 500 l 1
EndSplineSet
EndChar
StartChar: eight
Encoding: 24 56 24
Width: 400
Flags: W
HStem: -5 30<116.913 293.713> 273 30<200.704 328.104> 475 30<237.265 364.665>
VStem: 77.6709 324.014<149 389>
Fore
307.341 505 m 0
 372.341 505 415.288 453 401.685 389 c 0
 392.757 347 361.893 310 323.642 290 c 1
 372.54 266 399.062 212 385.671 149 c 0
 367.604 64 283.938 -5 198.938 -5 c 0
 113.938 -5 59.6035 64 77.6709 149 c 0
 91.0615 212 140.54 266 199.642 290 c 1
 169.893 310 154.757 347 163.685 389 c 0
 177.288 453 242.341 505 307.341 505 c 0
107.671 149 m 0
 93.2168 81 137.313 25 205.313 25 c 0
 273.313 25 341.217 81 355.671 149 c 0
 370.125 217 326.028 273 258.028 273 c 0
 190.028 273 122.125 217 107.671 149 c 0
264.404 303 m 0
 313.404 303 361.694 342 371.685 389 c 0
 381.675 436 349.965 475 300.965 475 c 0
 251.965 475 203.675 436 193.685 389 c 0
 183.694 342 215.404 303 264.404 303 c 0
EndSplineSet
EndChar
StartChar: nine
Encoding: 25 57 25
Width: 400
Flags: W
HStem: 0 21G<154 190> 142 29<137.848 268.652> 475 29<202.465 397.465>
VStem: 99.6562 336<304.653 341.348 323 323>
Fore
129.656 323 m 0
 111.589 238 160.348 171 235.348 171 c 0
 310.348 171 387.589 238 405.656 323 c 0
 423.723 408 374.965 475 299.965 475 c 0
 224.965 475 147.723 408 129.656 323 c 0
190 0 m 1
 154 0 l 1
 289.521 153 l 1
 270.033 146 249.183 142 229.183 142 c 0
 135.183 142 78.6123 224 99.6562 323 c 0
 120.699 422 212.129 504 306.129 504 c 0
 400.129 504 456.699 422 435.656 323 c 0
 414.612 224 334.859 164 190 0 c 1
EndSplineSet
EndChar
StartChar: colon
Encoding: 26 58 26
Width: 168
Flags: W
HStem: 326 20G<150.045 165.045>
VStem: 60.8887 118.704<23 318>
Fore
60.8887 23 m 0
 64.0771 38 79.8408 51 94.8408 51 c 0
 109.841 51 120.077 38 116.889 23 c 0
 113.7 8 97.9375 -5 82.9375 -5 c 0
 67.9375 -5 57.7002 8 60.8887 23 c 0
123.593 318 m 0
 126.781 333 142.545 346 157.545 346 c 0
 172.545 346 182.781 333 179.593 318 c 0
 176.404 303 160.642 290 145.642 290 c 0
 130.642 290 120.404 303 123.593 318 c 0
EndSplineSet
EndChar
StartChar: semicolon
Encoding: 27 59 27
Width: 168
Flags: W
HStem: 326 20G<150.045 165.045>
VStem: 38.7832 140.81<-81 318>
Fore
60.8887 23 m 0
 64.0771 38 79.8408 51 94.8408 51 c 0
 110.841 51 128.29 39 122.126 10 c 0
 110.223 -46 53.7832 -81 53.7832 -81 c 1
 38.7832 -81 l 1
 62.1836 -65 93.6865 -25 99 0 c 1
 93.1494 -4 88.9375 -5 82.9375 -5 c 0
 67.9375 -5 57.7002 8 60.8887 23 c 0
123.593 318 m 0
 126.781 333 142.545 346 157.545 346 c 0
 172.545 346 182.781 333 179.593 318 c 0
 176.404 303 160.642 290 145.642 290 c 0
 130.642 290 120.404 303 123.593 318 c 0
EndSplineSet
EndChar
StartChar: less
Encoding: 28 60 28
Width: 397
Flags: W
HStem: 0 21G<319 377> 320 20G<391.27 449.27>
VStem: 77.1348 372.135<170 340>
Fore
377 0 m 1
 319 0 l 1
 77.1348 170 l 1
 391.27 340 l 1
 449.27 340 l 1
 135.135 170 l 1
 377 0 l 1
EndSplineSet
EndChar
StartChar: equal
Encoding: 29 61 29
Width: 348
Flags: W
HStem: 145 30<78.1973 337.82> 225 30<95.2021 354.825>
VStem: 71.8203 289.382<145 255>
Fore
361.202 255 m 1
 354.825 225 l 1
 88.8252 225 l 1
 95.2021 255 l 1
 361.202 255 l 1
344.197 175 m 1
 337.82 145 l 1
 71.8203 145 l 1
 78.1973 175 l 1
 344.197 175 l 1
EndSplineSet
EndChar
StartChar: greater
Encoding: 30 62 30
Width: 404
Flags: W
HStem: 0 21G<41 99> 320 20G<113.27 171.27>
VStem: 41 372.135<0 170>
Fore
99 0 m 1
 41 0 l 1
 355.135 170 l 1
 113.27 340 l 1
 171.27 340 l 1
 413.135 170 l 1
 99 0 l 1
EndSplineSet
EndChar
StartChar: question
Encoding: 31 63 31
Width: 348
Flags: W
HStem: 475 30<198.765 352.165>
VStem: 121.559 266<379 397.348 379 379>
Fore
140.889 23 m 0
 144.077 38 159.841 51 174.841 51 c 0
 189.841 51 200.077 38 196.889 23 c 0
 193.7 8 177.938 -5 162.938 -5 c 0
 147.938 -5 137.7 8 140.889 23 c 0
201.894 103 m 1
 171.894 103 l 1
 182.521 153 l 2
 207.391 270 343.105 311 357.559 379 c 0
 369.675 436 335.965 475 281.965 475 c 0
 217.965 475 161.337 425 151.559 379 c 1
 121.559 379 l 1
 135.588 445 210.341 505 288.341 505 c 0
 360.341 505 403.075 452 387.559 379 c 0
 369.066 292 234.414 256 212.521 153 c 2
 201.894 103 l 1
EndSplineSet
EndChar
StartChar: at
Encoding: 32 64 32
Width: 681
Flags: W
HStem: -166 29<120.78 372.98> -7 31<210.813 356.625 501.102 579.102> 314 30<320.543 500.419> 473 31<250.439 630.039>
Fore
557.27 340 m 1
 589.27 340 l 1
 513.772 173 l 2
 510.284 166 498.608 144 493.507 120 c 0
 480.541 59 510.102 24 540.102 24 c 0
 570.102 24 622.754 60 647.41 176 c 0
 682.694 342 586.539 473 441.539 473 c 0
 294.539 473 143.844 338 107.71 168 c 0
 71.5752 -2 164.88 -137 311.88 -137 c 0
 358.88 -137 405.855 -123 449.957 -99 c 1
 460.643 -124 l 1
 411.904 -151 358.716 -166 305.716 -166 c 0
 138.716 -166 37.8115 -15 76.9219 169 c 0
 116.032 353 281.129 504 448.129 504 c 0
 612.129 504 715.67 356 677.41 176 c 0
 647.652 36 576.512 -7 533.512 -7 c 0
 487.512 -7 457.439 35 459.556 92 c 1
 408.439 35 337.725 -6 274.725 -6 c 0
 202.725 -6 166.203 48 181.932 122 c 0
 205.951 235 334.119 344 434.119 344 c 0
 485.119 344 518.381 317 527.453 275 c 1
 557.27 340 l 1
429.743 314 m 0
 345.743 314 234.337 218 214.145 123 c 0
 202.028 66 227.313 25 282.313 25 c 0
 364.313 25 477.082 118 497.912 216 c 0
 510.028 273 484.743 314 429.743 314 c 0
EndSplineSet
EndChar
StartChar: A
Encoding: 33 65 33
Width: 444
Flags: W
HStem: 0 21G<12 44 400 432> 155 30<161.323 363.323>
VStem: 12 420<0 0>
Fore
161.323 185 m 1
 363.323 185 l 1
 313.975 428 l 1
 161.323 185 l 1
368.946 155 m 1
 140.946 155 l 1
 44 0 l 1
 12 0 l 1
 329.554 506 l 1
 432 0 l 1
 400 0 l 1
 368.946 155 l 1
EndSplineSet
EndChar
StartChar: B
Encoding: 34 66 34
Width: 434
Flags: W
HStem: 0 30<92.377 238.377> 263 30<148.279 361.079> 470 30<185.901 398.701>
VStem: 56 380.771<0 380>
Fore
92.377 30 m 1
 238.377 30 l 2
 312.377 30 380.854 84 394.246 147 c 0
 407.637 210 361.902 263 287.902 263 c 2
 141.902 263 l 1
 92.377 30 l 1
405.771 380 m 2
 405.984 381 l 2
 415.975 428 381.901 470 325.901 470 c 2
 185.901 470 l 1
 148.279 293 l 1
 288.279 293 l 2
 344.279 293 395.781 333 405.771 380 c 2
162.278 500 m 1
 334.278 500 l 2
 404.278 500 450.8 446 436.771 380 c 0
 427.844 338 396.192 302 355.729 281 c 1
 408.052 259 437.212 208 424.246 147 c 0
 406.816 65 320 0 232 0 c 2
 56 0 l 1
 162.278 500 l 1
EndSplineSet
EndChar
StartChar: C
Encoding: 35 67 35
Width: 540
Flags: W
HStem: -4 29<139.113 396.513> 475 31<234.765 492.165>
VStem: 94.3516 490.095<251 402>
Fore
499.656 116 m 1
 520.256 100 l 1
 460.864 37 378.149 -4 294.149 -4 c 0
 154.149 -4 64.3809 110 94.3516 251 c 0
 124.322 392 262.554 506 402.554 506 c 0
 486.554 506 551.839 465 584.447 402 c 1
 556.622 384 l 1
 527.312 439 469.965 475 395.965 475 c 0
 271.965 475 150.496 374 124.139 250 c 0
 97.7822 126 176.313 25 300.313 25 c 0
 374.313 25 446.966 61 499.656 116 c 1
EndSplineSet
EndChar
StartChar: D
Encoding: 36 68 36
Width: 452
Flags: W
HStem: 0 30<92.377 163.377> 470 30<185.901 418.101>
VStem: 56 408.139<0 250>
Fore
92.377 30 m 1
 163.377 30 l 2
 287.377 30 407.782 126 434.139 250 c 0
 460.496 374 380.901 470 256.901 470 c 2
 185.901 470 l 1
 92.377 30 l 1
56 0 m 1
 162.278 500 l 1
 263.278 500 l 2
 403.278 500 494.109 391 464.139 250 c 0
 434.169 109 297 0 157 0 c 2
 56 0 l 1
EndSplineSet
EndChar
StartChar: E
Encoding: 37 69 37
Width: 367
Flags: W
HStem: 0 30<92.377 346> 275 30<150.83 384.453> 470 30<185.901 446.901>
VStem: 56 397.278<0 500>
Fore
390.83 305 m 1
 384.453 275 l 1
 144.453 275 l 1
 92.377 30 l 1
 352.377 30 l 1
 346 0 l 1
 56 0 l 1
 162.278 500 l 1
 453.278 500 l 1
 446.901 470 l 1
 185.901 470 l 1
 150.83 305 l 1
 390.83 305 l 1
EndSplineSet
EndChar
StartChar: F
Encoding: 38 70 38
Width: 367
Flags: W
HStem: 0 21G<56 86> 275 30<150.83 384.453> 470 30<185.901 446.901>
VStem: 56 397.278<0 500>
Fore
390.83 305 m 1
 384.453 275 l 1
 144.453 275 l 1
 86 0 l 1
 56 0 l 1
 162.278 500 l 1
 453.278 500 l 1
 446.901 470 l 1
 185.901 470 l 1
 150.83 305 l 1
 390.83 305 l 1
EndSplineSet
EndChar
StartChar: G
Encoding: 39 71 39
Width: 590
Flags: W
HStem: -5 30<139.113 455.013> 235 30<351.327 567.951> 475 30<234.765 492.165>
CounterMasks: 1 00
Fore
584.447 402 m 1
 556.622 384 l 1
 527.312 439 469.965 475 395.965 475 c 0
 271.965 475 150.496 374 124.139 250 c 0
 97.7822 126 176.313 25 300.313 25 c 0
 419.313 25 536.082 118 567.951 235 c 1
 344.951 235 l 1
 351.327 265 l 1
 605.327 265 l 1
 602.139 250 l 2
 572.169 109 433.938 -5 293.938 -5 c 0
 153.938 -5 64.1689 109 94.1387 250 c 0
 124.109 391 262.341 505 402.341 505 c 0
 485.341 505 551.626 464 584.447 402 c 1
EndSplineSet
EndChar
StartChar: H
Encoding: 40 72 40
Width: 468
Flags: W
HStem: 0 21G<56 86 382 412> 275 30<150.83 440.453> 480 20G<162.278 192.278 488.278 518.278>
VStem: 56 462.278<0 500>
Fore
488.278 500 m 1
 518.278 500 l 1
 412 0 l 1
 382 0 l 1
 440.453 275 l 1
 144.453 275 l 1
 86 0 l 1
 56 0 l 1
 162.278 500 l 1
 192.278 500 l 1
 150.83 305 l 1
 446.83 305 l 1
 488.278 500 l 1
EndSplineSet
EndChar
StartChar: I
Encoding: 41 73 41
Width: 142
Flags: W
HStem: 0 21G<56 86> 480 20G<162.278 192.278>
VStem: 56 136.278<0 500>
Fore
86 0 m 1
 56 0 l 1
 162.278 500 l 1
 192.278 500 l 1
 86 0 l 1
EndSplineSet
EndChar
StartChar: J
Encoding: 42 74 42
Width: 343
Flags: W
HStem: -5 30<104.013 236.613> 480 20G<365.278 393.278>
VStem: 68.6328 324.645<130 500>
Fore
365.278 500 m 1
 393.278 500 l 1
 314.633 130 l 2
 298.903 56 231.938 -5 162.938 -5 c 0
 93.9375 -5 52.9033 56 68.6328 130 c 1
 98.6328 130 l 1
 86.0918 71 119.313 25 170.313 25 c 0
 221.313 25 274.092 71 286.633 130 c 2
 365.278 500 l 1
EndSplineSet
EndChar
StartChar: K
Encoding: 43 75 43
Width: 386
Flags: W
HStem: 0 21G<56 86 343 382> 480 20G<162.278 192.278 425.278 470.278>
VStem: 56 414.278<0 500>
Fore
162.278 500 m 1
 192.278 500 l 1
 147.216 288 l 1
 425.278 500 l 1
 470.278 500 l 1
 228.168 316 l 1
 382 0 l 1
 343 0 l 1
 202.917 296 l 1
 138.502 247 l 1
 86 0 l 1
 56 0 l 1
 162.278 500 l 1
EndSplineSet
EndChar
StartChar: L
Encoding: 44 76 44
Width: 367
Flags: W
HStem: 0 30<92.377 347> 480 20G<162.278 192.278>
VStem: 56 297.377<0 30>
Fore
347 0 m 1
 56 0 l 1
 162.278 500 l 1
 192.278 500 l 1
 92.377 30 l 1
 353.377 30 l 1
 347 0 l 1
EndSplineSet
EndChar
StartChar: M
Encoding: 45 77 45
Width: 581
Flags: W
HStem: 0 21G<12 41 538 569>
VStem: 538 31<0 104.301>
Fore
41 0 m 1
 12 0 l 1
 215.554 506 l 1
 305.304 72 l 1
 583.554 506 l 1
 569 0 l 1
 538 0 l 1
 549.447 402 l 1
 287.725 -6 l 1
 203.447 402 l 1
 41 0 l 1
EndSplineSet
EndChar
StartChar: N
Encoding: 46 78 46
Width: 563
Flags: W
HStem: 0 21G<56 86> 480 20G<583.278 613.278>
Fore
56 0 m 1
 163.767 507 l 1
 491.241 67 l 1
 583.278 500 l 1
 613.278 500 l 1
 505.512 -7 l 1
 178.037 433 l 1
 86 0 l 1
 56 0 l 1
EndSplineSet
EndChar
StartChar: O
Encoding: 47 79 47
Width: 590
Flags: W
HStem: -5 30<139.113 461.513> 475 30<234.765 557.165>
Fore
402.341 505 m 0
 542.341 505 632.109 391 602.139 250 c 0
 572.169 109 433.938 -5 293.938 -5 c 0
 153.938 -5 64.1689 109 94.1387 250 c 0
 124.109 391 262.341 505 402.341 505 c 0
124.139 250 m 0
 97.7822 126 176.313 25 300.313 25 c 0
 424.313 25 545.782 126 572.139 250 c 0
 598.496 374 519.965 475 395.965 475 c 0
 271.965 475 150.496 374 124.139 250 c 0
EndSplineSet
EndChar
StartChar: P
Encoding: 48 80 48
Width: 404
Flags: W
HStem: 0 21G<56 86> 235 31<142.54 360.44> 471 30<186.114 404.314>
VStem: 56 385.221<0 368>
Fore
56 0 m 1
 162.491 501 l 1
 340.491 501 l 2
 412.491 501 456.737 441 441.221 368 c 0
 425.704 295 355.951 235 284.951 235 c 2
 135.951 235 l 1
 86 0 l 1
 56 0 l 1
142.54 266 m 1
 291.54 266 l 2
 344.54 266 398.105 311 410.221 368 c 0
 422.337 425 388.114 471 334.114 471 c 2
 186.114 471 l 1
 142.54 266 l 1
EndSplineSet
EndChar
StartChar: Q
Encoding: 49 81 49
Width: 590
Flags: W
HStem: -5 30<139.113 377.013> 475 30<234.765 557.165>
Fore
412.135 170 m 1
 451.135 170 l 1
 490.743 107 l 1
 531.033 146 560.661 196 572.139 250 c 0
 598.496 374 519.965 475 395.965 475 c 0
 271.965 475 150.496 374 124.139 250 c 0
 97.7822 126 176.313 25 300.313 25 c 0
 359.313 25 417.203 48 465.067 85 c 1
 412.135 170 l 1
557 0 m 1
 517 0 l 1
 478.966 61 l 1
 425.251 20 359.938 -5 293.938 -5 c 0
 153.938 -5 64.1689 109 94.1387 250 c 0
 124.109 391 262.341 505 402.341 505 c 0
 542.341 505 632.109 391 602.139 250 c 0
 588.535 186 553.207 128 504.643 83 c 1
 557 0 l 1
EndSplineSet
EndChar
StartChar: R
Encoding: 50 82 50
Width: 404
Flags: W
HStem: 0 21G<56 86 356 390> 235 30<142.327 276.951> 470 30<185.901 404.101>
VStem: 56 385.008<0 367>
Fore
56 0 m 1
 162.278 500 l 1
 340.278 500 l 2
 412.278 500 456.524 440 441.008 367 c 0
 427.404 303 371.927 249 310.376 237 c 1
 390 0 l 1
 356 0 l 1
 276.951 235 l 1
 135.951 235 l 1
 86 0 l 1
 56 0 l 1
142.327 265 m 1
 291.327 265 l 2
 344.327 265 397.893 310 410.008 367 c 0
 422.124 424 387.901 470 333.901 470 c 2
 185.901 470 l 1
 142.327 265 l 1
EndSplineSet
EndChar
StartChar: S
Encoding: 51 83 51
Width: 395
Flags: W
HStem: -7 31<127.002 285.602> 475 31<230.365 349.965>
VStem: 70.9707 30.8493<35.2487 147.346> 380.447 30.126<402 467.526>
Fore
410.573 412 m 1
 380.447 402 l 1
 374.075 452 337.965 475 297.965 475 c 0
 245.965 475 202.675 436 192.685 389 c 0
 168.028 273 419.255 307 384.396 143 c 0
 365.266 53 276.512 -7 194.512 -7 c 0
 124.512 -7 63.0771 38 70.9707 141 c 1
 101.82 145 l 1
 95.541 59 144.102 24 201.102 24 c 0
 266.102 24 338.879 70 354.608 144 c 0
 384.366 284 132.289 246 162.897 390 c 0
 176.075 452 234.554 506 304.554 506 c 0
 355.554 506 402.752 474 410.573 412 c 1
EndSplineSet
EndChar
StartChar: T
Encoding: 52 84 52
Width: 330
Flags: W
HStem: 0 21G<150 180> 470 30<126.278 249.901 279.901 409.901>
VStem: 119.901 296.377<470 500>
Fore
416.278 500 m 1
 409.901 470 l 1
 279.901 470 l 1
 180 0 l 1
 150 0 l 1
 249.901 470 l 1
 119.901 470 l 1
 126.278 500 l 1
 416.278 500 l 1
EndSplineSet
EndChar
StartChar: U
Encoding: 53 85 53
Width: 468
Flags: W
HStem: -5 30<136.313 344.313> 480 20G<162.278 192.278 488.278 518.278>
VStem: 96.3857 421.892<190 500>
Fore
162.278 500 m 1
 192.278 500 l 1
 126.386 190 l 2
 106.618 97 160.313 25 240.313 25 c 0
 320.313 25 402.618 97 422.386 190 c 2
 488.278 500 l 1
 518.278 500 l 1
 452.386 190 l 2
 429.643 83 331.938 -5 232.938 -5 c 0
 133.938 -5 73.6426 83 96.3857 190 c 2
 162.278 500 l 1
EndSplineSet
EndChar
StartChar: V
Encoding: 54 86 54
Width: 432
Flags: W
HStem: 480 20G<118.278 150.278 493.278 526.278>
VStem: 118.278 408<500 500>
Fore
493.278 500 m 1
 526.278 500 l 1
 217.725 -6 l 1
 118.278 500 l 1
 150.278 500 l 1
 233.941 75 l 1
 493.278 500 l 1
EndSplineSet
EndChar
StartChar: W
Encoding: 55 87 55
Width: 659
Flags: W
HStem: 480 20G<114.278 144.278 725.278 757.278>
Fore
114.278 500 m 1
 144.278 500 l 1
 203.28 86 l 1
 436.554 506 l 1
 491.28 86 l 1
 725.278 500 l 1
 757.278 500 l 1
 471.725 -6 l 1
 417.573 412 l 1
 185.725 -6 l 1
 114.278 500 l 1
EndSplineSet
EndChar
StartChar: X
Encoding: 56 88 56
Width: 324
Flags: W
HStem: 0 21G<8 42 282 316> 480 20G<134.278 168.278 368.278 402.278>
VStem: 8 394.278<0 500>
Fore
134.278 500 m 1
 168.278 500 l 1
 226.404 303 l 1
 368.278 500 l 1
 402.278 500 l 1
 236.391 270 l 1
 316 0 l 1
 282 0 l 1
 212.163 236 l 1
 42 0 l 1
 8 0 l 1
 202.391 270 l 1
 134.278 500 l 1
EndSplineSet
EndChar
StartChar: Y
Encoding: 57 89 57
Width: 412
Flags: W
HStem: 0 21G<191 221> 480 20G<118.278 153.278 471.278 506.278>
VStem: 118.278 388<500 500>
Fore
118.278 500 m 1
 153.278 500 l 1
 258.714 248 l 1
 471.278 500 l 1
 506.278 500 l 1
 266.912 216 l 1
 221 0 l 1
 191 0 l 1
 236.912 216 l 1
 118.278 500 l 1
EndSplineSet
EndChar
StartChar: Z
Encoding: 58 90 58
Width: 398
Flags: W
HStem: 0 30<74.377 376> 470 30<151.278 422.901>
VStem: 12 473.278<0 500>
Fore
151.278 500 m 1
 485.278 500 l 1
 74.377 30 l 1
 392.377 30 l 1
 376 0 l 1
 12 0 l 1
 422.901 470 l 1
 134.901 470 l 1
 151.278 500 l 1
EndSplineSet
EndChar
StartChar: bracketleft
Encoding: 59 91 59
Width: 146
Flags: W
HStem: -105 30<70.0586 123.682> 500 30<192.278 252.278>
VStem: 33.6816 224.973<-105 530>
Fore
192.278 500 m 1
 70.0586 -75 l 1
 130.059 -75 l 1
 123.682 -105 l 1
 33.6816 -105 l 1
 168.655 530 l 1
 258.655 530 l 1
 252.278 500 l 1
 192.278 500 l 1
EndSplineSet
EndChar
StartChar: backslash
Encoding: 60 92 60
Width: 392
Flags: W
HStem: 0 21G<355 392> 480 20G<106.278 143.278>
VStem: 106.278 285.722<0 500>
Fore
106.278 500 m 1
 143.278 500 l 1
 392 0 l 1
 355 0 l 1
 106.278 500 l 1
EndSplineSet
EndChar
StartChar: bracketright
Encoding: 61 93 61
Width: 146
Flags: W
HStem: -105 30<-15.9414 44.0586> 500 30<112.655 166.278>
VStem: -22.3184 224.973<-105 530>
Fore
166.278 500 m 1
 106.278 500 l 1
 112.655 530 l 1
 202.655 530 l 1
 67.6816 -105 l 1
 -22.3184 -105 l 1
 -15.9414 -75 l 1
 44.0586 -75 l 1
 166.278 500 l 1
EndSplineSet
EndChar
StartChar: asciicircum
Encoding: 62 94 62
Width: 402
Flags: W
HStem: 250 250<291.278 414.139>
VStem: 94.1387 320<250 250>
Fore
291.278 500 m 1
 325.278 500 l 1
 414.139 250 l 1
 379.139 250 l 1
 301.689 469 l 1
 129.139 250 l 1
 94.1387 250 l 1
 291.278 500 l 1
EndSplineSet
EndChar
StartChar: underscore
Encoding: 63 95 63
Width: 326
Flags: W
HStem: -30 30<0 319.623>
VStem: -6.37695 332.377<-30 0>
Fore
326 0 m 1
 319.623 -30 l 1
 -6.37695 -30 l 1
 0 0 l 1
 326 0 l 1
EndSplineSet
EndChar
StartChar: quoteleft
Encoding: 299 8216 64
Width: 176
Flags: W
HStem: 487 20G<201.166 226.776>
VStem: 129.059 97.717<410 507>
Fore
161.058 363 m 1
 161.068 363 l 1
 141.918 363 122.182 377.65 129.059 410 c 0
 137.21 448.35 166.763 484.12 201.166 507 c 1
 226.776 507 l 1
 198.249 487.49 172.43 453.43 167.574 430.21 c 1
 170.071 430.76 172.672 431 175.512 431 c 0
 193.992 431 206.213 415.48 202.285 397 c 0
 198.356 378.52 179.538 363 161.058 363 c 1
EndSplineSet
EndChar
StartChar: a
Encoding: 65 97 65
Width: 356
Flags: W
HStem: -6 30<75.9015 208.625> 173 22.003<211.596 306.772> 316 30<192.868 299.468>
VStem: 52.7051 288.743<88 195>
Fore
308 0 m 1
 276 0 l 1
 274.764 13 275.951 28 279.565 45 c 2
 285.092 71 l 1
 247.377 30 192.725 -6 139.725 -6 c 0
 63.7246 -6 43.7773 46 52.7051 88 c 0
 75.0537 193.142 217.81 195.003 302.382 195.003 c 0
 311.448 195 l 1
 325.815 272 284.168 316 233.168 316 c 0
 202.168 316 166.767 300 136.753 267 c 1
 116.153 283 l 1
 154.293 326 199.545 346 239.545 346 c 0
 306.545 346 360.066 292 341.448 195 c 2
 309.565 45 l 2
 305.313 25 305.126 10 308 0 c 1
146.102 24 m 0
 201.102 24 262.666 69 293.169 109 c 1
 306.772 173 l 1
 233.56 172 99.71 168 82.7051 88 c 0
 76.7529 60 92.1016 24 146.102 24 c 0
EndSplineSet
EndChar
StartChar: b
Encoding: 66 98 66
Width: 408
Flags: W
HStem: -5 30<143.338 305.713> 315 30<217.732 367.355> 480 20G<162.278 192.278>
VStem: 48 355.135<0 170>
Fore
80 0 m 1
 48 0 l 1
 55.126 10 61.3135 25 65.5654 45 c 2
 162.278 500 l 1
 192.278 500 l 1
 139.776 253 l 1
 166.979 301 233.332 345 285.332 345 c 0
 372.332 345 423.327 265 403.135 170 c 0
 382.941 75 297.938 -5 210.938 -5 c 0
 158.938 -5 111.928 42 104.492 87 c 1
 95.5654 45 l 2
 91.9512 28 86.7637 13 80 0 c 1
122.135 170 m 0
 104.918 89 149.313 25 217.313 25 c 0
 285.313 25 356.918 89 374.135 170 c 0
 391.352 251 346.955 315 278.955 315 c 0
 210.955 315 139.352 251 122.135 170 c 0
EndSplineSet
EndChar
StartChar: c
Encoding: 67 99 67
Width: 369
Flags: W
HStem: -4 31<113.339 258.939> 315 31<174.555 320.155>
VStem: 77.3477 306.554<171 263>
Fore
321.98 94 m 1
 344.792 79 l 1
 307.377 30 251.149 -4 195.149 -4 c 0
 108.149 -4 57.1543 76 77.3477 171 c 0
 97.54 266 182.545 346 269.545 346 c 0
 325.545 346 367.317 312 383.902 263 c 1
 354.714 248 l 1
 340.429 289 306.955 315 262.955 315 c 0
 194.955 315 123.776 253 106.56 172 c 0
 89.3428 91 133.739 27 201.739 27 c 0
 245.739 27 290.266 53 321.98 94 c 1
EndSplineSet
EndChar
StartChar: d
Encoding: 68 100 68
Width: 408
Flags: W
HStem: -5 30<112.913 262.538> 315 30<174.555 336.932> 480 20G<428.278 458.278>
VStem: 77.1348 381.143<170 500>
Fore
360 0 m 1
 328 0 l 1
 326.764 13 327.951 28 331.565 45 c 2
 340.492 87 l 1
 313.928 42 246.938 -5 194.938 -5 c 0
 107.938 -5 56.9414 75 77.1348 170 c 0
 97.3271 265 182.332 345 269.332 345 c 0
 321.332 345 368.979 301 375.776 253 c 1
 428.278 500 l 1
 458.278 500 l 1
 361.565 45 l 2
 357.313 25 357.126 10 360 0 c 1
358.135 170 m 0
 375.352 251 330.955 315 262.955 315 c 0
 194.955 315 123.352 251 106.135 170 c 0
 88.918 89 133.313 25 201.313 25 c 0
 269.313 25 340.918 89 358.135 170 c 0
EndSplineSet
EndChar
StartChar: e
Encoding: 69 101 69
Width: 395
Flags: W
HStem: -5 31<113.126 258.726> 170 29<116.299 363.299> 315 30<187.255 341.955>
VStem: 77.1348 315.188<170 188.349 170 185>
Fore
116.299 199 m 1
 363.299 199 l 1
 365.54 266 323.955 315 263.955 315 c 0
 204.955 315 142.54 266 116.299 199 c 1
390.135 170 m 1
 106.135 170 l 1
 88.918 89 133.526 26 201.526 26 c 0
 245.526 26 300.053 52 331.768 93 c 1
 354.579 78 l 1
 317.164 29 250.938 -5 194.938 -5 c 0
 107.938 -5 56.9414 75 77.1348 170 c 0
 97.3271 265 183.332 345 270.332 345 c 0
 353.332 345 404.028 273 392.323 185 c 2
 390.135 170 l 1
EndSplineSet
EndChar
StartChar: f
Encoding: 70 102 70
Width: 179
Flags: W
HStem: 0 21G<55 85> 310 30<98.2695 120.893 157.27 234.893> 485 20<215.79 286.341>
VStem: 55 231.341<0 505>
Fore
55 0 m 1
 120.893 310 l 1
 91.8926 310 l 1
 98.2695 340 l 1
 127.27 340 l 1
 133.646 370 l 2
 149.375 444 217.341 505 286.341 505 c 1
 282.09 485 l 1
 231.09 485 176.187 429 163.646 370 c 2
 157.27 340 l 1
 251.27 340 l 1
 234.893 310 l 1
 150.893 310 l 1
 85 0 l 1
 55 0 l 1
EndSplineSet
EndChar
StartChar: g
Encoding: 71 103 71
Width: 408
Flags: W
HStem: -175 30<124.88 253.58> -5 30<110.913 262.538> 315 30<172.555 336.932>
VStem: 64.1553 368.115<-131 340>
Fore
400.27 340 m 1
 432.27 340 l 1
 425.144 330 418.955 315 414.704 295 c 2
 352 0 l 2
 331.807 -95 244.803 -175 157.803 -175 c 0
 117.803 -175 85.416 -158 64.1553 -131 c 1
 90.6191 -110 l 1
 107.942 -132 134.18 -145 165.18 -145 c 0
 233.18 -145 304.783 -81 322 0 c 2
 340.492 87 l 1
 313.29 39 246.938 -5 194.938 -5 c 0
 107.938 -5 56.9414 75 77.1348 170 c 0
 97.3271 265 182.332 345 269.332 345 c 0
 321.332 345 368.342 298 375.776 253 c 1
 384.704 295 l 2
 388.317 312 393.506 327 400.27 340 c 1
356.135 170 m 0
 373.352 251 328.955 315 260.955 315 c 0
 192.955 315 121.352 251 104.135 170 c 0
 86.918 89 131.313 25 199.313 25 c 0
 267.313 25 338.918 89 356.135 170 c 0
EndSplineSet
EndChar
StartChar: h
Encoding: 72 104 72
Width: 360
Flags: W
HStem: 0 21G<56 86 274 304> 315 30<219.732 343.655> 480 20G<162.278 192.278>
VStem: 56 292.637<0 210>
Fore
56 0 m 1
 162.278 500 l 1
 192.278 500 l 1
 137.651 243 l 1
 171.917 296 232.332 345 274.332 345 c 0
 345.332 345 363.941 282 348.637 210 c 2
 304 0 l 1
 274 0 l 1
 318.637 210 l 2
 327.989 254 325.955 315 266.955 315 c 0
 211.955 315 132.975 221 122.135 170 c 2
 86 0 l 1
 56 0 l 1
EndSplineSet
EndChar
StartChar: i
Encoding: 73 105 73
Width: 142
Flags: W
HStem: 0 21G<56 86> 320 20G<128.27 158.27> 393 54<146.513 174.035>
VStem: 56 131.273<0 420>
Fore
133.273 420 m 0
 136.462 435 151.013 447 166.013 447 c 0
 181.013 447 190.462 435 187.273 420 c 0
 184.085 405 169.535 393 154.535 393 c 0
 139.535 393 130.085 405 133.273 420 c 0
86 0 m 1
 56 0 l 1
 128.27 340 l 1
 158.27 340 l 1
 86 0 l 1
EndSplineSet
EndChar
StartChar: j
Encoding: 74 106 74
Width: 140
Flags: W
HStem: -104 25<-32.1055 20.008> 320 20G<128.27 158.27> 393 54<145.513 173.035>
VStem: -32.1055 218.378<-104 420>
Fore
128.27 340 m 1
 158.27 340 l 1
 86.2129 1 l 2
 74.0967 -56 21.8945 -104 -32.1055 -104 c 1
 -26.792 -79 l 1
 9.20801 -79 47.0723 -42 56.2129 1 c 2
 128.27 340 l 1
132.273 420 m 0
 135.462 435 150.013 447 165.013 447 c 0
 180.013 447 189.462 435 186.273 420 c 0
 183.085 405 168.535 393 153.535 393 c 0
 138.535 393 129.085 405 132.273 420 c 0
EndSplineSet
EndChar
StartChar: k
Encoding: 75 107 75
Width: 319
Flags: W
HStem: 0 21G<56 86 280 319> 320 20G<309.27 354.27> 480 20G<162.278 192.278>
VStem: 56 298.27<0 340>
Fore
86 0 m 1
 56 0 l 1
 162.278 500 l 1
 192.278 500 l 1
 129.149 203 l 1
 309.27 340 l 1
 354.27 340 l 1
 183.637 210 l 1
 319 0 l 1
 280 0 l 1
 157.386 190 l 1
 120.646 163 l 1
 86 0 l 1
EndSplineSet
EndChar
StartChar: l
Encoding: 76 108 76
Width: 142
Flags: W
HStem: 0 21G<56 86> 480 20G<162.278 192.278>
VStem: 56 136.278<0 500>
Fore
86 0 m 1
 56 0 l 1
 162.278 500 l 1
 192.278 500 l 1
 86 0 l 1
EndSplineSet
EndChar
StartChar: m
Encoding: 77 109 77
Width: 535
Flags: W
HStem: 0 21G<56 86 252 282 449 479> 315 30<215.232 321.555 408.719 518.343>
VStem: 56 467.425<0 209>
Fore
120.27 340 m 1
 152.27 340 l 1
 153.506 327 152.317 312 148.704 295 c 2
 138.289 246 l 1
 170.129 297 226.332 345 263.332 345 c 0
 318.332 345 339.979 301 336.289 246 c 1
 368.342 298 420.119 344 458.119 344 c 0
 524.119 344 538.304 279 523.425 209 c 2
 479 0 l 1
 449 0 l 1
 493.425 209 l 2
 502.776 253 502.743 314 450.743 314 c 0
 403.743 314 329.188 222 317.922 169 c 2
 282 0 l 1
 252 0 l 1
 296.637 210 l 2
 305.989 254 305.955 315 253.955 315 c 0
 209.955 315 134.25 227 122.135 170 c 2
 86 0 l 1
 56 0 l 1
 118.704 295 l 2
 122.955 315 123.144 330 120.27 340 c 1
EndSplineSet
EndChar
StartChar: n
Encoding: 78 110 78
Width: 360
Flags: W
HStem: 0 21G<56 86 274 304> 315 30<219.732 343.655>
VStem: 56 292.637<0 210>
Fore
120.27 340 m 1
 152.27 340 l 1
 153.506 327 152.317 312 148.704 295 c 2
 137.864 244 l 1
 173.342 298 232.332 345 274.332 345 c 0
 345.332 345 363.941 282 348.637 210 c 2
 304 0 l 1
 274 0 l 1
 318.637 210 l 2
 327.989 254 325.955 315 266.955 315 c 0
 211.955 315 132.975 221 122.135 170 c 2
 86 0 l 1
 56 0 l 1
 118.704 295 l 2
 122.955 315 123.144 330 120.27 340 c 1
EndSplineSet
EndChar
StartChar: o
Encoding: 79 111 79
Width: 430
Flags: W
HStem: -5 30<117.313 325.313> 315 30<178.955 386.955>
VStem: 77.1348 348<151.652 188.348 170 170>
Fore
288.332 345 m 0
 384.332 345 445.753 267 425.135 170 c 0
 404.517 73 309.938 -5 213.938 -5 c 0
 117.938 -5 56.5166 73 77.1348 170 c 0
 97.7529 267 192.332 345 288.332 345 c 0
107.135 170 m 0
 90.1299 90 141.313 25 221.313 25 c 0
 301.313 25 380.13 90 397.135 170 c 0
 414.139 250 362.955 315 282.955 315 c 0
 202.955 315 124.139 250 107.135 170 c 0
EndSplineSet
EndChar
StartChar: p
Encoding: 80 112 80
Width: 408
Flags: W
HStem: -150 21G<24.1162 54.1162> -5 30<143.338 305.713> 315 30<217.732 367.355>
VStem: 24.1162 379.019<-150 170>
Fore
120.27 340 m 1
 152.27 340 l 1
 153.506 327 152.317 312 148.704 295 c 2
 139.776 253 l 1
 166.342 298 233.332 345 285.332 345 c 0
 372.332 345 423.327 265 403.135 170 c 0
 382.941 75 297.938 -5 210.938 -5 c 0
 158.938 -5 111.29 39 104.492 87 c 1
 54.1162 -150 l 1
 24.1162 -150 l 1
 118.704 295 l 2
 122.955 315 123.144 330 120.27 340 c 1
122.135 170 m 0
 104.918 89 149.313 25 217.313 25 c 0
 285.313 25 356.918 89 374.135 170 c 0
 391.352 251 346.955 315 278.955 315 c 0
 210.955 315 139.352 251 122.135 170 c 0
EndSplineSet
EndChar
StartChar: q
Encoding: 81 113 81
Width: 408
Flags: W
HStem: -150 21G<290.116 320.116> -5 30<112.913 262.538> 315 30<174.555 336.932>
VStem: 77.1348 355.135<170 340>
Fore
400.27 340 m 1
 432.27 340 l 1
 425.144 330 418.955 315 414.704 295 c 2
 320.116 -150 l 1
 290.116 -150 l 1
 340.492 87 l 1
 313.29 39 246.938 -5 194.938 -5 c 0
 107.938 -5 56.9414 75 77.1348 170 c 0
 97.3271 265 182.332 345 269.332 345 c 0
 321.332 345 368.342 298 375.776 253 c 1
 384.704 295 l 2
 388.317 312 393.506 327 400.27 340 c 1
358.135 170 m 0
 375.352 251 330.955 315 262.955 315 c 0
 194.955 315 123.352 251 106.135 170 c 0
 88.918 89 133.313 25 201.313 25 c 0
 269.313 25 340.918 89 358.135 170 c 0
EndSplineSet
EndChar
StartChar: r
Encoding: 82 114 82
Width: 218
Flags: W
HStem: 0 21G<56 86> 320 20G<120.27 152.27>
VStem: 56 224.23<0 321>
Fore
120.27 340 m 1
 152.27 340 l 1
 153.506 327 152.317 312 148.704 295 c 2
 139.776 253 l 1
 158.216 288 212.356 331 252.332 345 c 1
 280.23 321 l 1
 220.23 321 139.139 250 123.197 175 c 2
 86 0 l 1
 56 0 l 1
 118.704 295 l 2
 122.955 315 123.144 330 120.27 340 c 1
EndSplineSet
EndChar
StartChar: s
Encoding: 83 115 83
Width: 300
Flags: W
HStem: -5.8457 29.8301<107.916 206.009> 316.331 29.379<181.537 248.264>
VStem: 61.6182 30.8496<32.8803 103.477> 267.391 30.125<270 311.675>
Fore
297.516 280 m 1
 267.391 270 l 1
 263.393 301.808 241.061 316.331 217.05 316.331 c 0
 189.732 316.331 160.242 297.53 153.115 264 c 0
 137.811 192 304.062 212 280.043 99 c 0
 266.107 33.4385 202.407 -5.8457 147.28 -5.8457 c 0
 98.1436 -5.8457 55.8174 25.3662 61.6182 97 c 1
 92.4678 101 l 1
 88.0234 46.877 118.57 23.9844 154.082 23.9844 c 0
 194.026 23.9844 240.254 52.9453 250.043 99 c 0
 268.961 188 100.859 164 122.115 264 c 0
 133.225 316.268 180.39 345.71 223.148 345.71 c 0
 258.924 345.71 291.614 325.099 297.516 280 c 1
EndSplineSet
EndChar
StartChar: t
Encoding: 84 116 84
Width: 186
Flags: W
HStem: 0 21G<56 86> 310 30<98.2695 121.893 158.27 235.893>
VStem: 56 196.27<0 340>
Fore
86 0 m 1
 56 0 l 1
 121.893 310 l 1
 91.8926 310 l 1
 98.2695 340 l 1
 128.27 340 l 1
 145.273 420 l 1
 175.273 420 l 1
 158.27 340 l 1
 252.27 340 l 1
 235.893 310 l 1
 151.893 310 l 1
 86 0 l 1
EndSplineSet
EndChar
StartChar: u
Encoding: 85 117 85
Width: 358
Flags: W
HStem: -5 30<117.013 249.613> 320 20G<128.27 158.27 344.27 374.27>
VStem: 83.6328 290.637<130 340>
Fore
128.27 340 m 1
 158.27 340 l 1
 113.633 130 l 2
 101.092 71 132.313 25 183.313 25 c 0
 234.313 25 287.092 71 299.633 130 c 2
 344.27 340 l 1
 374.27 340 l 1
 329.633 130 l 2
 313.903 56 246.938 -5 177.938 -5 c 0
 108.938 -5 67.9033 56 83.6328 130 c 2
 128.27 340 l 1
EndSplineSet
EndChar
StartChar: v
Encoding: 86 118 86
Width: 318
Flags: W
HStem: -10 350<84.2695 157.874>
VStem: 84.2695 294<340 340>
Fore
84.2695 340 m 1
 116.27 340 l 1
 173.454 68 l 1
 345.27 340 l 1
 378.27 340 l 1
 157.874 -10 l 1
 84.2695 340 l 1
EndSplineSet
EndChar
StartChar: w
Encoding: 87 119 87
Width: 537
Flags: W
HStem: -10 360<344.395 381.874>
Fore
84.2695 340 m 1
 117.27 340 l 1
 170.879 70 l 1
 344.395 350 l 1
 398.879 70 l 1
 565.27 340 l 1
 597.27 340 l 1
 381.874 -10 l 1
 326.391 270 l 1
 152.874 -10 l 1
 84.2695 340 l 1
EndSplineSet
EndChar
StartChar: x
Encoding: 88 120 88
Width: 304
Flags: W
HStem: 0 21G<12 47 257 292> 320 20G<98.2695 131.27 315.27 350.27>
VStem: 12 338.27<0 340>
Fore
98.2695 340 m 1
 131.27 340 l 1
 194.787 206 l 1
 315.27 340 l 1
 350.27 340 l 1
 207.26 180 l 1
 292 0 l 1
 257 0 l 1
 184.733 154 l 1
 47 0 l 1
 12 0 l 1
 173.26 180 l 1
 98.2695 340 l 1
EndSplineSet
EndChar
StartChar: y
Encoding: 89 121 89
Width: 318
Flags: W
HStem: 320 20G<84.2695 115.27 346.27 378.27>
VStem: 41.8027 336.467<-175 340>
Fore
84.2695 340 m 1
 115.27 340 l 1
 168.502 40 l 1
 346.27 340 l 1
 378.27 340 l 1
 73.8027 -175 l 1
 41.8027 -175 l 1
 144.787 -1 l 1
 84.2695 340 l 1
EndSplineSet
EndChar
StartChar: z
Encoding: 90 122 90
Width: 298
Flags: W
HStem: 0 30<75.377 275> 310 30<125.27 295.893>
VStem: 12 346.27<0 340>
Fore
125.27 340 m 1
 358.27 340 l 1
 75.377 30 l 1
 291.377 30 l 1
 275 0 l 1
 12 0 l 1
 295.893 310 l 1
 108.893 310 l 1
 125.27 340 l 1
EndSplineSet
EndChar
StartChar: braceleft
Encoding: 91 123 91
Width: 192
Flags: W
HStem: -104 20<108.646 154.146> 505 20<239.392 283.592>
VStem: 84.0859 199.506<198 525>
Fore
203.148 410 m 2
 182.105 311 l 2
 170.84 258 152.525 233 121.85 211 c 1
 140.023 193 151.922 169 139.594 111 c 2
 118.338 11 l 2
 105.585 -49 119.146 -84 154.146 -84 c 1
 149.895 -104 l 1
 115.895 -104 67.5078 -87 88.3379 11 c 2
 109.594 111 l 2
 120.435 162 109.835 178 84.0859 198 c 1
 89.4004 223 l 1
 123.651 243 141.052 259 151.893 310 c 2
 173.148 410 l 2
 193.979 508 249.592 525 283.592 525 c 1
 279.341 505 l 1
 244.341 505 215.901 470 203.148 410 c 2
EndSplineSet
EndChar
StartChar: bar
Encoding: 92 124 92
Width: 142
Flags: W
VStem: 45.3721 157.534<-50 550>
Fore
75.3721 -50 m 1
 45.3721 -50 l 1
 172.906 550 l 1
 202.906 550 l 1
 75.3721 -50 l 1
EndSplineSet
EndChar
StartChar: braceright
Encoding: 93 125 93
Width: 193
Flags: W
HStem: -105 20<-2.31836 41.8816> 505 19<127.341 172.841>
VStem: -2.31836 200.506<-105 222>
Fore
127.341 505 m 1
 131.38 524 l 1
 165.38 524 214.767 507 193.936 409 c 2
 172.68 309 l 2
 161.84 258 172.438 242 198.188 222 c 1
 192.874 197 l 1
 158.622 177 141.222 161 130.381 110 c 2
 109.126 10 l 2
 88.2949 -88 31.6816 -105 -2.31836 -105 c 1
 1.93262 -85 l 1
 36.9326 -85 66.3721 -50 79.126 10 c 2
 100.381 110 l 2
 112.71 168 134.811 192 160.637 210 c 1
 139.313 232 130.627 257 141.893 310 c 2
 163.148 410 l 2
 175.901 470 162.341 505 127.341 505 c 1
EndSplineSet
EndChar
StartChar: asciitilde
Encoding: 94 126 94
Width: 355
Flags: W
HStem: 127 31<229.084 311.246> 172 31<115.864 200.36>
VStem: 68.6328 287.879<130 200>
Fore
336.512 200 m 1
 356.512 200 l 1
 345.246 147 313.995 127 280.995 127 c 0
 229.995 127 186.56 172 140.56 172 c 0
 123.56 172 96.2842 166 88.6328 130 c 1
 68.6328 130 l 1
 80.3232 185 115.149 203 147.149 203 c 0
 204.149 203 242.584 158 287.584 158 c 0
 302.584 158 328.646 163 336.512 200 c 1
EndSplineSet
EndChar
StartChar: exclamdown
Encoding: 96 161 95
Width: 192
Flags: W
HStem: 325 20G<161.832 176.832>
VStem: 41.9912 149.39<-160 317>
Fore
139.139 250 m 1
 159.139 250 l 1
 81.9912 -160 l 1
 41.9912 -160 l 1
 139.139 250 l 1
135.381 317 m 0
 138.568 332 154.332 345 169.332 345 c 0
 184.332 345 194.568 332 191.381 317 c 0
 188.192 302 172.429 289 157.429 289 c 0
 142.429 289 132.192 302 135.381 317 c 0
EndSplineSet
EndChar
StartChar: cent
Encoding: 97 162 96
Width: 371
Flags: W
VStem: 77.1348 308.767<170 263>
Fore
271.273 420 m 1
 301.273 420 l 1
 285.332 345 l 1
 334.27 340 370.468 308 385.902 263 c 1
 356.714 248 l 1
 344.366 284 316.68 309 279.743 314 c 1
 218.526 26 l 1
 257.589 31 295.903 56 323.556 92 c 1
 346.367 77 l 1
 312.015 33 262.213 1 211.149 -4 c 1
 194.995 -80 l 1
 164.995 -80 l 1
 181.149 -4 l 1
 102.851 4 58.0049 80 77.1348 170 c 0
 96.2646 260 173.419 336 255.119 344 c 1
 271.273 420 l 1
187.739 27 m 1
 248.955 315 l 1
 186.255 307 123.502 247 107.348 171 c 0
 91.1934 95 128.439 35 187.739 27 c 1
EndSplineSet
EndChar
StartChar: sterling
Encoding: 98 163 97
Width: 347
Flags: W
HStem: 0 30<84.377 313> 235 30<93.9023 167.525 200.327 291.951> 477 29<259.09 364.39>
VStem: 167.525 29.4277<268.466 442.961> 383.811 20.849<399 468.12>
Fore
291.951 235 m 1
 196.951 235 l 1
 195.825 225 193.699 215 191.574 205 c 0
 177.758 140 149.792 79 84.377 30 c 1
 329.377 30 l 1
 313 0 l 1
 32 0 l 1
 29.9512 28 l 1
 116.304 72 147.482 134 162.149 203 c 0
 164.274 213 166.4 223 167.525 233 c 1
 77.5254 233 l 1
 93.9023 263 l 1
 170.902 263 l 1
 176.317 312 177.308 359 186.447 402 c 0
 200.264 467 263.554 506 318.554 506 c 0
 367.554 506 409.752 474 404.66 403 c 1
 383.811 399 l 1
 388.075 452 352.39 477 312.39 477 c 0
 271.39 477 225.65 450 215.66 403 c 0
 207.37 364 205.955 315 200.327 265 c 1
 308.327 265 l 1
 291.951 235 l 1
EndSplineSet
EndChar
StartChar: fraction
Encoding: 312 8260 98
Width: 395
Flags: W
HStem: 0 21G<1 38> 480 20G<462.278 499.278>
VStem: 1 498.278<0 500>
Fore
462.278 500 m 1
 499.278 500 l 1
 38 0 l 1
 1 0 l 1
 462.278 500 l 1
EndSplineSet
EndChar
StartChar: yen
Encoding: 100 165 99
Width: 412
Flags: W
HStem: 0 21G<191 221> 134 32<105.284 219.482 256.284 367.482> 216 32<123.714 223.714 293.714 387.912> 480 20G<118.278 153.278 471.278 506.278>
VStem: 98.4824 407.796<134 500>
Fore
374.284 166 m 1
 367.482 134 l 1
 249.482 134 l 1
 221 0 l 1
 191 0 l 1
 219.482 134 l 1
 98.4824 134 l 1
 105.284 166 l 1
 226.284 166 l 1
 236.912 216 l 1
 116.912 216 l 1
 123.714 248 l 1
 223.714 248 l 1
 118.278 500 l 1
 153.278 500 l 1
 258.714 248 l 1
 471.278 500 l 1
 506.278 500 l 1
 293.714 248 l 1
 394.714 248 l 1
 387.912 216 l 1
 266.912 216 l 1
 256.284 166 l 1
 374.284 166 l 1
EndSplineSet
EndChar
StartChar: florin
Encoding: 200 402 100
Width: 272
Flags: W
HStem: -55 20<-36.6904 37.7605> 263 30<136.279 182.902 226.279 341.902> 485 20<327.89 402.341>
VStem: -36.6904 439.031<-55 505>
Fore
359.279 293 m 1
 341.902 263 l 1
 213.902 263 l 1
 124.99 47 l 2
 96.4736 -26 30.3096 -55 -36.6904 -55 c 1
 -32.4395 -35 l 1
 21.5605 -35 74.1494 -4 96.2656 53 c 2
 182.902 263 l 1
 119.902 263 l 1
 136.279 293 l 1
 195.279 293 l 1
 240.66 403 l 2
 270.177 476 335.341 505 402.341 505 c 1
 398.09 485 l 1
 344.09 485 291.501 454 269.385 397 c 2
 226.279 293 l 1
 359.279 293 l 1
EndSplineSet
EndChar
StartChar: section
Encoding: 102 167 101
Width: 301
Flags: W
HStem: -45 30<99.012 199.112> 475 30<199.665 299.765>
VStem: 53.3281 30<-10.234 60.2039> 314.66 31<403 469.488>
Fore
53.3281 58 m 1
 83.3281 58 l 1
 78.8506 4 109.812 -15 145.812 -15 c 0
 186.812 -15 231.764 13 241.541 59 c 0
 261.733 154 67.3574 124 93.2891 246 c 0
 101.791 286 127.105 311 149.293 326 c 1
 129.694 342 118.583 365 126.235 401 c 0
 139.626 464 201.341 505 258.341 505 c 0
 307.341 505 350.965 475 345.66 403 c 1
 314.66 403 l 1
 318.501 454 288.965 475 252.965 475 c 0
 211.965 475 167.013 447 157.235 401 c 0
 137.042 306 331.632 337 305.699 215 c 0
 298.473 181 276.521 153 249.695 135 c 1
 269.294 119 280.405 96 272.753 60 c 0
 259.362 -3 197.435 -45 140.435 -45 c 0
 91.4346 -45 48.0244 -14 53.3281 58 c 1
275.699 215 m 0
 287.391 270 222.366 284 173.68 309 c 1
 155.767 300 130.729 281 123.502 247 c 0
 111.386 190 175.835 178 224.309 152 c 1
 242.222 161 268.26 180 275.699 215 c 0
EndSplineSet
EndChar
StartChar: currency
Encoding: 99 164 102
Width: 437
Flags: W
HStem: 111 31<198.094 287.794> 370 30<258.822 348.522>
VStem: 70.5312 401.28<106 399>
Fore
471.811 399 m 1
 407.332 345 l 1
 421.019 320 425.429 289 418.414 256 c 0
 411.188 222 392.386 190 367.072 165 c 1
 411.743 107 l 1
 386.28 86 l 1
 341.396 143 l 1
 312.145 123 277.594 111 243.594 111 c 0
 208.594 111 179.145 123 158.396 143 c 1
 87.0674 85 l 1
 70.5312 106 l 1
 141.859 164 l 1
 127.173 189 121.975 221 129.202 255 c 0
 136.642 290 155.443 322 180.757 347 c 1
 139.811 399 l 1
 165.273 420 l 1
 206.221 368 l 1
 235.472 388 269.022 400 303.022 400 c 0
 338.022 400 367.26 387 387.796 366 c 1
 455.273 420 l 1
 471.811 399 l 1
159.414 256 m 0
 146.023 193 186.183 142 249.183 142 c 0
 312.183 142 374.023 193 387.414 256 c 0
 400.806 319 360.646 370 297.646 370 c 0
 234.646 370 172.806 319 159.414 256 c 0
EndSplineSet
EndChar
StartChar: quotesingle
Encoding: 7 39 103
Width: 152
Flags: W
Fore
168.897 390 m 1
 148.897 390 l 1
 166.529 520 l 1
 206.529 520 l 1
 168.897 390 l 1
EndSplineSet
EndChar
StartChar: quotedblleft
Encoding: 302 8220 104
Width: 248
Flags: W
HStem: 363 68<165.345 185.082 255.342 275.092> 487 20G<201.166 226.776 291.166 316.776>
VStem: 129.059 187.717<410 507>
Fore
161.058 363 m 1
 161.068 363 l 1
 141.918 363 122.182 377.65 129.059 410 c 0
 137.21 448.35 166.763 484.12 201.166 507 c 1
 226.776 507 l 1
 198.249 487.49 172.43 453.43 167.574 430.21 c 1
 170.071 430.76 172.672 431 175.512 431 c 0
 193.992 431 206.213 415.48 202.285 397 c 0
 198.356 378.52 179.538 363 161.058 363 c 1
251.068 363 m 1
 231.918 363 212.182 377.65 219.059 410 c 0
 227.21 448.35 256.763 484.12 291.166 507 c 1
 316.776 507 l 1
 288.249 487.49 262.43 453.43 257.574 430.21 c 1
 260.071 430.76 262.672 431 265.521 431 c 0
 284.002 431 296.223 415.48 292.295 397 c 0
 288.367 378.52 269.548 363 251.068 363 c 1
EndSplineSet
EndChar
StartChar: guillemotleft
Encoding: 106 171 105
Width: 294
Flags: W
HStem: 50 240<284.628 298.642>
VStem: 77.1348 258.507<170 290>
Fore
298.642 290 m 1
 335.642 290 l 1
 224.135 170 l 1
 284.628 50 l 1
 247.628 50 l 1
 187.135 170 l 1
 298.642 290 l 1
188.642 290 m 1
 225.642 290 l 1
 114.135 170 l 1
 174.628 50 l 1
 137.628 50 l 1
 77.1348 170 l 1
 188.642 290 l 1
EndSplineSet
EndChar
StartChar: guilsinglleft
Encoding: 310 8249 106
Width: 159
Flags: W
HStem: 50 240<145.628 159.642>
VStem: 48.1348 148.507<170 290>
Fore
159.642 290 m 1
 196.642 290 l 1
 85.1348 170 l 1
 145.628 50 l 1
 108.628 50 l 1
 48.1348 170 l 1
 159.642 290 l 1
EndSplineSet
EndChar
StartChar: guilsinglright
Encoding: 311 8250 107
Width: 159
Flags: W
HStem: 50 240<71.6279 85.6416>
VStem: 34.6279 148.507<50 170>
Fore
85.6416 290 m 1
 122.642 290 l 1
 183.135 170 l 1
 71.6279 50 l 1
 34.6279 50 l 1
 146.135 170 l 1
 85.6416 290 l 1
EndSplineSet
EndChar
StartChar: endash
Encoding: 297 8211 108
Width: 178
Flags: W
HStem: 149 42<40.5986 209.671>
VStem: 31.6709 186.928<149 191>
Fore
218.599 191 m 1
 209.671 149 l 1
 31.6709 149 l 1
 40.5986 191 l 1
 218.599 191 l 1
EndSplineSet
EndChar
StartChar: dagger
Encoding: 305 8224 109
Width: 392
Flags: W
HStem: 315 30<121.332 198.393 333.895 410.955> 320 20<176.107 254.019 278.27 356.181> 480 20G<287.278 317.278>
VStem: 114.955 302.377<315 345>
Fore
190.595 -96 m 1x70
 160.595 -96 l 1
 254.019 320 l 1x70
 114.955 315 l 1
 121.332 345 l 1xb0
 258.27 340 l 1
 287.278 500 l 1
 317.278 500 l 1
 278.27 340 l 1x70
 417.332 345 l 1
 410.955 315 l 1xb0
 274.019 320 l 1
 190.595 -96 l 1x70
EndSplineSet
EndChar
StartChar: daggerdbl
Encoding: 306 8225 110
Width: 392
Flags: W
HStem: 88 30<73.082 150.143 285.644 362.705> 93 20<127.857 205.768 230.019 307.93> 287 30<115.381 192.441 327.943 405.004> 292 20<170.155 248.066 272.317 350.229> 480 20G<287.278 317.278>
VStem: 66.7051 344.676<88 317>
Fore
190.595 -96 m 1x4c
 160.595 -96 l 1
 205.768 93 l 1x4c
 66.7051 88 l 1
 73.082 118 l 1x8c
 210.019 113 l 1
 248.066 292 l 1x5c
 109.004 287 l 1
 115.381 317 l 1x2c
 252.317 312 l 1
 287.278 500 l 1
 317.278 500 l 1
 272.317 312 l 1x1c
 411.381 317 l 1
 405.004 287 l 1x2c
 268.066 292 l 1
 230.019 113 l 1x5c
 369.082 118 l 1
 362.705 88 l 1x8c
 225.768 93 l 1
 190.595 -96 l 1x4c
EndSplineSet
EndChar
StartChar: periodcentered
Encoding: 118 183 111
Width: 168
Flags: W
VStem: 109.139 56<231.65 268.35 250 250>
Fore
109.139 250 m 0
 112.327 265 128.091 278 143.091 278 c 0
 158.091 278 168.327 265 165.139 250 c 0
 161.951 235 146.188 222 131.188 222 c 0
 116.188 222 105.951 235 109.139 250 c 0
EndSplineSet
EndChar
StartChar: paragraph
Encoding: 117 182 112
Width: 423
Flags: W
HStem: 470 30<386.901 436.901>
VStem: 110.081 363.197<325 500>
Fore
269.357 -83 m 1
 239.357 -83 l 1
 288.884 150 l 1
 281.884 150 l 2
 143.884 150 91.376 237 110.081 325 c 0
 128.786 413 218.278 500 356.278 500 c 2
 473.278 500 l 1
 349.357 -83 l 1
 319.357 -83 l 1
 436.901 470 l 1
 386.901 470 l 1
 269.357 -83 l 1
EndSplineSet
EndChar
StartChar: bullet
Encoding: 307 8226 113
Width: 332
Flags: W
VStem: 90.5117 236<181.654 218.349 200 200>
Fore
90.5117 200 m 0
 104.54 266 169.019 320 234.019 320 c 0
 299.019 320 340.54 266 326.512 200 c 0
 312.482 134 248.005 80 183.005 80 c 0
 118.005 80 76.4824 134 90.5117 200 c 0
EndSplineSet
EndChar
StartChar: quotesinglbase
Encoding: 301 8218 114
Width: 176
Flags: W
VStem: 43.3975 97.7305<-87 10.0098>
Fore
109.116 57 m 1
 109.118 57.0098 l 1
 128.268 57.0098 148.004 42.3604 141.128 10.0098 c 0
 132.977 -28.3398 103.421 -64.1201 69.0078 -87 c 1
 43.3975 -87 l 1
 71.9248 -67.4902 97.7441 -33.4297 102.6 -10.21 c 1
 100.103 -10.7598 97.502 -11 94.6621 -11 c 0
 76.1816 -11 63.9609 4.51953 67.8887 23 c 0
 71.8164 41.4805 90.6357 57 109.116 57 c 1
EndSplineSet
EndChar
StartChar: quotedblbase
Encoding: 304 8222 115
Width: 248
Flags: W
HStem: -5 68<66.3689 85.8008 156.367 175.812>
VStem: 24.6748 187.728<-80.9902 16.0098>
Fore
180.391 63 m 1
 180.394 63.0098 l 1
 199.543 63.0098 219.279 48.3604 212.403 16.0098 c 0
 204.252 -22.3398 174.696 -58.1201 140.293 -81 c 1
 114.683 -81 l 1
 143.21 -61.4902 169.029 -27.4297 173.885 -4.20996 c 1
 171.389 -4.75977 168.787 -5 165.938 -5 c 0
 147.457 -5 135.236 10.5195 139.164 29 c 0
 143.092 47.4805 161.911 63 180.391 63 c 1
90.3936 63.0098 m 1
 90.3857 63.0205 l 1
 109.535 63.0205 129.271 48.3701 122.396 16.0205 c 0
 114.243 -22.3301 84.6885 -58.1104 50.2852 -80.9902 c 1
 24.6748 -80.9902 l 1
 53.2021 -61.4805 79.0215 -27.4199 83.877 -4.2002 c 1
 81.3799 -4.75 78.7793 -4.99023 75.9395 -4.99023 c 0
 57.459 -4.99023 45.2383 10.5303 49.166 29.0098 c 0
 53.0947 47.4902 71.9131 63.0098 90.3936 63.0098 c 1
EndSplineSet
EndChar
StartChar: quotedblright
Encoding: 303 8221 116
Width: 248
Flags: W
HStem: 437 68<160.317 179.749 250.317 269.762>
VStem: 118.623 187.728<361 458>
Fore
274.341 505 m 1
 293.491 505 313.228 490.35 306.351 458 c 0
 298.199 419.65 268.646 383.88 234.243 361 c 1
 208.633 361 l 1
 237.16 380.51 262.979 414.57 267.835 437.79 c 1
 265.338 437.24 262.737 437 259.888 437 c 0
 241.407 437 229.187 452.52 233.114 471 c 0
 237.042 489.48 255.861 505 274.341 505 c 1
184.341 505 m 1
 184.331 505 l 1
 203.481 505 223.217 490.35 216.341 458 c 0
 208.189 419.65 178.636 383.88 144.233 361 c 1
 118.623 361 l 1
 147.149 380.51 172.97 414.57 177.825 437.79 c 1
 175.328 437.24 172.728 437 169.888 437 c 0
 151.407 437 139.187 452.52 143.114 471 c 0
 147.042 489.48 165.861 505 184.341 505 c 1
EndSplineSet
EndChar
StartChar: guillemotright
Encoding: 122 187 117
Width: 294
Flags: W
HStem: 50 240<88.6279 102.642>
VStem: 51.6279 258.507<50 170>
Fore
102.642 290 m 1
 139.642 290 l 1
 200.135 170 l 1
 88.6279 50 l 1
 51.6279 50 l 1
 163.135 170 l 1
 102.642 290 l 1
212.642 290 m 1
 249.642 290 l 1
 310.135 170 l 1
 198.628 50 l 1
 161.628 50 l 1
 273.135 170 l 1
 212.642 290 l 1
EndSplineSet
EndChar
StartChar: ellipsis
Encoding: 308 8230 118
Width: 592
Flags: W
HStem: -5 56<87.3407 114.438 288.341 315.438 487.341 514.438>
VStem: 72.8887 456<4.65549 41.3478 23 23>
Fore
72.8887 23 m 0
 76.0771 38 91.8408 51 106.841 51 c 0
 121.841 51 132.077 38 128.889 23 c 0
 125.7 8 109.938 -5 94.9375 -5 c 0
 79.9375 -5 69.7002 8 72.8887 23 c 0
472.889 23 m 0
 476.077 38 491.841 51 506.841 51 c 0
 521.841 51 532.077 38 528.889 23 c 0
 525.7 8 509.938 -5 494.938 -5 c 0
 479.938 -5 469.7 8 472.889 23 c 0
273.889 23 m 0
 277.077 38 292.841 51 307.841 51 c 0
 322.841 51 333.077 38 329.889 23 c 0
 326.7 8 310.938 -5 295.938 -5 c 0
 280.938 -5 270.7 8 273.889 23 c 0
EndSplineSet
EndChar
StartChar: perthousand
Encoding: 309 8240 119
Width: 742
Flags: W
HStem: -6 31<325.913 424.713 575.702 674.502> 159 31<354.397 453.197 604.184 702.984> 307 31<144.444 243.244> 472 31<172.927 271.727>
Fore
410.386 190 m 0
 464.386 190 499.033 146 487.556 92 c 0
 476.077 38 422.725 -6 368.725 -6 c 0
 314.725 -6 280.077 38 291.556 92 c 0
 303.033 146 356.386 190 410.386 190 c 0
321.556 92 m 0
 313.69 55 337.313 25 375.313 25 c 0
 413.313 25 449.69 55 457.556 92 c 0
 465.42 129 441.797 159 403.797 159 c 0
 365.797 159 329.42 129 321.556 92 c 0
660.173 189 m 0
 714.173 189 748.82 145 737.343 91 c 0
 725.864 37 672.512 -7 618.512 -7 c 0
 564.512 -7 529.864 37 541.343 91 c 0
 552.82 145 606.173 189 660.173 189 c 0
571.343 91 m 0
 563.479 54 587.102 24 625.102 24 c 0
 663.102 24 699.479 54 707.343 91 c 0
 715.207 128 691.584 158 653.584 158 c 0
 615.584 158 579.207 128 571.343 91 c 0
228.916 503 m 0
 282.916 503 317.563 459 306.085 405 c 0
 294.607 351 241.255 307 187.255 307 c 0
 133.255 307 98.6074 351 110.085 405 c 0
 121.563 459 174.916 503 228.916 503 c 0
140.085 405 m 0
 132.221 368 155.844 338 193.844 338 c 0
 231.844 338 268.221 368 276.085 405 c 0
 283.95 442 260.327 472 222.327 472 c 0
 184.327 472 147.95 442 140.085 405 c 0
510.641 497 m 1
 547.641 497 l 1
 86.3623 -3 l 1
 49.3623 -3 l 1
 510.641 497 l 1
EndSplineSet
EndChar
StartChar: questiondown
Encoding: 126 191 120
Width: 348
Flags: W
HStem: -165 30<68.1046 221.505> 325 20G<249.832 264.832>
VStem: 32.71 266<-57.3481 -39 -39 -39>
Fore
279.381 317 m 0
 276.192 302 260.429 289 245.429 289 c 0
 230.429 289 220.192 302 223.381 317 c 0
 226.568 332 242.332 345 257.332 345 c 0
 272.332 345 282.568 332 279.381 317 c 0
218.376 237 m 1
 248.376 237 l 1
 237.748 187 l 2
 212.879 70 77.1641 29 62.71 -39 c 0
 50.5947 -96 84.3047 -135 138.305 -135 c 0
 202.305 -135 258.933 -85 268.71 -39 c 1
 298.71 -39 l 1
 284.682 -105 209.928 -165 131.928 -165 c 0
 59.9277 -165 17.1934 -112 32.71 -39 c 0
 51.2031 48 185.854 84 207.748 187 c 2
 218.376 237 l 1
EndSplineSet
EndChar
StartChar: grave
Encoding: 64 96 121
Width: 143
Flags: W
Fore
182.573 412 m 1
 159.573 412 l 1
 132.404 510 l 1
 170.404 510 l 1
 182.573 412 l 1
EndSplineSet
EndChar
StartChar: acute
Encoding: 115 180 122
Width: 212
Flags: W
HStem: 400 120<189.022 254.529>
VStem: 153.022 157.507<400 520>
Fore
254.529 520 m 1
 310.529 520 l 1
 189.022 400 l 1
 153.022 400 l 1
 254.529 520 l 1
EndSplineSet
EndChar
StartChar: circumflex
Encoding: 201 710 123
Width: 232
Flags: W
HStem: 490 89<228.07 312.152>
VStem: 128.152 184<490 490>
Fore
228.07 579 m 1
 250.07 579 l 1
 312.152 490 l 1
 271.152 490 l 1
 231.844 545 l 1
 169.152 490 l 1
 128.152 490 l 1
 228.07 579 l 1
EndSplineSet
EndChar
StartChar: tilde
Encoding: 206 732 124
Width: 218
Flags: W
HStem: 437 31<238.703 262.938> 474 29<156.595 183.571>
VStem: 118.162 181.903<443 499>
Fore
281.065 499 m 1
 300.065 499 l 1
 297.728 488 294.177 476 290.477 468 c 0
 275.888 437 254.888 437 246.888 437 c 0
 227.888 437 209.65 450 200.351 458 c 0
 186.689 469 175.752 474 167.752 474 c 0
 159.752 474 144.689 469 138.162 443 c 1
 118.162 443 l 1
 120.075 452 121.776 460 127.114 471 c 0
 139.216 495 157.916 503 173.916 503 c 0
 194.916 503 213.94 489 221.665 483 c 0
 235.539 473 246.477 468 253.477 468 c 0
 260.477 468 275.965 475 281.065 499 c 1
EndSplineSet
EndChar
StartChar: macron
Encoding: 110 175 125
Width: 288
Flags: W
HStem: 405 30<133.462 333.085>
VStem: 127.085 212.377<405 435>
Fore
339.462 435 m 1
 333.085 405 l 1
 127.085 405 l 1
 133.462 435 l 1
 339.462 435 l 1
EndSplineSet
EndChar
StartChar: dotaccent
Encoding: 203 729 126
Width: 192
Flags: W
VStem: 162.162 56<424.644 461.344 443 443>
Fore
162.162 443 m 0
 165.351 458 181.114 471 196.114 471 c 0
 211.114 471 221.351 458 218.162 443 c 0
 214.975 428 199.211 415 184.211 415 c 0
 169.211 415 158.975 428 162.162 443 c 0
EndSplineSet
EndChar
StartChar: dieresis
Encoding: 103 168 127
Width: 258
Flags: W
HStem: 405 56<147.488 174.585 267.488 294.585>
VStem: 133.037 176<414.65 451.344 433 433>
Fore
133.037 433 m 0
 136.226 448 151.988 461 166.988 461 c 0
 181.988 461 192.226 448 189.037 433 c 0
 185.849 418 170.085 405 155.085 405 c 0
 140.085 405 129.849 418 133.037 433 c 0
253.037 433 m 0
 256.226 448 271.988 461 286.988 461 c 0
 301.988 461 312.226 448 309.037 433 c 0
 305.849 418 290.085 405 275.085 405 c 0
 260.085 405 249.849 418 253.037 433 c 0
EndSplineSet
EndChar
StartChar: ring
Encoding: 204 730 128
Width: 192
Flags: W
HStem: 376 30<152.398 212.198> 490 30<170.252 230.052>
VStem: 119.226 144<429.654 466.349 448 448>
Fore
206.529 520 m 0
 246.529 520 271.728 488 263.226 448 c 0
 254.723 408 215.921 376 175.921 376 c 0
 135.921 376 110.723 408 119.226 448 c 0
 127.728 488 166.529 520 206.529 520 c 0
149.226 448 m 0
 144.337 425 159.298 406 182.298 406 c 0
 205.298 406 228.337 425 233.226 448 c 0
 238.114 471 223.152 490 200.152 490 c 0
 177.152 490 154.114 471 149.226 448 c 0
EndSplineSet
EndChar
StartChar: cedilla
Encoding: 119 184 129
Width: 210
Flags: W
HStem: -134 30<54.2719 103.895> -20 20G<106 134>
VStem: 22.918 121.652<-118 -82>
Fore
106 0 m 1
 134 0 l 1
 109.198 -32 l 1
 153.498 -40 146.908 -71 144.57 -82 c 0
 137.981 -113 106.518 -134 71.5176 -134 c 0
 54.5176 -134 37.5801 -129 22.918 -118 c 1
 44.2324 -93 l 1
 54.5322 -101 66.8945 -104 77.8945 -104 c 0
 97.8945 -104 112.02 -94 114.57 -82 c 0
 117.546 -68 101.034 -61 83.6719 -58 c 2
 62.3096 -55 l 1
 106 0 l 1
EndSplineSet
EndChar
StartChar: hungarumlaut
Encoding: 207 733 130
Width: 342
Flags: W
HStem: 400 120<189.022 254.529>
VStem: 153.022 287.507<400 520>
Fore
254.529 520 m 1
 310.529 520 l 1
 189.022 400 l 1
 153.022 400 l 1
 254.529 520 l 1
384.529 520 m 1
 440.529 520 l 1
 319.022 400 l 1
 283.022 400 l 1
 384.529 520 l 1
EndSplineSet
EndChar
StartChar: ogonek
Encoding: 205 731 131
Width: 203
Flags: W
HStem: -131 25<67.7688 106.8> -20 20G<88 120>
VStem: 31.8457 98.7103<-115 -76>
Fore
119.382 -97 m 1
 130.556 -115 l 1
 112.218 -126 94.1553 -131 78.1553 -131 c 0
 46.1553 -131 24.8311 -109 31.8457 -76 c 0
 37.7969 -48 63.5361 -21 88 0 c 1
 120 0 l 1
 80.9854 -33 67.3096 -55 63.0586 -75 c 0
 59.0195 -94 73.4688 -106 92.4688 -106 c 0
 100.469 -106 110.106 -103 119.382 -97 c 1
EndSplineSet
EndChar
StartChar: caron
Encoding: 202 711 132
Width: 232
Flags: W
HStem: 490 89<147.07 231.152>
VStem: 147.07 184<579 579>
Fore
231.152 490 m 1
 209.152 490 l 1
 147.07 579 l 1
 188.07 579 l 1
 227.38 524 l 1
 290.07 579 l 1
 331.07 579 l 1
 231.152 490 l 1
EndSplineSet
EndChar
StartChar: emdash
Encoding: 298 8212 133
Width: 378
Flags: W
HStem: 149 42<40.5986 409.671>
VStem: 31.6709 386.928<149 191>
Fore
418.599 191 m 1
 409.671 149 l 1
 31.6709 149 l 1
 40.5986 191 l 1
 418.599 191 l 1
EndSplineSet
EndChar
StartChar: AE
Encoding: 133 198 134
Width: 517
Flags: W
HStem: 0 30<357.377 505> 155 30<160.323 329.946> 275 30<364.83 535.453> 470 30<338.901 339.901 369.901 596.901>
VStem: 326 31.377<30 117.84> 331.323 33.13<185 275> 339.901 30<372.386 470>
Fore
541.83 305 m 1xf2
 535.453 275 l 1
 364.453 275 l 1xf4
 357.377 30 l 1
 511.377 30 l 1
 505 0 l 1
 326 0 l 1xf8
 329.946 155 l 1
 140.946 155 l 1
 44 0 l 1
 12 0 l 1
 325.278 500 l 1
 603.278 500 l 1
 596.901 470 l 1
 369.901 470 l 1
 364.83 305 l 1
 541.83 305 l 1xf2
160.323 185 m 1
 331.323 185 l 1xf4
 339.901 470 l 1xf2
 338.901 470 l 1
 160.323 185 l 1
EndSplineSet
EndChar
StartChar: ordfeminine
Encoding: 105 170 135
Width: 293
Flags: W
HStem: 208 26<134.538 226.512> 346 21<166.245 264.236> 432 25<194.024 283.724>
VStem: 269.212 28.275<208 270.492>
Fore
282.743 314 m 2
 287.206 335 l 1
 269.481 341 244.545 346 219.545 346 c 0
 178.545 346 137.781 333 128.429 289 c 0
 120.776 253 144.738 234 178.738 234 c 0
 228.738 234 273.791 286 282.743 314 c 2
153.897 390 m 1
 135.447 402 l 1
 161.25 434 198.139 457 235.139 457 c 0
 293.139 457 332.211 415 317.545 346 c 2
 302.453 275 l 2
 301.178 269 296.589 238 297.487 214 c 1
 269.212 208 l 1
 268.4 223 269.864 244 273.753 267 c 1
 250.376 237 214.212 208 173.212 208 c 0
 123.212 208 92.0137 240 102.429 289 c 0
 114.757 347 169.008 367 221.008 367 c 0
 247.008 367 271.945 362 291.245 354 c 1
 298.66 403 270.824 432 227.824 432 c 0
 201.824 432 174.424 416 153.897 390 c 1
EndSplineSet
EndChar
StartChar: Lslash
Encoding: 191 321 136
Width: 363
Flags: W
HStem: 0 30<84.377 339> 480 20G<154.278 184.278>
VStem: 21.1445 324.233<30 123>
Fore
339 0 m 1
 48 0 l 1
 84.1348 170 l 1
 21.1445 123 l 1
 29.6465 163 l 1
 92.6367 210 l 1
 154.278 500 l 1
 184.278 500 l 1
 128.376 237 l 1
 266.27 340 l 1
 257.767 300 l 1
 119.874 197 l 1
 84.377 30 l 1
 345.377 30 l 1
 339 0 l 1
EndSplineSet
EndChar
StartChar: Oslash
Encoding: 151 216 137
Width: 589
Flags: W
HStem: -5 30<249.613 461.513> 475 30<234.765 449.265>
Fore
118.923 -38 m 1
 97.3242 -22 l 1
 154.353 44 l 1
 101.13 90 76.0723 165 94.1387 250 c 0
 124.109 391 262.341 505 402.341 505 c 0
 450.341 505 491.578 492 524.689 469 c 1
 584.355 538 l 1
 605.954 522 l 1
 545.075 452 l 1
 595.085 405 618.568 332 601.139 250 c 0
 571.169 109 432.938 -5 292.938 -5 c 0
 247.938 -5 208.488 7 175.951 28 c 1
 118.923 -38 l 1
523.762 427 m 1
 198.266 53 l 1
 226.439 35 261.313 25 300.313 25 c 0
 424.313 25 545.782 126 572.139 250 c 0
 587.443 322 567.047 386 523.762 427 c 1
176.666 69 m 1
 502.375 444 l 1
 473.626 464 436.965 475 395.965 475 c 0
 271.965 475 150.496 374 124.139 250 c 0
 108.41 176 130.381 110 176.666 69 c 1
EndSplineSet
EndChar
StartChar: OE
Encoding: 193 338 138
Width: 644
Flags: W
HStem: -5 30<139.113 343.93> 0 30<369.377 624> 275 30<426.83 662.453> 470 30<461.901 722.901> 475 30<234.765 441.895>
Fore
426.83 305 m 1x30
 668.83 305 l 1
 662.453 275 l 1
 421.453 275 l 1
 369.377 30 l 1
 630.377 30 l 1
 624 0 l 1
 345 0 l 1x70
 328.362 -3 310.938 -5 293.938 -5 c 0
 153.938 -5 64.1689 109 94.1387 250 c 0
 124.109 391 262.341 505 402.341 505 c 0xa8
 419.341 505 435.916 503 451.278 500 c 1
 729.278 500 l 1
 722.901 470 l 1
 461.901 470 l 1
 426.83 305 l 1x30
338.951 28 m 1
 433.327 472 l 1
 421.752 474 408.965 475 395.965 475 c 0
 271.965 475 150.496 374 124.139 250 c 0
 97.7822 126 176.313 25 300.313 25 c 0xa8
 313.313 25 326.526 26 338.951 28 c 1
EndSplineSet
EndChar
StartChar: ordmasculine
Encoding: 121 186 139
Width: 310
Flags: W
HStem: 207 29<145.363 264.963> 406 29<181.498 301.098>
VStem: 109.23 228<302.651 339.347 321 321>
Fore
247.462 435 m 0
 310.462 435 350.622 384 337.23 321 c 0
 323.84 258 261.999 207 198.999 207 c 0
 135.999 207 95.8398 258 109.23 321 c 0
 122.622 384 184.462 435 247.462 435 c 0
139.23 321 m 0
 129.24 274 159.163 236 205.163 236 c 0
 251.163 236 297.24 274 307.23 321 c 0
 317.221 368 287.298 406 241.298 406 c 0
 195.298 406 149.221 368 139.23 321 c 0
EndSplineSet
EndChar
StartChar: ae
Encoding: 165 230 140
Width: 624
Flags: W
HStem: -5 31<75.9015 213.702 345.938 487.726> 170 29<206.738 306.135 345.299 592.299> 316 30<192.868 299.468 422.632 570.955>
Fore
619.135 170 m 1
 335.135 170 l 1
 317.918 89 362.526 26 430.526 26 c 0
 474.526 26 519.053 52 550.768 93 c 1
 573.579 78 l 1
 536.164 29 479.938 -5 423.938 -5 c 0
 363.938 -5 321.802 32 306.28 86 c 1
 263.864 37 201.725 -6 139.725 -6 c 0
 63.7246 -6 43.7773 46 52.7051 88 c 0
 75.874 197 229.299 199 312.299 199 c 1
 326.666 276 284.168 316 233.168 316 c 0
 202.168 316 166.767 300 136.753 267 c 1
 116.153 283 l 1
 154.293 326 199.545 346 239.545 346 c 0
 290.545 346 334.743 314 342.989 254 c 1
 381.468 308 440.332 345 499.332 345 c 0
 582.332 345 633.028 273 621.323 185 c 2
 619.135 170 l 1
146.102 24 m 0
 198.102 24 262.816 65 301.444 115 c 1
 301.058 132 301.884 150 306.135 170 c 1
 232.922 169 99.71 168 82.7051 88 c 0
 76.7529 60 92.1016 24 146.102 24 c 0
345.299 199 m 1
 592.299 199 l 1
 594.54 266 552.955 315 492.955 315 c 0
 433.955 315 371.54 266 345.299 199 c 1
EndSplineSet
EndChar
StartChar: lslash
Encoding: 192 322 141
Width: 126
Flags: W
HStem: 0 21G<48 78> 480 20G<154.278 184.278>
VStem: 38.9072 145.371<136 500>
Fore
78 0 m 1
 48 0 l 1
 84.1348 170 l 1
 38.9072 136 l 1
 47.4102 176 l 1
 92.6367 210 l 1
 154.278 500 l 1
 184.278 500 l 1
 128.376 237 l 1
 173.603 271 l 1
 165.101 231 l 1
 119.874 197 l 1
 78 0 l 1
EndSplineSet
EndChar
StartChar: oslash
Encoding: 183 248 142
Width: 431
Flags: W
HStem: -5 29<183.635 325.102> 314 31<177.743 318.939>
VStem: 77.1348 349<151.653 188.348 170 170>
Fore
391.134 377 m 1
 415.945 362 l 1
 380.743 314 l 1
 420.153 283 438.888 230 426.135 170 c 0
 405.517 73 310.938 -5 214.938 -5 c 0
 191.938 -5 170.787 -1 152.488 7 c 1
 120.136 -37 l 1
 96.1113 -23 l 1
 128.464 21 l 1
 85.0527 52 63.7432 107 77.1348 170 c 0
 97.7529 267 192.332 345 288.332 345 c 0
 313.332 345 336.27 340 356.144 330 c 1
 391.134 377 l 1
361.004 287 m 1
 172.015 33 l 1
 186.739 27 203.102 24 221.102 24 c 0
 301.102 24 379.918 89 396.922 169 c 0
 407.337 218 392.478 261 361.004 287 c 1
147.777 46 m 1
 336.192 302 l 1
 319.893 310 301.743 314 281.743 314 c 0
 201.743 314 122.927 249 105.922 169 c 0
 94.8691 117 112.304 72 147.777 46 c 1
EndSplineSet
EndChar
StartChar: oe
Encoding: 194 339 143
Width: 713
Flags: W
HStem: -5 30<117.313 304.938 433.126 578.726> 169 30<435.299 682.299> 315 30<178.955 379.332 506.468 661.168>
Fore
107.135 170 m 0
 90.1299 90 141.313 25 221.313 25 c 0
 301.313 25 380.13 90 397.135 170 c 0
 414.139 250 362.955 315 282.955 315 c 0
 202.955 315 124.139 250 107.135 170 c 0
707.922 169 m 1
 425.922 169 l 1
 408.705 88 453.526 26 521.526 26 c 0
 565.526 26 610.053 52 641.768 93 c 1
 664.579 78 l 1
 627.164 29 570.938 -5 514.938 -5 c 0
 450.938 -5 405.864 37 394.618 97 c 1
 353.864 37 283.938 -5 213.938 -5 c 0
 117.938 -5 56.5166 73 77.1348 170 c 0
 97.7529 267 192.332 345 288.332 345 c 0
 358.332 345 410.404 303 425.651 243 c 1
 462.404 303 525.332 345 588.332 345 c 0
 671.332 345 722.028 273 710.323 185 c 2
 707.922 169 l 1
435.299 199 m 1
 682.299 199 l 1
 684.54 266 643.168 316 583.168 316 c 0
 524.168 316 461.54 266 435.299 199 c 1
EndSplineSet
EndChar
StartChar: germandbls
Encoding: 158 223 144
Width: 380
Flags: W
HStem: -6 24<176.326 277.726> 529 29<233.042 356.542>
VStem: 56 342.187<0 429>
Fore
169.109 391 m 2
 86 0 l 1
 56 0 l 1
 138.897 390 l 2
 163.341 505 238.606 558 303.606 558 c 0
 365.606 558 415.404 510 398.187 429 c 0
 382.032 353 294.506 327 286.429 289 c 0
 275.589 238 383.637 210 364.932 122 c 0
 347.502 40 276.725 -6 210.725 -6 c 0
 176.725 -6 144.275 6 120.589 31 c 1
 143.353 44 l 1
 160.526 26 183.826 18 208.826 18 c 0
 261.826 18 320.115 57 334.357 124 c 0
 349.874 197 240.125 217 255.642 290 c 0
 267.545 346 354.221 368 367.399 430 c 0
 380.79 493 342.442 529 295.442 529 c 0
 247.442 529 190.152 490 169.109 391 c 2
EndSplineSet
EndChar
StartChar: logicalnot
Encoding: 107 172 145
Width: 468
Flags: W
HStem: 275 30<105.83 455.453>
VStem: 99.4531 392.377<275 305>
Fore
491.83 305 m 1
 452.507 120 l 1
 422.507 120 l 1
 455.453 275 l 1
 99.4531 275 l 1
 105.83 305 l 1
 491.83 305 l 1
EndSplineSet
EndChar
StartChar: trademark
Encoding: 314 8482 146
Width: 575
Flags: W
HStem: 474 26<154.278 219.752 245.752 316.752>
VStem: 554.139 26<250 387.592> 557.911 27.43<357.942 423>
Fore
322.278 500 m 1x80
 316.752 474 l 1
 245.752 474 l 1
 198.139 250 l 1
 172.139 250 l 1
 219.752 474 l 1
 148.752 474 l 1
 154.278 500 l 1
 322.278 500 l 1x80
557.911 423 m 1xa0
 430.864 244 l 1
 384.124 424 l 1
 313.352 251 l 1
 286.352 251 l 1
 391.554 506 l 1
 444.617 304 l 1
 585.341 505 l 1xa0
 580.139 250 l 1
 554.139 250 l 1xc0
 557.911 423 l 1xa0
EndSplineSet
EndChar
StartChar: Eth
Encoding: 143 208 147
Width: 452
Flags: W
HStem: 0 30<92.377 163.377> 235 30<59.3271 105.951 142.327 283.951> 470 30<185.901 418.101>
VStem: 52.9512 411.188<235 249.116 235 250>
CounterMasks: 1 00
Fore
92.377 30 m 1
 163.377 30 l 2
 287.377 30 407.782 126 434.139 250 c 0
 460.496 374 380.901 470 256.901 470 c 2
 185.901 470 l 1
 142.327 265 l 1
 290.327 265 l 1
 283.951 235 l 1
 135.951 235 l 1
 92.377 30 l 1
112.327 265 m 1
 162.278 500 l 1
 263.278 500 l 2
 403.278 500 494.109 391 464.139 250 c 0
 434.169 109 297 0 157 0 c 2
 56 0 l 1
 105.951 235 l 1
 52.9512 235 l 1
 59.3271 265 l 1
 112.327 265 l 1
EndSplineSet
EndChar
StartChar: onehalf
Encoding: 124 189 148
Width: 620
Flags: W
HStem: 0 30<399.377 566> 308 30<490.368 586.568> 480 20G<552.278 589.278>
Fore
572.377 30 m 1
 566 0 l 1
 359 0 l 1
 361.976 14 l 2
 386.207 128 573.033 146 590.676 229 c 0
 600.24 274 575.468 308 538.468 308 c 0
 501.468 308 462.24 274 452.676 229 c 1
 422.676 229 l 1
 435.216 288 489.844 338 545.844 338 c 0
 601.844 338 635.429 289 622.888 230 c 0
 601.633 130 434.381 110 399.377 30 c 1
 572.377 30 l 1
552.278 500 m 1
 589.278 500 l 1
 128 0 l 1
 91 0 l 1
 552.278 500 l 1
137.922 169 m 1
 197.226 448 l 1
 152.486 421 l 1
 140.8 446 l 1
 239.341 505 l 1
 167.922 169 l 1
 137.922 169 l 1
EndSplineSet
Ligature2: "'frac' Diagonal Fractions in Latin lookup 42" one fraction two
Ligature2: "'frac' Diagonal Fractions in Latin lookup 42" one slash two
EndChar
StartChar: plusminus
Encoding: 112 177 149
Width: 348
Flags: W
HStem: 0 30<47.377 307> 235 30<97.3271 208.951 245.327 356.951>
VStem: 41 322.327<0 265>
Fore
313.377 30 m 1
 307 0 l 1
 41 0 l 1
 47.377 30 l 1
 313.377 30 l 1
213.869 117 m 1
 183.869 117 l 1
 208.951 235 l 1
 90.9512 235 l 1
 97.3271 265 l 1
 215.327 265 l 1
 240.409 383 l 1
 270.409 383 l 1
 245.327 265 l 1
 363.327 265 l 1
 356.951 235 l 1
 238.951 235 l 1
 213.869 117 l 1
EndSplineSet
EndChar
StartChar: Thorn
Encoding: 157 222 150
Width: 381
Flags: W
HStem: 0 21G<56 86> 106 31<122.692 302.32> 363 29<174.44 350.358> 480 20G<162.278 192.278>
VStem: 56 336.927<0 249>
Fore
161.883 357 m 1
 116.396 143 l 1
 138.545 139 160.12 137 180.12 137 c 0
 274.12 137 346.835 178 362.139 250 c 0
 377.443 322 322.158 363 228.158 363 c 0
 208.158 363 185.732 361 161.883 357 c 1
56 0 m 1
 162.278 500 l 1
 192.278 500 l 1
 168.047 386 l 1
 190.897 390 213.322 392 234.322 392 c 0
 350.322 392 411.206 335 392.927 249 c 0
 374.646 163 289.531 106 173.531 106 c 0
 152.531 106 130.956 108 109.807 112 c 1
 86 0 l 1
 56 0 l 1
EndSplineSet
EndChar
StartChar: onequarter
Encoding: 123 188 151
Width: 620
Flags: W
HStem: 0 21G<122 159 493 523> 54 31<382.067 504.479 540.067 571.479> 480 20G<583.278 620.278>
VStem: 122 498.278<0 500>
Fore
583.278 500 m 1
 620.278 500 l 1
 159 0 l 1
 122 0 l 1
 583.278 500 l 1
511.067 85 m 1
 547.202 255 l 1
 382.067 85 l 1
 511.067 85 l 1
137.922 169 m 1
 197.226 448 l 1
 152.486 421 l 1
 140.8 446 l 1
 239.341 505 l 1
 167.922 169 l 1
 137.922 169 l 1
504.479 54 m 1
 314.479 54 l 1
 594.907 343 l 1
 540.067 85 l 1
 588.067 85 l 1
 571.479 54 l 1
 534.479 54 l 1
 523 0 l 1
 493 0 l 1
 504.479 54 l 1
EndSplineSet
Ligature2: "'frac' Diagonal Fractions in Latin lookup 42" one fraction four
Ligature2: "'frac' Diagonal Fractions in Latin lookup 42" one slash four
EndChar
StartChar: divide
Encoding: 182 247 152
Width: 362
Flags: W
HStem: 235 30<104.327 363.951>
VStem: 97.9512 272.376<235 265>
Fore
186.371 157 m 0
 189.56 172 205.323 185 220.323 185 c 0
 235.323 185 245.56 172 242.371 157 c 0
 239.183 142 223.42 129 208.42 129 c 0
 193.42 129 183.183 142 186.371 157 c 0
225.907 343 m 0
 229.096 358 244.858 371 259.858 371 c 0
 274.858 371 285.096 358 281.907 343 c 0
 278.719 328 262.955 315 247.955 315 c 0
 232.955 315 222.719 328 225.907 343 c 0
370.327 265 m 1
 363.951 235 l 1
 97.9512 235 l 1
 104.327 265 l 1
 370.327 265 l 1
EndSplineSet
EndChar
StartChar: brokenbar
Encoding: 101 166 153
Width: 142
Flags: W
VStem: 19.8652 174.539<-170 510>
Fore
137.014 240 m 1
 107.014 240 l 1
 164.404 510 l 1
 194.404 510 l 1
 137.014 240 l 1
49.8652 -170 m 1
 19.8652 -170 l 1
 77.2559 100 l 1
 107.256 100 l 1
 49.8652 -170 l 1
EndSplineSet
EndChar
StartChar: degree
Encoding: 111 176 154
Width: 252
Flags: W
HStem: 406 31<179.888 257.888> 545 31<202.844 280.844>
VStem: 145.365 170<472.652 509.348 491 491>
Fore
248.433 576 m 0
 295.433 576 325.355 538 315.365 491 c 0
 305.375 444 259.298 406 212.298 406 c 0
 165.298 406 135.375 444 145.365 491 c 0
 155.355 538 201.433 576 248.433 576 c 0
176.365 491 m 0
 169.988 461 188.888 437 218.888 437 c 0
 248.888 437 277.988 461 284.365 491 c 0
 290.742 521 271.844 545 241.844 545 c 0
 211.844 545 182.742 521 176.365 491 c 0
EndSplineSet
EndChar
StartChar: thorn
Encoding: 189 254 155
Width: 414
Flags: W
HStem: -5 31<144.038 309.526> 316 29<218.432 371.168> 480 20G<162.278 192.278>
VStem: 19.8652 389.27<-170 170>
Fore
49.8652 -170 m 1
 19.8652 -170 l 1
 162.278 500 l 1
 192.278 500 l 1
 144.028 273 l 1
 182.168 316 234.332 345 287.332 345 c 0
 376.332 345 429.327 265 409.135 170 c 0
 388.941 75 301.938 -5 212.938 -5 c 0
 159.938 -5 120.102 24 100.241 67 c 1
 49.8652 -170 l 1
124.686 182 m 2
 120.009 160 l 2
 108.854 84 152.526 26 218.526 26 c 0
 288.526 26 361.13 90 378.348 171 c 0
 395.564 252 350.168 316 280.168 316 c 0
 214.168 316 145.84 258 124.686 182 c 2
EndSplineSet
EndChar
StartChar: threequarters
Encoding: 125 190 156
Width: 620
Flags: W
HStem: 0 21G<162 199 513 543> 55 30<402.067 524.69 560.067 591.69> 163 29<127.211 236.411> 344 30<214.119 259.496> 475 30<202.965 280.965>
Fore
91.9648 268 m 1
 121.965 268 l 1
 113.038 226 139.811 192 181.811 192 c 0
 223.811 192 265.038 226 273.965 268 c 0
 282.893 310 256.119 344 214.119 344 c 1
 220.496 374 l 1
 250.496 374 278.535 393 284.699 422 c 0
 290.863 451 271.965 475 241.965 475 c 0
 211.965 475 182.863 451 176.699 422 c 1
 146.699 422 l 1
 156.477 468 201.341 505 247.341 505 c 0
 293.341 505 322.477 468 312.699 422 c 0
 306.96 395 289.283 373 267.308 359 c 1
 295.481 341 310.255 307 301.965 268 c 0
 289.637 210 232.646 163 174.646 163 c 0
 116.646 163 79.6367 210 91.9648 268 c 1
623.278 500 m 1
 660.278 500 l 1
 199 0 l 1
 162 0 l 1
 623.278 500 l 1
531.067 85 m 1
 567.202 255 l 1
 402.067 85 l 1
 531.067 85 l 1
524.69 55 m 1
 334.69 55 l 1
 615.119 344 l 1
 560.067 85 l 1
 608.067 85 l 1
 591.69 55 l 1
 554.69 55 l 1
 543 0 l 1
 513 0 l 1
 524.69 55 l 1
EndSplineSet
Ligature2: "'frac' Diagonal Fractions in Latin lookup 42" three fraction four
Ligature2: "'frac' Diagonal Fractions in Latin lookup 42" three slash four
EndChar
StartChar: registered
Encoding: 109 174 157
Width: 590
Flags: W
HStem: -5 30<139.113 461.513> 232 30<298.689 355.313> 365 30<320.583 426.683> 475 30<234.765 557.165>
Fore
432.318 105 m 1
 397.318 105 l 1
 355.313 232 l 1
 292.313 232 l 1
 265.318 105 l 1
 235.318 105 l 1
 296.96 395 l 1
 397.96 395 l 2
 441.96 395 469.096 358 459.53 313 c 0
 451.878 277 422.289 246 388.163 236 c 1
 432.318 105 l 1
124.139 250 m 0
 97.7822 126 176.313 25 300.313 25 c 0
 424.313 25 545.782 126 572.139 250 c 0
 598.496 374 519.965 475 395.965 475 c 0
 271.965 475 150.496 374 124.139 250 c 0
402.341 505 m 0
 542.341 505 632.109 391 602.139 250 c 0
 572.169 109 433.938 -5 293.938 -5 c 0
 153.938 -5 64.1689 109 94.1387 250 c 0
 124.109 391 262.341 505 402.341 505 c 0
298.689 262 m 1
 370.689 262 l 2
 396.689 262 423.366 284 429.53 313 c 0
 435.694 342 418.583 365 391.583 365 c 2
 320.583 365 l 1
 298.689 262 l 1
EndSplineSet
EndChar
StartChar: eth
Encoding: 175 240 158
Width: 430
Flags: W
HStem: -5 29<115.102 323.102> 314 31<200.743 340.332>
VStem: 77.1348 366.481<170 511>
Fore
335.501 454 m 1
 336.288 453 l 2
 447.844 338 434.274 213 425.135 170 c 0
 404.517 73 309.938 -5 213.938 -5 c 0
 117.938 -5 56.5166 73 77.1348 170 c 0
 97.7529 267 192.332 345 288.332 345 c 0
 328.332 345 362.568 332 386.68 309 c 1
 371.096 358 342.447 402 305.888 437 c 1
 186.496 374 l 1
 177.022 400 l 1
 284.139 457 l 1
 256.027 480 223.854 498 191.191 509 c 1
 206.355 538 l 1
 244.592 525 281.916 503 314.752 474 c 1
 434.143 537 l 1
 443.616 511 l 1
 335.501 454 l 1
281.743 314 m 2
 280.743 314 l 2
 200.743 314 121.927 249 104.922 169 c 0
 87.918 89 139.102 24 219.102 24 c 0
 299.102 24 377.918 89 394.922 169 c 0
 413.414 256 355.743 314 281.743 314 c 2
EndSplineSet
EndChar
StartChar: multiply
Encoding: 150 215 159
Width: 358
Flags: W
HStem: 117 266<105.409 358.869>
VStem: 53.8691 360.54<117 383>
Fore
358.869 117 m 1
 315.869 117 l 1
 228.463 228 l 1
 95.8691 117 l 1
 53.8691 117 l 1
 211.927 249 l 1
 105.409 383 l 1
 148.409 383 l 1
 237.391 270 l 1
 372.409 383 l 1
 414.409 383 l 1
 253.927 249 l 1
 358.869 117 l 1
EndSplineSet
EndChar
StartChar: copyright
Encoding: 104 169 160
Width: 590
Flags: W
HStem: -5 30<139.113 461.513> 104 30<253.582 367.982> 364 30<302.47 416.87> 475 30<234.765 557.165>
Fore
402.341 505 m 0
 542.341 505 632.109 391 602.139 250 c 0
 572.169 109 433.938 -5 293.938 -5 c 0
 153.938 -5 64.1689 109 94.1387 250 c 0
 124.109 391 262.341 505 402.341 505 c 0
124.139 250 m 0
 97.7822 126 176.313 25 300.313 25 c 0
 424.313 25 545.782 126 572.139 250 c 0
 598.496 374 519.965 475 395.965 475 c 0
 271.965 475 150.496 374 124.139 250 c 0
417.961 188 m 1
 440.772 173 l 1
 410.058 132 363.105 104 316.105 104 c 0
 243.105 104 201.135 170 217.927 249 c 0
 234.719 328 304.747 394 377.747 394 c 0
 424.747 394 459.796 366 473.081 325 c 1
 443.893 310 l 1
 432.907 343 406.37 364 371.37 364 c 0
 318.37 364 261.743 314 247.927 249 c 0
 234.11 184 269.482 134 322.482 134 c 0
 357.482 134 392.946 155 417.961 188 c 1
EndSplineSet
EndChar
StartChar: Aacute
Encoding: 128 193 161
Width: 444
Flags: W
HStem: 0 21G<12 44 400 432> 155 30<161.323 363.323>
VStem: 12 446.698<0 629>
Fore
401.698 629 m 1
 458.698 629 l 1
 338.78 540 l 1
 307.78 540 l 1
 401.698 629 l 1
161.323 185 m 1
 363.323 185 l 1
 313.975 428 l 1
 161.323 185 l 1
368.946 155 m 1
 140.946 155 l 1
 44 0 l 1
 12 0 l 1
 329.554 506 l 1
 432 0 l 1
 400 0 l 1
 368.946 155 l 1
EndSplineSet
EndChar
StartChar: Acircumflex
Encoding: 129 194 162
Width: 444
Flags: W
HStem: 0 21G<12 44 400 432> 155 30<161.323 363.323>
VStem: 12 420<0 0>
Fore
345.698 629 m 1
 367.698 629 l 1
 429.78 540 l 1
 388.78 540 l 1
 349.471 595 l 1
 286.78 540 l 1
 245.78 540 l 1
 345.698 629 l 1
161.323 185 m 1
 363.323 185 l 1
 313.975 428 l 1
 161.323 185 l 1
368.946 155 m 1
 140.946 155 l 1
 44 0 l 1
 12 0 l 1
 329.554 506 l 1
 432 0 l 1
 400 0 l 1
 368.946 155 l 1
EndSplineSet
EndChar
StartChar: Adieresis
Encoding: 131 196 163
Width: 444
Flags: W
HStem: 0 21G<12 44 400 432> 155 30<161.323 363.323> 540 56<270.184 297.28 390.184 417.28>
VStem: 12 420<0 0>
Fore
255.732 568 m 0
 258.921 583 274.684 596 289.684 596 c 0
 304.684 596 314.921 583 311.732 568 c 0
 308.544 553 292.78 540 277.78 540 c 0
 262.78 540 252.544 553 255.732 568 c 0
375.732 568 m 0
 378.921 583 394.684 596 409.684 596 c 0
 424.684 596 434.921 583 431.732 568 c 0
 428.544 553 412.78 540 397.78 540 c 0
 382.78 540 372.544 553 375.732 568 c 0
161.323 185 m 1
 363.323 185 l 1
 313.975 428 l 1
 161.323 185 l 1
368.946 155 m 1
 140.946 155 l 1
 44 0 l 1
 12 0 l 1
 329.554 506 l 1
 432 0 l 1
 400 0 l 1
 368.946 155 l 1
EndSplineSet
EndChar
StartChar: Agrave
Encoding: 127 192 164
Width: 444
Flags: W
HStem: 0 21G<12 44 400 432> 155 30<161.323 363.323>
VStem: 12 420<0 0>
Fore
255.698 629 m 1
 312.698 629 l 1
 368.78 540 l 1
 337.78 540 l 1
 255.698 629 l 1
161.323 185 m 1
 363.323 185 l 1
 313.975 428 l 1
 161.323 185 l 1
368.946 155 m 1
 140.946 155 l 1
 44 0 l 1
 12 0 l 1
 329.554 506 l 1
 432 0 l 1
 400 0 l 1
 368.946 155 l 1
EndSplineSet
EndChar
StartChar: Aring
Encoding: 132 197 165
Width: 444
Flags: W
HStem: 0 21G<12 44 400 432> 155 30<161.323 363.323> 535 30<311.195 370.995> 649 30<329.049 388.849>
VStem: 12 420<0 0>
Fore
365.326 679 m 0
 405.326 679 430.524 647 422.021 607 c 0
 413.52 567 374.718 535 334.718 535 c 0
 294.718 535 269.52 567 278.021 607 c 0
 286.524 647 325.326 679 365.326 679 c 0
308.021 607 m 0
 303.133 584 318.095 565 341.095 565 c 0
 364.095 565 387.133 584 392.021 607 c 0
 396.91 630 381.949 649 358.949 649 c 0
 335.949 649 312.91 630 308.021 607 c 0
161.323 185 m 1
 363.323 185 l 1
 313.975 428 l 1
 161.323 185 l 1
368.946 155 m 1
 140.946 155 l 1
 44 0 l 1
 12 0 l 1
 329.554 506 l 1
 432 0 l 1
 400 0 l 1
 368.946 155 l 1
EndSplineSet
EndChar
StartChar: Atilde
Encoding: 130 195 166
Width: 444
Flags: W
HStem: 0 21G<12 44 400 432> 155 30<161.323 363.323> 535 30<355.495 393.575> 571 30<287.213 329.57>
VStem: 12 420<0 0>
Fore
268.78 540 m 1
 249.78 540 l 1
 256.095 565 267.746 601 305.746 601 c 0
 341.746 601 362.095 565 384.095 565 c 0
 388.095 565 405.944 569 411.684 596 c 1
 431.684 596 l 1
 422.119 551 401.718 535 376.718 535 c 0
 344.718 535 322.37 571 298.37 571 c 0
 290.37 571 275.307 566 268.78 540 c 1
161.323 185 m 1
 363.323 185 l 1
 313.975 428 l 1
 161.323 185 l 1
368.946 155 m 1
 140.946 155 l 1
 44 0 l 1
 12 0 l 1
 329.554 506 l 1
 432 0 l 1
 400 0 l 1
 368.946 155 l 1
EndSplineSet
EndChar
StartChar: Ccedilla
Encoding: 134 199 167
Width: 541
Flags: W
HStem: -133 30<231.484 281.106> 475 31<234.765 492.165>
VStem: 94.3516 490.095<251 402>
Fore
499.656 116 m 1
 521.043 99 l 1
 464.502 40 387 0 308.149 -4 c 1
 286.411 -31 l 1
 330.71 -39 324.121 -70 321.783 -81 c 0
 315.193 -112 283.73 -133 248.729 -133 c 0
 231.729 -133 214.793 -128 200.131 -117 c 1
 221.444 -92 l 1
 231.744 -100 244.106 -103 255.106 -103 c 0
 275.106 -103 289.232 -93 291.783 -81 c 0
 294.759 -67 278.247 -60 260.884 -57 c 2
 239.521 -54 l 1
 280.362 -3 l 1
 147.851 4 65.4443 115 94.3516 251 c 0
 124.322 392 262.554 506 402.554 506 c 0
 486.554 506 551.839 465 584.447 402 c 1
 556.622 384 l 1
 527.312 439 469.965 475 395.965 475 c 0
 271.965 475 150.496 374 124.139 250 c 0
 97.7822 126 176.313 25 300.313 25 c 0
 374.313 25 446.966 61 499.656 116 c 1
EndSplineSet
EndChar
StartChar: Eacute
Encoding: 136 201 168
Width: 367
Flags: W
HStem: 0 30<92.377 346> 275 30<150.83 384.453> 470 30<185.901 446.901>
VStem: 56 397.278<0 500>
Fore
408.698 629 m 1
 288.78 540 l 1
 257.78 540 l 1
 351.698 629 l 1
 408.698 629 l 1
390.83 305 m 1
 384.453 275 l 1
 144.453 275 l 1
 92.377 30 l 1
 352.377 30 l 1
 346 0 l 1
 56 0 l 1
 162.278 500 l 1
 453.278 500 l 1
 446.901 470 l 1
 185.901 470 l 1
 150.83 305 l 1
 390.83 305 l 1
EndSplineSet
EndChar
StartChar: Ecircumflex
Encoding: 137 202 169
Width: 367
Flags: W
HStem: 0 30<92.377 346> 275 30<150.83 384.453> 470 30<185.901 446.901>
VStem: 56 397.278<0 500>
Fore
354.78 540 m 1
 314.471 595 l 1
 251.78 540 l 1
 210.78 540 l 1
 310.698 629 l 1
 333.698 629 l 1
 395.78 540 l 1
 354.78 540 l 1
390.83 305 m 1
 384.453 275 l 1
 144.453 275 l 1
 92.377 30 l 1
 352.377 30 l 1
 346 0 l 1
 56 0 l 1
 162.278 500 l 1
 453.278 500 l 1
 446.901 470 l 1
 185.901 470 l 1
 150.83 305 l 1
 390.83 305 l 1
EndSplineSet
EndChar
StartChar: Edieresis
Encoding: 138 203 170
Width: 367
Flags: W
HStem: 0 30<92.377 346> 275 30<150.83 384.453> 470 30<185.901 446.901> 540 56<235.184 262.28 355.184 382.28>
VStem: 56 397.278<0 500>
Fore
220.732 568 m 0
 223.921 583 239.684 596 254.684 596 c 0
 269.684 596 279.921 583 276.732 568 c 0
 273.544 553 257.78 540 242.78 540 c 0
 227.78 540 217.544 553 220.732 568 c 0
340.732 568 m 0
 343.921 583 359.684 596 374.684 596 c 0
 389.684 596 399.921 583 396.732 568 c 0
 393.544 553 377.78 540 362.78 540 c 0
 347.78 540 337.544 553 340.732 568 c 0
390.83 305 m 1
 384.453 275 l 1
 144.453 275 l 1
 92.377 30 l 1
 352.377 30 l 1
 346 0 l 1
 56 0 l 1
 162.278 500 l 1
 453.278 500 l 1
 446.901 470 l 1
 185.901 470 l 1
 150.83 305 l 1
 390.83 305 l 1
EndSplineSet
EndChar
StartChar: Egrave
Encoding: 135 200 171
Width: 367
Flags: W
HStem: 0 30<92.377 346> 275 30<150.83 384.453> 470 30<185.901 446.901>
VStem: 56 397.278<0 500>
Fore
234.698 629 m 1
 291.698 629 l 1
 347.78 540 l 1
 316.78 540 l 1
 234.698 629 l 1
390.83 305 m 1
 384.453 275 l 1
 144.453 275 l 1
 92.377 30 l 1
 352.377 30 l 1
 346 0 l 1
 56 0 l 1
 162.278 500 l 1
 453.278 500 l 1
 446.901 470 l 1
 185.901 470 l 1
 150.83 305 l 1
 390.83 305 l 1
EndSplineSet
EndChar
StartChar: Iacute
Encoding: 140 205 172
Width: 142
Flags: W
HStem: 0 21G<56 86> 480 20G<162.278 192.278>
VStem: 56 249.698<0 629>
Fore
305.698 629 m 1
 185.78 540 l 1
 154.78 540 l 1
 248.698 629 l 1
 305.698 629 l 1
86 0 m 1
 56 0 l 1
 162.278 500 l 1
 192.278 500 l 1
 86 0 l 1
EndSplineSet
EndChar
StartChar: Icircumflex
Encoding: 141 206 173
Width: 142
Flags: W
HStem: 0 21G<56 86> 480 20G<162.278 192.278>
VStem: 56 221.78<0 540>
Fore
236.78 540 m 1
 196.471 595 l 1
 133.78 540 l 1
 92.7803 540 l 1
 192.698 629 l 1
 215.698 629 l 1
 277.78 540 l 1
 236.78 540 l 1
86 0 m 1
 56 0 l 1
 162.278 500 l 1
 192.278 500 l 1
 86 0 l 1
EndSplineSet
EndChar
StartChar: Idieresis
Encoding: 142 207 174
Width: 142
Flags: W
HStem: 0 21G<56 86> 480 20G<162.278 192.278> 540 56<117.184 144.28 237.184 264.28>
VStem: 56 222.732<0 568>
Fore
102.732 568 m 0
 105.921 583 121.684 596 136.684 596 c 0
 151.684 596 161.921 583 158.732 568 c 0
 155.544 553 139.78 540 124.78 540 c 0
 109.78 540 99.5439 553 102.732 568 c 0
222.732 568 m 0
 225.921 583 241.684 596 256.684 596 c 0
 271.684 596 281.921 583 278.732 568 c 0
 275.544 553 259.78 540 244.78 540 c 0
 229.78 540 219.544 553 222.732 568 c 0
86 0 m 1
 56 0 l 1
 162.278 500 l 1
 192.278 500 l 1
 86 0 l 1
EndSplineSet
EndChar
StartChar: Igrave
Encoding: 139 204 175
Width: 142
Flags: W
HStem: 0 21G<56 86> 480 20G<162.278 192.278>
VStem: 56 160.78<0 540>
Fore
103.698 629 m 1
 160.698 629 l 1
 216.78 540 l 1
 185.78 540 l 1
 103.698 629 l 1
86 0 m 5
 56 0 l 5
 162.278 500 l 5
 192.278 500 l 5
 86 0 l 5
EndSplineSet
EndChar
StartChar: Ntilde
Encoding: 144 209 176
Width: 563
Flags: W
HStem: 0 21G<56 86> 480 20G<583.278 613.278> 535 30<415.495 453.575> 571 30<347.213 389.57>
Fore
308.78 540 m 1
 309.78 540 l 1
 316.095 565 327.746 601 365.746 601 c 0
 401.746 601 422.095 565 444.095 565 c 0
 448.095 565 465.944 569 471.684 596 c 1
 491.684 596 l 1
 482.119 551 461.718 535 436.718 535 c 0
 404.718 535 382.37 571 358.37 571 c 0
 350.37 571 335.307 566 328.78 540 c 1
 308.78 540 l 1
56 0 m 1
 163.767 507 l 1
 491.241 67 l 1
 583.278 500 l 1
 613.278 500 l 1
 505.512 -7 l 1
 178.037 433 l 1
 86 0 l 1
 56 0 l 1
EndSplineSet
EndChar
StartChar: Oacute
Encoding: 146 211 177
Width: 590
Flags: W
HStem: -5 30<139.113 461.513> 475 30<234.765 557.165>
Fore
549.698 629 m 1
 429.78 540 l 1
 398.78 540 l 1
 492.698 629 l 1
 549.698 629 l 1
402.341 505 m 0
 542.341 505 632.109 391 602.139 250 c 0
 572.169 109 433.938 -5 293.938 -5 c 0
 153.938 -5 64.1689 109 94.1387 250 c 0
 124.109 391 262.341 505 402.341 505 c 0
124.139 250 m 0
 97.7822 126 176.313 25 300.313 25 c 0
 424.313 25 545.782 126 572.139 250 c 0
 598.496 374 519.965 475 395.965 475 c 0
 271.965 475 150.496 374 124.139 250 c 0
EndSplineSet
EndChar
StartChar: Ocircumflex
Encoding: 147 212 178
Width: 590
Flags: W
HStem: -5 30<139.113 461.513> 475 30<234.765 557.165>
Fore
461.78 540 m 1
 421.471 595 l 1
 358.78 540 l 1
 317.78 540 l 1
 417.698 629 l 1
 440.698 629 l 1
 502.78 540 l 1
 461.78 540 l 1
402.341 505 m 0
 542.341 505 632.109 391 602.139 250 c 0
 572.169 109 433.938 -5 293.938 -5 c 0
 153.938 -5 64.1689 109 94.1387 250 c 0
 124.109 391 262.341 505 402.341 505 c 0
124.139 250 m 0
 97.7822 126 176.313 25 300.313 25 c 0
 424.313 25 545.782 126 572.139 250 c 0
 598.496 374 519.965 475 395.965 475 c 0
 271.965 475 150.496 374 124.139 250 c 0
EndSplineSet
EndChar
StartChar: Odieresis
Encoding: 149 214 179
Width: 590
Flags: W
HStem: -5 30<139.113 461.513> 475 30<234.765 557.165> 540 56<342.184 369.28 462.184 489.28>
Fore
327.732 568 m 0
 330.921 583 346.684 596 361.684 596 c 0
 376.684 596 386.921 583 383.732 568 c 0
 380.544 553 364.78 540 349.78 540 c 0
 334.78 540 324.544 553 327.732 568 c 0
447.732 568 m 0
 450.921 583 466.684 596 481.684 596 c 0
 496.684 596 506.921 583 503.732 568 c 0
 500.544 553 484.78 540 469.78 540 c 0
 454.78 540 444.544 553 447.732 568 c 0
402.341 505 m 0
 542.341 505 632.109 391 602.139 250 c 0
 572.169 109 433.938 -5 293.938 -5 c 0
 153.938 -5 64.1689 109 94.1387 250 c 0
 124.109 391 262.341 505 402.341 505 c 0
124.139 250 m 0
 97.7822 126 176.313 25 300.313 25 c 0
 424.313 25 545.782 126 572.139 250 c 0
 598.496 374 519.965 475 395.965 475 c 0
 271.965 475 150.496 374 124.139 250 c 0
EndSplineSet
EndChar
StartChar: Ograve
Encoding: 145 210 180
Width: 590
Flags: W
HStem: -5 30<139.113 461.513> 475 30<234.765 557.165>
Fore
402.341 505 m 0
 542.341 505 632.109 391 602.139 250 c 0
 572.169 109 433.938 -5 293.938 -5 c 0
 153.938 -5 64.1689 109 94.1387 250 c 0
 124.109 391 262.341 505 402.341 505 c 0
124.139 250 m 0
 97.7822 126 176.313 25 300.313 25 c 0
 424.313 25 545.782 126 572.139 250 c 0
 598.496 374 519.965 475 395.965 475 c 0
 271.965 475 150.496 374 124.139 250 c 0
299.698 629 m 1
 356.698 629 l 1
 412.78 540 l 1
 381.78 540 l 1
 299.698 629 l 1
EndSplineSet
EndChar
StartChar: Otilde
Encoding: 148 213 181
Width: 590
Flags: W
HStem: -5 30<139.113 461.513> 475 30<234.765 557.165> 535 30<430.495 468.575> 571 30<362.213 404.57>
Fore
323.78 540 m 1
 324.78 540 l 1
 331.095 565 342.746 601 380.746 601 c 0
 416.746 601 437.095 565 459.095 565 c 0
 463.095 565 480.944 569 486.684 596 c 1
 506.684 596 l 1
 497.119 551 476.718 535 451.718 535 c 0
 419.718 535 397.37 571 373.37 571 c 0
 365.37 571 350.307 566 343.78 540 c 1
 323.78 540 l 1
402.341 505 m 0
 542.341 505 632.109 391 602.139 250 c 0
 572.169 109 433.938 -5 293.938 -5 c 0
 153.938 -5 64.1689 109 94.1387 250 c 0
 124.109 391 262.341 505 402.341 505 c 0
124.139 250 m 0
 97.7822 126 176.313 25 300.313 25 c 0
 424.313 25 545.782 126 572.139 250 c 0
 598.496 374 519.965 475 395.965 475 c 0
 271.965 475 150.496 374 124.139 250 c 0
EndSplineSet
EndChar
StartChar: Scaron
Encoding: 195 352 182
Width: 361
Flags: W
HStem: -7 31<110.002 268.602> 475 31<213.365 332.965>
VStem: 53.9707 30.8496<35.2487 147.346> 363.447 30.126<402 467.526>
Fore
302.655 530 m 1
 280.655 530 l 1
 218.572 619 l 1
 259.572 619 l 1
 298.882 564 l 1
 361.572 619 l 1
 402.572 619 l 1
 302.655 530 l 1
393.573 412 m 1
 363.447 402 l 1
 357.075 452 320.965 475 280.965 475 c 0
 228.965 475 185.675 436 175.685 389 c 0
 151.028 273 402.255 307 367.396 143 c 0
 348.266 53 259.512 -7 177.512 -7 c 0
 107.512 -7 46.0771 38 53.9707 141 c 1
 84.8203 145 l 1
 78.541 59 127.102 24 184.102 24 c 0
 249.102 24 321.879 70 337.608 144 c 0
 367.366 284 115.289 246 145.897 390 c 0
 159.075 452 217.554 506 287.554 506 c 0
 338.554 506 385.752 474 393.573 412 c 1
EndSplineSet
EndChar
StartChar: Uacute
Encoding: 153 218 183
Width: 468
Flags: W
HStem: -5 30<136.313 344.313> 480 20G<162.278 192.278 488.278 518.278>
VStem: 96.3857 421.892<190 500>
Fore
426.698 629 m 1
 483.698 629 l 1
 363.78 540 l 1
 332.78 540 l 1
 426.698 629 l 1
162.278 500 m 1
 192.278 500 l 1
 126.386 190 l 2
 106.618 97 160.313 25 240.313 25 c 0
 320.313 25 402.618 97 422.386 190 c 2
 488.278 500 l 1
 518.278 500 l 1
 452.386 190 l 2
 429.643 83 331.938 -5 232.938 -5 c 0
 133.938 -5 73.6426 83 96.3857 190 c 2
 162.278 500 l 1
EndSplineSet
EndChar
StartChar: Ucircumflex
Encoding: 154 219 184
Width: 468
Flags: W
HStem: -5 30<136.313 344.313> 480 20G<162.278 192.278 488.278 518.278>
VStem: 96.3857 421.892<190 500>
Fore
440.78 540 m 1
 398.78 540 l 1
 359.471 595 l 1
 296.78 540 l 1
 255.78 540 l 1
 355.698 629 l 1
 378.698 629 l 1
 440.78 540 l 1
162.278 500 m 1
 192.278 500 l 1
 126.386 190 l 2
 106.618 97 160.313 25 240.313 25 c 0
 320.313 25 402.618 97 422.386 190 c 2
 488.278 500 l 1
 518.278 500 l 1
 452.386 190 l 2
 429.643 83 331.938 -5 232.938 -5 c 0
 133.938 -5 73.6426 83 96.3857 190 c 2
 162.278 500 l 1
EndSplineSet
EndChar
StartChar: Udieresis
Encoding: 155 220 185
Width: 468
Flags: W
HStem: -5 30<136.313 344.313> 480 20G<162.278 192.278 488.278 518.278> 540 56<281.184 308.28 401.184 428.28>
VStem: 96.3857 421.892<190 500>
Fore
266.732 568 m 0
 269.921 583 285.684 596 300.684 596 c 0
 315.684 596 325.921 583 322.732 568 c 0
 319.544 553 303.78 540 288.78 540 c 0
 273.78 540 263.544 553 266.732 568 c 0
386.732 568 m 0
 389.921 583 405.684 596 420.684 596 c 0
 435.684 596 445.921 583 442.732 568 c 0
 439.544 553 423.78 540 408.78 540 c 0
 393.78 540 383.544 553 386.732 568 c 0
162.278 500 m 1
 192.278 500 l 1
 126.386 190 l 2
 106.618 97 160.313 25 240.313 25 c 0
 320.313 25 402.618 97 422.386 190 c 2
 488.278 500 l 1
 518.278 500 l 1
 452.386 190 l 2
 429.643 83 331.938 -5 232.938 -5 c 0
 133.938 -5 73.6426 83 96.3857 190 c 2
 162.278 500 l 1
EndSplineSet
EndChar
StartChar: Ugrave
Encoding: 152 217 186
Width: 468
Flags: W
HStem: -5 30<136.313 344.313> 480 20G<162.278 192.278 488.278 518.278>
VStem: 96.3857 421.892<190 500>
Fore
251.698 629 m 1
 308.698 629 l 1
 364.78 540 l 1
 333.78 540 l 1
 251.698 629 l 1
162.278 500 m 1
 192.278 500 l 1
 126.386 190 l 2
 106.618 97 160.313 25 240.313 25 c 0
 320.313 25 402.618 97 422.386 190 c 2
 488.278 500 l 1
 518.278 500 l 1
 452.386 190 l 2
 429.643 83 331.938 -5 232.938 -5 c 0
 133.938 -5 73.6426 83 96.3857 190 c 2
 162.278 500 l 1
EndSplineSet
EndChar
StartChar: Yacute
Encoding: 156 221 187
Width: 412
Flags: W
HStem: 0 21G<191 221> 480 20G<118.278 153.278 471.278 506.278>
VStem: 118.278 388<500 500>
Fore
399.698 629 m 1
 456.698 629 l 1
 336.78 540 l 1
 305.78 540 l 1
 399.698 629 l 1
118.278 500 m 1
 153.278 500 l 1
 258.714 248 l 1
 471.278 500 l 1
 506.278 500 l 1
 266.912 216 l 1
 221 0 l 1
 191 0 l 1
 236.912 216 l 1
 118.278 500 l 1
EndSplineSet
EndChar
StartChar: Ydieresis
Encoding: 197 376 188
Width: 412
Flags: W
HStem: 0 21G<191 221> 480 20G<118.278 153.278 471.278 506.278> 540 56<254.184 281.28 374.184 401.28>
VStem: 118.278 388<500 500>
Fore
239.732 568 m 0
 242.921 583 258.684 596 273.684 596 c 0
 288.684 596 298.921 583 295.732 568 c 0
 292.544 553 276.78 540 261.78 540 c 0
 246.78 540 236.544 553 239.732 568 c 0
359.732 568 m 0
 362.921 583 378.684 596 393.684 596 c 0
 408.684 596 418.921 583 415.732 568 c 0
 412.544 553 396.78 540 381.78 540 c 0
 366.78 540 356.544 553 359.732 568 c 0
118.278 500 m 1
 153.278 500 l 1
 258.714 248 l 1
 471.278 500 l 1
 506.278 500 l 1
 266.912 216 l 1
 221 0 l 1
 191 0 l 1
 236.912 216 l 1
 118.278 500 l 1
EndSplineSet
EndChar
StartChar: Zcaron
Encoding: 198 381 189
Width: 398
Flags: W
HStem: 0 30<74.377 376> 470 30<151.278 422.901>
VStem: 12 473.278<0 500>
Fore
322.655 530 m 1
 300.655 530 l 1
 238.572 619 l 1
 279.572 619 l 1
 318.882 564 l 1
 381.572 619 l 1
 422.572 619 l 1
 322.655 530 l 1
151.278 500 m 1
 485.278 500 l 1
 74.377 30 l 1
 392.377 30 l 1
 376 0 l 1
 12 0 l 1
 422.901 470 l 1
 134.901 470 l 1
 151.278 500 l 1
EndSplineSet
EndChar
StartChar: aacute
Encoding: 160 225 190
Width: 356
Flags: W
HStem: -6 30<75.9015 208.625> 173 22.003<211.596 306.772> 316 30<192.868 299.468>
VStem: 52.7051 319.023<88 488>
Fore
314.728 488 m 1
 371.728 488 l 1
 251.811 399 l 1
 220.811 399 l 1
 314.728 488 l 1
308 0 m 1
 276 0 l 1
 274.764 13 275.951 28 279.565 45 c 2
 285.092 71 l 1
 247.377 30 192.725 -6 139.725 -6 c 0
 63.7246 -6 43.7773 46 52.7051 88 c 0
 75.0537 193.142 217.81 195.003 302.382 195.003 c 0
 311.448 195 l 1
 325.815 272 284.168 316 233.168 316 c 0
 202.168 316 166.767 300 136.753 267 c 1
 116.153 283 l 1
 154.293 326 199.545 346 239.545 346 c 0
 306.545 346 360.066 292 341.448 195 c 2
 309.565 45 l 2
 305.313 25 305.126 10 308 0 c 1
146.102 24 m 0
 201.102 24 262.666 69 293.169 109 c 1
 306.772 173 l 1
 233.56 172 99.71 168 82.7051 88 c 0
 76.7529 60 92.1016 24 146.102 24 c 0
EndSplineSet
EndChar
StartChar: acircumflex
Encoding: 161 226 191
Width: 356
Flags: W
HStem: -6 30<75.9015 208.625> 173 22.003<211.596 306.772> 316 30<192.868 299.468>
VStem: 52.7051 300.106<88 399>
Fore
268.728 488 m 1
 290.728 488 l 1
 352.811 399 l 1
 311.811 399 l 1
 272.501 454 l 1
 209.811 399 l 1
 168.811 399 l 1
 268.728 488 l 1
308 0 m 1
 276 0 l 1
 274.764 13 275.951 28 279.565 45 c 2
 285.092 71 l 1
 247.377 30 192.725 -6 139.725 -6 c 0
 63.7246 -6 43.7773 46 52.7051 88 c 0
 75.0537 193.142 217.81 195.003 302.382 195.003 c 0
 311.448 195 l 1
 325.815 272 284.168 316 233.168 316 c 0
 202.168 316 166.767 300 136.753 267 c 1
 116.153 283 l 1
 154.293 326 199.545 346 239.545 346 c 0
 306.545 346 360.066 292 341.448 195 c 2
 309.565 45 l 2
 305.313 25 305.126 10 308 0 c 1
146.102 24 m 0
 201.102 24 262.666 69 293.169 109 c 1
 306.772 173 l 1
 233.56 172 99.71 168 82.7051 88 c 0
 76.7529 60 92.1016 24 146.102 24 c 0
EndSplineSet
EndChar
StartChar: adieresis
Encoding: 163 228 192
Width: 356
Flags: W
HStem: -6 30<75.9015 208.625> 173 22.003<211.596 306.772> 316 30<192.868 299.468> 400 56<194.426 221.522 314.426 341.522>
VStem: 52.7051 303.27<88 428>
Fore
179.975 428 m 0
 183.162 443 198.926 456 213.926 456 c 0
 228.926 456 239.162 443 235.975 428 c 0
 232.786 413 217.022 400 202.022 400 c 0
 187.022 400 176.786 413 179.975 428 c 0
299.975 428 m 0
 303.162 443 318.926 456 333.926 456 c 0
 348.926 456 359.162 443 355.975 428 c 0
 352.786 413 337.022 400 322.022 400 c 0
 307.022 400 296.786 413 299.975 428 c 0
308 0 m 1
 276 0 l 1
 274.764 13 275.951 28 279.565 45 c 2
 285.092 71 l 1
 247.377 30 192.725 -6 139.725 -6 c 0
 63.7246 -6 43.7773 46 52.7051 88 c 0
 75.0537 193.142 217.81 195.003 302.382 195.003 c 0
 311.448 195 l 1
 325.815 272 284.168 316 233.168 316 c 0
 202.168 316 166.767 300 136.753 267 c 1
 116.153 283 l 1
 154.293 326 199.545 346 239.545 346 c 0
 306.545 346 360.066 292 341.448 195 c 2
 309.565 45 l 2
 305.313 25 305.126 10 308 0 c 1
146.102 24 m 0
 201.102 24 262.666 69 293.169 109 c 1
 306.772 173 l 1
 233.56 172 99.71 168 82.7051 88 c 0
 76.7529 60 92.1016 24 146.102 24 c 0
EndSplineSet
EndChar
StartChar: agrave
Encoding: 159 224 193
Width: 356
Flags: W
HStem: -6 30<75.9015 208.625> 173 22.003<211.596 306.772> 316 30<192.868 299.468>
VStem: 52.7051 288.743<88 195>
Fore
308 0 m 1
 276 0 l 1
 274.764 13 275.951 28 279.565 45 c 2
 285.092 71 l 1
 247.377 30 192.725 -6 139.725 -6 c 0
 63.7246 -6 43.7773 46 52.7051 88 c 0
 75.0537 193.142 217.81 195.003 302.382 195.003 c 0
 311.448 195 l 1
 325.815 272 284.168 316 233.168 316 c 0
 202.168 316 166.767 300 136.753 267 c 1
 116.153 283 l 1
 154.293 326 199.545 346 239.545 346 c 0
 306.545 346 360.066 292 341.448 195 c 2
 309.565 45 l 2
 305.313 25 305.126 10 308 0 c 1
146.102 24 m 0
 201.102 24 262.666 69 293.169 109 c 1
 306.772 173 l 1
 233.56 172 99.71 168 82.7051 88 c 0
 76.7529 60 92.1016 24 146.102 24 c 0
170.728 488 m 1
 227.728 488 l 1
 283.811 399 l 1
 252.811 399 l 1
 170.728 488 l 1
EndSplineSet
EndChar
StartChar: aring
Encoding: 164 229 194
Width: 356
Flags: W
HStem: -6 30<75.9015 208.625> 173 22.003<211.596 306.772> 316 30<192.868 299.468> 395 30<236.437 296.237> 509 30<254.291 314.091>
VStem: 52.7051 294.559<88 467>
Fore
290.568 539 m 0
 330.568 539 355.767 507 347.264 467 c 0
 338.762 427 299.96 395 259.96 395 c 0
 219.96 395 194.762 427 203.264 467 c 0
 211.767 507 250.568 539 290.568 539 c 0
233.264 467 m 0
 228.375 444 243.337 425 266.337 425 c 0
 289.337 425 312.375 444 317.264 467 c 0
 322.152 490 307.191 509 284.191 509 c 0
 261.191 509 238.152 490 233.264 467 c 0
308 0 m 1
 276 0 l 1
 274.764 13 275.951 28 279.565 45 c 2
 285.092 71 l 1
 247.377 30 192.725 -6 139.725 -6 c 0
 63.7246 -6 43.7773 46 52.7051 88 c 0
 75.0537 193.142 217.81 195.003 302.382 195.003 c 0
 311.448 195 l 1
 325.815 272 284.168 316 233.168 316 c 0
 202.168 316 166.767 300 136.753 267 c 1
 116.153 283 l 1
 154.293 326 199.545 346 239.545 346 c 0
 306.545 346 360.066 292 341.448 195 c 2
 309.565 45 l 2
 305.313 25 305.126 10 308 0 c 1
146.102 24 m 0
 201.102 24 262.666 69 293.169 109 c 1
 306.772 173 l 1
 233.56 172 99.71 168 82.7051 88 c 0
 76.7529 60 92.1016 24 146.102 24 c 0
EndSplineSet
EndChar
StartChar: atilde
Encoding: 162 227 195
Width: 356
Flags: W
HStem: -6 30<75.9015 208.625> 173 22.003<211.596 306.772> 316 30<192.868 299.468> 394 31<294.563 323.309> 431 29<212.455 239.431>
VStem: 52.7051 302.583<88 453>
Fore
336.288 453 m 1
 355.288 453 l 1
 352.95 442 350.037 433 346.337 425 c 0
 331.747 394 310.747 394 302.747 394 c 0
 283.747 394 265.511 407 256.211 415 c 0
 242.549 426 231.612 431 223.612 431 c 0
 215.612 431 200.549 426 194.022 400 c 1
 174.022 400 l 1
 175.936 409 177.636 417 182.975 428 c 0
 195.075 452 213.776 460 229.776 460 c 0
 250.776 460 269.8 446 277.524 440 c 0
 291.399 430 302.337 425 309.337 425 c 0
 316.337 425 331.187 429 336.288 453 c 1
308 0 m 1
 276 0 l 1
 274.764 13 275.951 28 279.565 45 c 2
 285.092 71 l 1
 247.377 30 192.725 -6 139.725 -6 c 0
 63.7246 -6 43.7773 46 52.7051 88 c 0
 75.0537 193.142 217.81 195.003 302.382 195.003 c 0
 311.448 195 l 1
 325.815 272 284.168 316 233.168 316 c 0
 202.168 316 166.767 300 136.753 267 c 1
 116.153 283 l 1
 154.293 326 199.545 346 239.545 346 c 0
 306.545 346 360.066 292 341.448 195 c 2
 309.565 45 l 2
 305.313 25 305.126 10 308 0 c 1
146.102 24 m 0
 201.102 24 262.666 69 293.169 109 c 1
 306.772 173 l 1
 233.56 172 99.71 168 82.7051 88 c 0
 76.7529 60 92.1016 24 146.102 24 c 0
EndSplineSet
EndChar
StartChar: ccedilla
Encoding: 166 231 196
Width: 337
Flags: W
HStem: -133 30<116.484 166.106> 315 31<157.555 303.155>
VStem: 60.3477 306.554<171 263>
Fore
304.556 92 m 1
 329.792 79 l 1
 295.227 34 245.425 2 193.362 -3 c 1
 171.411 -31 l 1
 215.71 -39 209.121 -70 206.783 -81 c 0
 200.193 -112 168.73 -133 133.729 -133 c 0
 116.729 -133 99.793 -128 85.1309 -117 c 1
 106.444 -92 l 1
 116.744 -100 129.106 -103 140.106 -103 c 0
 160.106 -103 174.232 -93 176.783 -81 c 0
 179.759 -67 163.247 -60 145.884 -57 c 2
 124.521 -54 l 1
 165.362 -3 l 1
 86.0625 5 41.2168 81 60.3477 171 c 0
 80.54 266 165.545 346 252.545 346 c 0
 308.545 346 350.317 312 366.902 263 c 1
 337.714 248 l 1
 323.429 289 289.955 315 245.955 315 c 0
 177.955 315 106.352 251 89.1348 170 c 0
 71.918 89 116.313 25 184.313 25 c 0
 228.313 25 272.841 51 304.556 92 c 1
EndSplineSet
EndChar
StartChar: eacute
Encoding: 168 233 197
Width: 395
Flags: W
HStem: -5 31<113.126 258.726> 169 30<116.299 363.299> 315 30<187.255 341.955>
VStem: 77.1348 335.805<170 489>
Fore
355.94 489 m 1
 412.94 489 l 1
 293.022 400 l 1
 262.022 400 l 1
 355.94 489 l 1
116.299 199 m 1
 363.299 199 l 1
 365.54 266 323.955 315 263.955 315 c 0
 204.955 315 142.54 266 116.299 199 c 1
389.922 169 m 1
 105.922 169 l 1
 88.7051 88 133.526 26 201.526 26 c 0
 245.526 26 290.053 52 321.768 93 c 1
 344.579 78 l 1
 307.164 29 250.938 -5 194.938 -5 c 0
 107.938 -5 56.9414 75 77.1348 170 c 0
 97.3271 265 183.332 345 270.332 345 c 0
 353.332 345 404.028 273 392.323 185 c 2
 389.922 169 l 1
EndSplineSet
EndChar
StartChar: ecircumflex
Encoding: 169 234 198
Width: 395
Flags: W
HStem: -5 31<113.126 258.726> 169 30<116.299 363.299> 315 30<187.255 341.955>
VStem: 77.1348 315.188<169 188.349 170 185>
Fore
288.94 489 m 1
 310.94 489 l 1
 373.022 400 l 1
 332.022 400 l 1
 292.713 455 l 1
 230.022 400 l 1
 189.022 400 l 1
 288.94 489 l 1
116.299 199 m 1
 363.299 199 l 1
 365.54 266 323.955 315 263.955 315 c 0
 204.955 315 142.54 266 116.299 199 c 1
389.922 169 m 1
 105.922 169 l 1
 88.7051 88 133.526 26 201.526 26 c 0
 245.526 26 290.053 52 321.768 93 c 1
 344.579 78 l 1
 307.164 29 250.938 -5 194.938 -5 c 0
 107.938 -5 56.9414 75 77.1348 170 c 0
 97.3271 265 183.332 345 270.332 345 c 0
 353.332 345 404.028 273 392.323 185 c 2
 389.922 169 l 1
EndSplineSet
EndChar
StartChar: edieresis
Encoding: 170 235 199
Width: 395
Flags: W
HStem: -5 31<113.126 258.726> 169 30<116.299 363.299> 315 30<187.255 341.955> 400 56<209.426 236.522 329.426 356.522>
VStem: 77.1348 315.188<169 188.349 170 185>
Fore
194.975 428 m 0
 198.162 443 213.926 456 228.926 456 c 0
 243.926 456 254.162 443 250.975 428 c 0
 247.786 413 232.022 400 217.022 400 c 0
 202.022 400 191.786 413 194.975 428 c 0
314.975 428 m 0
 318.162 443 333.926 456 348.926 456 c 0
 363.926 456 374.162 443 370.975 428 c 0
 367.786 413 352.022 400 337.022 400 c 0
 322.022 400 311.786 413 314.975 428 c 0
116.299 199 m 1
 363.299 199 l 1
 365.54 266 323.955 315 263.955 315 c 0
 204.955 315 142.54 266 116.299 199 c 1
389.922 169 m 1
 105.922 169 l 1
 88.7051 88 133.526 26 201.526 26 c 0
 245.526 26 290.053 52 321.768 93 c 1
 344.579 78 l 1
 307.164 29 250.938 -5 194.938 -5 c 0
 107.938 -5 56.9414 75 77.1348 170 c 0
 97.3271 265 183.332 345 270.332 345 c 0
 353.332 345 404.028 273 392.323 185 c 2
 389.922 169 l 1
EndSplineSet
EndChar
StartChar: egrave
Encoding: 167 232 200
Width: 395
Flags: W
HStem: -5 31<113.126 258.726> 169 30<116.299 363.299> 315 30<187.255 341.955>
VStem: 77.1348 315.188<169 188.349 170 185>
Fore
178.94 489 m 1
 235.94 489 l 1
 292.022 400 l 1
 261.022 400 l 1
 178.94 489 l 1
116.299 199 m 1
 363.299 199 l 1
 365.54 266 323.955 315 263.955 315 c 0
 204.955 315 142.54 266 116.299 199 c 1
389.922 169 m 1
 105.922 169 l 1
 88.7051 88 133.526 26 201.526 26 c 0
 245.526 26 290.053 52 321.768 93 c 1
 344.579 78 l 1
 307.164 29 250.938 -5 194.938 -5 c 0
 107.938 -5 56.9414 75 77.1348 170 c 0
 97.3271 265 183.332 345 270.332 345 c 0
 353.332 345 404.028 273 392.323 185 c 2
 389.922 169 l 1
EndSplineSet
EndChar
StartChar: iacute
Encoding: 172 237 201
Width: 142
Flags: W
HStem: 0 489<86 213.94>
VStem: 56 213.94<0 489>
Fore
213.94 489 m 1
 269.94 489 l 1
 150.022 400 l 1
 119.022 400 l 1
 213.94 489 l 1
86 0 m 1
 56 0 l 1
 128.27 340 l 1
 158.27 340 l 1
 86 0 l 1
EndSplineSet
EndChar
StartChar: icircumflex
Encoding: 173 238 202
Width: 142
Flags: W
HStem: 0 489<86 163.94>
VStem: 56 192.022<0 400>
Fore
86 0 m 1
 56 0 l 1
 128.27 340 l 1
 158.27 340 l 1
 86 0 l 1
163.94 489 m 1
 185.94 489 l 1
 248.022 400 l 1
 207.022 400 l 1
 167.713 455 l 1
 105.022 400 l 1
 64.0225 400 l 1
 163.94 489 l 1
EndSplineSet
EndChar
StartChar: idieresis
Encoding: 174 239 203
Width: 142
Flags: W
HStem: 0 21G<56 86> 320 20G<128.27 158.27> 400 56<87.4257 114.522 207.426 234.522>
VStem: 56 192.975<0 428>
Fore
72.9746 428 m 0
 76.1621 443 91.9258 456 106.926 456 c 0
 121.926 456 132.162 443 128.975 428 c 0
 125.786 413 110.022 400 95.0225 400 c 0
 80.0225 400 69.7861 413 72.9746 428 c 0
192.975 428 m 0
 196.162 443 211.926 456 226.926 456 c 0
 241.926 456 252.162 443 248.975 428 c 0
 245.786 413 230.022 400 215.022 400 c 0
 200.022 400 189.786 413 192.975 428 c 0
86 0 m 1
 56 0 l 1
 128.27 340 l 1
 158.27 340 l 1
 86 0 l 1
EndSplineSet
EndChar
StartChar: igrave
Encoding: 171 236 204
Width: 142
Flags: W
HStem: 0 489<70.9404 86>
VStem: 56 128.022<0 400>
Fore
70.9404 489 m 1
 127.94 489 l 1
 184.022 400 l 1
 153.022 400 l 1
 70.9404 489 l 1
86 0 m 1
 56 0 l 1
 128.27 340 l 1
 158.27 340 l 1
 86 0 l 1
EndSplineSet
EndChar
StartChar: ntilde
Encoding: 176 241 205
Width: 360
Flags: W
HStem: 0 21G<56 86 274 304> 315 30<219.732 343.655> 394 31<299.563 323.798> 431 29<217.455 244.431>
VStem: 56 304.288<0 453>
Fore
341.926 456 m 1
 360.288 453 l 1
 357.95 442 355.037 433 351.337 425 c 0
 336.747 394 315.747 394 307.747 394 c 0
 288.747 394 270.511 407 261.211 415 c 0
 247.549 426 236.612 431 228.612 431 c 0
 220.612 431 205.549 426 199.022 400 c 1
 179.022 400 l 1
 180.936 409 182.636 417 187.975 428 c 0
 200.075 452 218.776 460 234.776 460 c 0
 255.776 460 274.8 446 282.524 440 c 0
 296.399 430 307.337 425 314.337 425 c 0
 321.337 425 336.824 432 341.926 456 c 1
120.27 340 m 1
 152.27 340 l 1
 153.506 327 152.317 312 148.704 295 c 2
 137.864 244 l 1
 173.342 298 232.332 345 274.332 345 c 0
 345.332 345 363.941 282 348.637 210 c 2
 304 0 l 1
 274 0 l 1
 318.637 210 l 2
 327.989 254 325.955 315 266.955 315 c 0
 211.955 315 132.975 221 122.135 170 c 2
 86 0 l 1
 56 0 l 1
 118.704 295 l 2
 122.955 315 123.144 330 120.27 340 c 1
EndSplineSet
EndChar
StartChar: oacute
Encoding: 178 243 206
Width: 430
Flags: W
HStem: -5 30<117.313 325.313> 315 30<178.955 386.955>
VStem: 77.1348 348<151.652 188.348 170 170>
Fore
355.94 489 m 1
 412.94 489 l 1
 293.022 400 l 1
 262.022 400 l 1
 355.94 489 l 1
288.332 345 m 0
 384.332 345 445.753 267 425.135 170 c 0
 404.517 73 309.938 -5 213.938 -5 c 0
 117.938 -5 56.5166 73 77.1348 170 c 0
 97.7529 267 192.332 345 288.332 345 c 0
107.135 170 m 0
 90.1299 90 141.313 25 221.313 25 c 0
 301.313 25 380.13 90 397.135 170 c 0
 414.139 250 362.955 315 282.955 315 c 0
 202.955 315 124.139 250 107.135 170 c 0
EndSplineSet
EndChar
StartChar: ocircumflex
Encoding: 179 244 207
Width: 430
Flags: W
HStem: -5 30<117.313 325.313> 315 30<178.955 386.955>
VStem: 77.1348 348<151.652 188.348 170 170>
Fore
306.94 489 m 1
 328.94 489 l 1
 391.022 400 l 1
 350.022 400 l 1
 310.713 455 l 1
 248.022 400 l 1
 207.022 400 l 1
 306.94 489 l 1
288.332 345 m 0
 384.332 345 445.753 267 425.135 170 c 0
 404.517 73 309.938 -5 213.938 -5 c 0
 117.938 -5 56.5166 73 77.1348 170 c 0
 97.7529 267 192.332 345 288.332 345 c 0
107.135 170 m 0
 90.1299 90 141.313 25 221.313 25 c 0
 301.313 25 380.13 90 397.135 170 c 0
 414.139 250 362.955 315 282.955 315 c 0
 202.955 315 124.139 250 107.135 170 c 0
EndSplineSet
EndChar
StartChar: odieresis
Encoding: 181 246 208
Width: 430
Flags: W
HStem: -5 30<117.313 325.313> 315 30<178.955 386.955> 400 56<231.426 258.522 351.426 378.522>
VStem: 77.1348 348<151.652 188.348 170 170>
Fore
216.975 428 m 0
 220.162 443 235.926 456 250.926 456 c 0
 265.926 456 276.162 443 272.975 428 c 0
 269.786 413 254.022 400 239.022 400 c 0
 224.022 400 213.786 413 216.975 428 c 0
336.975 428 m 0
 340.162 443 355.926 456 370.926 456 c 0
 385.926 456 396.162 443 392.975 428 c 0
 389.786 413 374.022 400 359.022 400 c 0
 344.022 400 333.786 413 336.975 428 c 0
288.332 345 m 0
 384.332 345 445.753 267 425.135 170 c 0
 404.517 73 309.938 -5 213.938 -5 c 0
 117.938 -5 56.5166 73 77.1348 170 c 0
 97.7529 267 192.332 345 288.332 345 c 0
107.135 170 m 0
 90.1299 90 141.313 25 221.313 25 c 0
 301.313 25 380.13 90 397.135 170 c 0
 414.139 250 362.955 315 282.955 315 c 0
 202.955 315 124.139 250 107.135 170 c 0
EndSplineSet
EndChar
StartChar: ograve
Encoding: 177 242 209
Width: 430
Flags: W
HStem: -5 30<117.313 325.313> 315 30<178.955 386.955>
VStem: 77.1348 348<151.652 188.348 170 170>
Fore
222.94 489 m 1
 279.94 489 l 1
 336.022 400 l 1
 305.022 400 l 1
 222.94 489 l 1
288.332 345 m 0
 384.332 345 445.753 267 425.135 170 c 0
 404.517 73 309.938 -5 213.938 -5 c 0
 117.938 -5 56.5166 73 77.1348 170 c 0
 97.7529 267 192.332 345 288.332 345 c 0
107.135 170 m 0
 90.1299 90 141.313 25 221.313 25 c 0
 301.313 25 380.13 90 397.135 170 c 0
 414.139 250 362.955 315 282.955 315 c 0
 202.955 315 124.139 250 107.135 170 c 0
EndSplineSet
EndChar
StartChar: otilde
Encoding: 180 245 210
Width: 430
Flags: W
HStem: -5 30<117.313 325.313> 315 30<178.955 386.955> 394 31<332.563 356.798> 431 29<250.455 277.431>
VStem: 77.1348 348<151.652 188.348 170 170>
Fore
374.926 456 m 1
 393.288 453 l 1
 390.95 442 388.037 433 384.337 425 c 0
 369.747 394 348.747 394 340.747 394 c 0
 321.747 394 303.511 407 294.211 415 c 0
 280.549 426 269.612 431 261.612 431 c 0
 253.612 431 238.549 426 232.022 400 c 1
 212.022 400 l 1
 213.936 409 215.636 417 220.975 428 c 0
 233.075 452 251.776 460 267.776 460 c 0
 288.776 460 307.8 446 315.524 440 c 0
 329.399 430 340.337 425 347.337 425 c 0
 354.337 425 369.824 432 374.926 456 c 1
288.332 345 m 0
 384.332 345 445.753 267 425.135 170 c 0
 404.517 73 309.938 -5 213.938 -5 c 0
 117.938 -5 56.5166 73 77.1348 170 c 0
 97.7529 267 192.332 345 288.332 345 c 0
107.135 170 m 0
 90.1299 90 141.313 25 221.313 25 c 0
 301.313 25 380.13 90 397.135 170 c 0
 414.139 250 362.955 315 282.955 315 c 0
 202.955 315 124.139 250 107.135 170 c 0
EndSplineSet
EndChar
StartChar: scaron
Encoding: 196 353 211
Width: 266
Flags: W
HStem: -6 30<91.302 190.102> 316 30<164.768 232.368>
VStem: 44.6182 30.8496<32.818 103.256> 251.603 29.913<271 311.697>
Fore
223.646 370 m 1
 201.646 370 l 1
 139.563 459 l 1
 180.563 459 l 1
 219.873 404 l 1
 282.563 459 l 1
 323.563 459 l 1
 223.646 370 l 1
281.516 280 m 1
 251.603 271 l 1
 247.192 302 225.168 316 201.168 316 c 0
 173.168 316 143.129 297 135.902 263 c 0
 120.599 191 286.85 211 262.83 98 c 0
 249.015 33 185.725 -6 130.725 -6 c 0
 81.7246 -6 39.3135 25 44.6182 97 c 1
 75.4678 101 l 1
 70.9902 47 102.102 24 138.102 24 c 0
 178.102 24 224.266 53 234.043 99 c 0
 252.961 188 84.8594 164 106.115 264 c 0
 117.381 317 164.545 346 207.545 346 c 0
 243.545 346 276.081 325 281.516 280 c 1
EndSplineSet
EndChar
StartChar: uacute
Encoding: 185 250 212
Width: 358
Flags: W
HStem: -5 30<117.013 249.613> 320 20G<128.27 158.27 344.27 374.27>
VStem: 83.6328 302.307<130 489>
Fore
328.94 489 m 1
 385.94 489 l 1
 266.022 400 l 1
 235.022 400 l 1
 328.94 489 l 1
128.27 340 m 1
 158.27 340 l 1
 113.633 130 l 2
 101.092 71 132.313 25 183.313 25 c 0
 234.313 25 287.092 71 299.633 130 c 2
 344.27 340 l 1
 374.27 340 l 1
 329.633 130 l 2
 313.903 56 246.938 -5 177.938 -5 c 0
 108.938 -5 67.9033 56 83.6328 130 c 2
 128.27 340 l 1
EndSplineSet
EndChar
StartChar: ucircumflex
Encoding: 186 251 213
Width: 358
Flags: W
HStem: -5 30<117.013 249.613> 320 20G<128.27 158.27 344.27 374.27>
VStem: 83.6328 290.637<130 340>
Fore
271.94 489 m 1
 293.94 489 l 1
 356.022 400 l 1
 315.022 400 l 1
 275.713 455 l 1
 213.022 400 l 1
 172.022 400 l 1
 271.94 489 l 1
128.27 340 m 1
 158.27 340 l 1
 113.633 130 l 2
 101.092 71 132.313 25 183.313 25 c 0
 234.313 25 287.092 71 299.633 130 c 2
 344.27 340 l 1
 374.27 340 l 1
 329.633 130 l 2
 313.903 56 246.938 -5 177.938 -5 c 0
 108.938 -5 67.9033 56 83.6328 130 c 2
 128.27 340 l 1
EndSplineSet
EndChar
StartChar: udieresis
Encoding: 187 252 214
Width: 358
Flags: W
HStem: -5 30<117.013 249.613> 320 20G<128.27 158.27 344.27 374.27> 400 56<198.426 225.522 318.426 345.522>
VStem: 83.6328 290.637<130 340>
Fore
183.975 428 m 0
 187.162 443 202.926 456 217.926 456 c 0
 232.926 456 243.162 443 239.975 428 c 0
 236.786 413 221.022 400 206.022 400 c 0
 191.022 400 180.786 413 183.975 428 c 0
303.975 428 m 0
 307.162 443 322.926 456 337.926 456 c 0
 352.926 456 363.162 443 359.975 428 c 0
 356.786 413 341.022 400 326.022 400 c 0
 311.022 400 300.786 413 303.975 428 c 0
128.27 340 m 1
 158.27 340 l 1
 113.633 130 l 2
 101.092 71 132.313 25 183.313 25 c 0
 234.313 25 287.092 71 299.633 130 c 2
 344.27 340 l 1
 374.27 340 l 1
 329.633 130 l 2
 313.903 56 246.938 -5 177.938 -5 c 0
 108.938 -5 67.9033 56 83.6328 130 c 2
 128.27 340 l 1
EndSplineSet
EndChar
StartChar: ugrave
Encoding: 184 249 215
Width: 358
Flags: W
HStem: -5 30<117.013 249.613> 320 20G<128.27 158.27 344.27 374.27>
VStem: 83.6328 290.637<130 340>
Fore
182.94 489 m 1
 239.94 489 l 1
 296.022 400 l 1
 265.022 400 l 1
 182.94 489 l 1
128.27 340 m 1
 158.27 340 l 1
 113.633 130 l 2
 101.092 71 132.313 25 183.313 25 c 0
 234.313 25 287.092 71 299.633 130 c 2
 344.27 340 l 1
 374.27 340 l 1
 329.633 130 l 2
 313.903 56 246.938 -5 177.938 -5 c 0
 108.938 -5 67.9033 56 83.6328 130 c 2
 128.27 340 l 1
EndSplineSet
EndChar
StartChar: yacute
Encoding: 188 253 216
Width: 319
Flags: W
HStem: 320 20G<84.2695 116.27 347.27 379.27>
VStem: 41.8027 337.467<-175 340>
Fore
308.94 489 m 1
 365.94 489 l 1
 246.022 400 l 1
 215.022 400 l 1
 308.94 489 l 1
74.8027 -175 m 1
 41.8027 -175 l 1
 144.787 -1 l 1
 84.2695 340 l 1
 116.27 340 l 1
 169.502 40 l 1
 347.27 340 l 1
 379.27 340 l 1
 74.8027 -175 l 1
EndSplineSet
EndChar
StartChar: ydieresis
Encoding: 190 255 217
Width: 318
Flags: W
HStem: 320 20G<84.2695 115.27 346.27 378.27> 405 56<179.488 206.585 299.488 326.585>
VStem: 41.8027 336.467<-175 340>
Fore
165.037 433 m 0
 168.226 448 183.988 461 198.988 461 c 0
 213.988 461 224.226 448 221.037 433 c 0
 217.849 418 202.085 405 187.085 405 c 0
 172.085 405 161.849 418 165.037 433 c 0
285.037 433 m 0
 288.226 448 303.988 461 318.988 461 c 0
 333.988 461 344.226 448 341.037 433 c 0
 337.849 418 322.085 405 307.085 405 c 0
 292.085 405 281.849 418 285.037 433 c 0
84.2695 340 m 1
 115.27 340 l 1
 168.502 40 l 1
 346.27 340 l 1
 378.27 340 l 1
 73.8027 -175 l 1
 41.8027 -175 l 1
 144.787 -1 l 1
 84.2695 340 l 1
EndSplineSet
EndChar
StartChar: zcaron
Encoding: 199 382 218
Width: 298
Flags: W
HStem: 0 30<75.377 275> 310 30<125.27 295.893>
VStem: 12 346.27<0 340>
Fore
248.646 370 m 1
 226.646 370 l 1
 164.563 459 l 1
 205.563 459 l 1
 244.873 404 l 1
 307.563 459 l 1
 348.563 459 l 1
 248.646 370 l 1
125.27 340 m 1
 358.27 340 l 1
 75.377 30 l 1
 291.377 30 l 1
 275 0 l 1
 12 0 l 1
 295.893 310 l 1
 108.893 310 l 1
 125.27 340 l 1
EndSplineSet
EndChar
StartChar: uni00AD
Encoding: 108 173 220
Width: 348
Flags: W
HStem: 155 30<80.3232 339.946>
VStem: 73.9463 272.377<155 185>
Fore
346.323 185 m 1
 339.946 155 l 1
 73.9463 155 l 1
 80.3232 185 l 1
 346.323 185 l 1
EndSplineSet
EndChar
StartChar: uni00B2
Encoding: 113 178 221
Width: 297
Flags: W
HStem: 310 30<147.27 313.893> 618 30<238.26 334.46>
VStem: 106.68 264.1<309 540>
Fore
313.893 310 m 1
 106.68 309 l 1
 109.868 324 l 2
 134.1 438 320.926 456 338.568 539 c 0
 348.133 584 323.36 618 286.36 618 c 0
 249.36 618 210.133 584 200.568 539 c 1
 170.568 539 l 1
 183.108 598 237.736 648 293.736 648 c 0
 349.736 648 383.321 599 370.78 540 c 0
 349.524 440 182.273 420 147.27 340 c 1
 320.27 340 l 1
 313.893 310 l 1
EndSplineSet
EndChar
StartChar: uni00B3
Encoding: 114 179 222
Width: 292
Flags: W
HStem: 305 29<163.394 272.594> 486 30<250.303 295.679> 617 30<239.147 317.147>
VStem: 128.148 220.734<410 564>
Fore
212.882 564 m 1
 182.882 564 l 1
 192.659 610 237.524 647 283.524 647 c 0
 329.524 647 358.659 610 348.882 564 c 0
 343.143 537 325.467 515 303.491 501 c 1
 331.665 483 346.438 449 338.148 410 c 0
 325.82 352 268.83 305 210.83 305 c 0
 152.83 305 115.82 352 128.148 410 c 1
 158.148 410 l 1
 149.221 368 175.994 334 217.994 334 c 0
 259.994 334 301.221 368 310.148 410 c 0
 319.075 452 292.303 486 250.303 486 c 1
 256.679 516 l 1
 286.679 516 314.718 535 320.882 564 c 0
 327.046 593 308.147 617 278.147 617 c 0
 248.147 617 219.046 593 212.882 564 c 1
EndSplineSet
EndChar
StartChar: uni00B5
Encoding: 116 181 223
Width: 358
Flags: W
HStem: -3 30<128.962 250.039> 320 20G<128.27 158.27 344.27 374.27>
VStem: 34.1064 340.164<-103 340>
Fore
128.27 340 m 1
 158.27 340 l 1
 114.058 132 l 2
 101.517 73 132.739 27 183.739 27 c 0
 234.739 27 287.517 73 300.058 132 c 2
 344.27 340 l 1
 374.27 340 l 1
 330.058 132 l 2
 314.328 58 247.362 -3 178.362 -3 c 0
 140.362 -3 111.188 15 95.1396 43 c 1
 64.3193 -102 l 2
 60.0684 -122 61.0293 -141 65.6289 -157 c 1
 36.6523 -171 l 1
 29.9043 -151 28.793 -128 34.1064 -103 c 2
 128.27 340 l 1
EndSplineSet
EndChar
StartChar: uni00B9
Encoding: 120 185 224
Width: 263
Flags: W
HStem: 310 336<205.893 306.312>
VStem: 205.893 100.419<310 646>
Fore
205.893 310 m 1
 265.196 589 l 1
 219.457 562 l 1
 207.771 587 l 1
 306.312 646 l 1
 234.893 310 l 1
 205.893 310 l 1
EndSplineSet
EndChar
StartChar: uni0E01
Encoding: 209 3585 225
Width: 396
Flags: W
HStem: 0 21G<56 86 310 340> 375 30<212.085 348.709>
VStem: 56 338.414<0 256>
Fore
134.216 288 m 1
 183.414 256 l 1
 152.438 242 133.825 225 125.323 185 c 2
 86 0 l 1
 56 0 l 1
 95.3232 185 l 2
 101.487 214 127.014 240 148.989 254 c 1
 102.941 282 l 1
 144.709 375 227.085 405 277.085 405 c 0
 359.085 405 411.844 338 394.414 256 c 2
 340 0 l 1
 310 0 l 1
 364.414 256 l 2
 380.356 331 330.709 375 270.709 375 c 0
 222.709 375 164.97 348 134.216 288 c 1
EndSplineSet
EndChar
StartChar: uni0E02
Encoding: 210 3586 226
Width: 410
Flags: W
HStem: -5 30<124.513 296.113> 225 30<133.825 222.402> 370 30<216.022 253.646>
VStem: 86.6084 352.414<144 400>
Fore
199.646 370 m 1
 216.022 400 l 1
 290.022 400 l 1
 264.516 280 l 2
 258.139 250 227.825 225 197.825 225 c 2
 133.825 225 l 1
 116.608 144 l 2
 102.579 78 144.313 25 210.313 25 c 0
 276.313 25 340.579 78 354.608 144 c 2
 409.022 400 l 1
 439.022 400 l 1
 384.608 144 l 2
 367.179 62 285.938 -5 203.938 -5 c 0
 121.938 -5 69.1787 62 86.6084 144 c 2
 110.202 255 l 1
 204.202 255 l 2
 218.202 255 231.54 266 234.516 280 c 2
 253.646 370 l 1
 199.646 370 l 1
EndSplineSet
EndChar
StartChar: uni0E03
Encoding: 211 3587 227
Width: 410
Flags: W
HStem: -5 30<124.917 295.71> 225 30<133.825 222.143>
VStem: 86.6084 352.414<144 400>
Fore
146.28 378.869 m 1
 166.364 405.131 l 1
 180.737 396.139 199.337 376.898 210.413 352.165 c 1
 261.066 400 l 1
 290.022 400 l 1
 264.516 280 l 2
 258.062 249.634 228.185 225 197.825 225 c 2
 133.825 225 l 1
 116.608 144 l 2
 102.646 78.3105 144.624 25 210.313 25 c 0
 276.003 25 340.646 78.3096 354.608 144 c 2
 409.022 400 l 1
 439.022 400 l 1
 384.608 144 l 2
 367.126 61.7549 286.184 -5 203.938 -5 c 0
 121.692 -5 69.126 61.7539 86.6084 144 c 2
 110.202 255 l 1
 204.202 255 l 2
 218.003 255 231.584 266.206 234.516 280 c 2
 249.89 352.329 l 1
 192.412 298.05 l 1
 189.111 312.043 181.877 356.598 146.28 378.869 c 1
EndSplineSet
EndChar
StartChar: uni0E04
Encoding: 212 3588 228
Width: 410
Flags: W
HStem: 0 21G<56 86 324 354> 185 30<131.699 234.323> 375 30<198.909 370.509>
VStem: 56 352.414<0 256>
Fore
250.699 215 m 1
 234.323 185 l 1
 125.323 185 l 1
 86 0 l 1
 56 0 l 1
 110.414 256 l 2
 127.844 338 209.085 405 291.085 405 c 0
 373.085 405 425.844 338 408.414 256 c 2
 354 0 l 1
 324 0 l 1
 378.414 256 l 2
 392.443 322 350.709 375 284.709 375 c 0
 218.709 375 154.443 322 140.414 256 c 2
 131.699 215 l 1
 250.699 215 l 1
EndSplineSet
EndChar
StartChar: uni0E05
Encoding: 213 3589 229
Width: 410
Flags: W
HStem: 0 21G<56 86 324 354> 185 30<131.699 234.323> 312 30<257.194 293.338>
VStem: 56 355.815<0 272>
Fore
250.699 215 m 1
 234.323 185 l 1
 125.323 185 l 1
 86 0 l 1
 56 0 l 1
 113.815 272 l 2
 125.081 325 156.858 371 205.811 399 c 2
 219.511 407 l 1
 224.96 395 l 2
 244.245 354 261.694 342 276.694 342 c 0
 287.907 343 313.183 349 352.747 394 c 2
 363.298 406 l 1
 373.811 399 l 2
 412.283 373 421.656 323 411.815 272 c 2
 354 0 l 1
 324 0 l 1
 381.815 272 l 2
 390.105 311 383.119 344 361.583 365 c 1
 333.419 336 302.317 312 271.317 312 c 0
 240.317 312 219.419 336 203.583 365 c 1
 173.119 344 152.105 311 143.815 272 c 2
 131.699 215 l 1
 250.699 215 l 1
EndSplineSet
EndChar
StartChar: uni0E06
Encoding: 214 3590 230
Width: 410
Flags: W
HStem: -5 30<162.438 332.613> 225 30<133.825 218.003>
VStem: 56 383.022<0 400>
Fore
133.825 225 m 1
 125.535 186 l 2
 111.082 118 177.313 25 240.313 25 c 0
 311.313 25 342.918 89 354.608 144 c 2
 409.022 400 l 1
 439.022 400 l 1
 384.608 144 l 2
 367.391 63 317.938 -5 233.938 -5 c 0
 178.938 -5 131.841 51 109.807 112 c 1
 86 0 l 1
 56 0 l 1
 110.202 255 l 1
 204.202 255 l 2
 218.003 255 231.584 266.206 234.516 280 c 2
 249.89 352.329 l 1
 192.412 298.05 l 1
 189.111 312.043 181.877 356.598 146.28 378.869 c 1
 166.364 405.131 l 1
 180.737 396.139 199.337 376.898 210.413 352.165 c 1
 261.066 400 l 1
 290.022 400 l 1
 264.516 280 l 2
 258.062 249.634 228.185 225 197.825 225 c 2
 133.825 225 l 1
EndSplineSet
EndChar
StartChar: uni0E07
Encoding: 215 3591 231
Width: 410
Flags: W
HStem: -5 30<124.513 296.113> 370 30<283.646 369.446>
VStem: 86.6084 320.744<144 251>
Fore
147.642 290 m 1
 116.608 144 l 2
 102.579 78 144.313 25 210.313 25 c 0
 276.313 25 340.579 78 354.608 144 c 2
 377.352 251 l 2
 391.381 317 349.646 370 283.646 370 c 1
 290.022 400 l 1
 372.022 400 424.781 333 407.352 251 c 2
 384.608 144 l 2
 367.179 62 285.938 -5 203.938 -5 c 0
 121.938 -5 69.1787 62 86.6084 144 c 2
 115.516 280 l 1
 147.642 290 l 1
EndSplineSet
EndChar
StartChar: uni0E08
Encoding: 216 3592 232
Width: 380
Flags: W
HStem: 0 21G<294 324> 185 30<230.699 333.323> 375 30<168.909 340.509>
VStem: 80.4141 298<256 274.348 256 256>
Fore
214.323 185 m 1
 230.699 215 l 1
 339.699 215 l 1
 348.414 256 l 2
 362.443 322 320.709 375 254.709 375 c 0
 188.709 375 124.443 322 110.414 256 c 1
 80.4141 256 l 1
 97.8438 338 179.085 405 261.085 405 c 0
 343.085 405 395.844 338 378.414 256 c 2
 324 0 l 1
 294 0 l 1
 333.323 185 l 1
 214.323 185 l 1
EndSplineSet
EndChar
StartChar: uni0E09
Encoding: 217 3593 233
Width: 380
Flags: W
HStem: -3 30<99.639 224.262> 178 30<65.2119 84.835> 375 30<168.909 340.509>
VStem: 48.835 329.579<178 256>
Fore
294 0 m 1
 316.743 107 l 1
 272.203 48 208.362 -3 155.362 -3 c 0
 68.3623 -3 62.8789 70 78.0332 146 c 2
 84.835 178 l 1
 48.835 178 l 1
 65.2119 208 l 1
 121.212 208 l 1
 108.033 146 l 2
 89.4785 54 113.739 27 160.739 27 c 0
 225.739 27 319.507 120 333.535 186 c 2
 348.414 256 l 2
 362.443 322 320.709 375 254.709 375 c 0
 188.709 375 124.443 322 110.414 256 c 1
 80.4141 256 l 1
 97.8438 338 179.085 405 261.085 405 c 0
 343.085 405 395.844 338 378.414 256 c 2
 324 0 l 1
 294 0 l 1
EndSplineSet
EndChar
StartChar: uni0E0A
Encoding: 218 3594 234
Width: 410
Flags: W
HStem: -5 30<124.513 296.113> 225 30<133.825 222.402> 292 30<273.443 337.443> 370 30<216.022 253.646>
VStem: 86.6084 352.414<144 400>
Fore
86.6084 144 m 2
 110.202 255 l 1
 204.202 255 l 2
 218.202 255 231.54 266 234.516 280 c 2
 253.646 370 l 1
 199.646 370 l 1
 216.022 400 l 1
 290.022 400 l 1
 273.443 322 l 1
 337.443 322 l 2
 373.443 322 398.607 351 406.26 387 c 2
 409.022 400 l 1
 439.022 400 l 1
 436.26 387 l 2
 429.032 353 405.656 323 376.042 306 c 1
 398.429 289 409.052 259 401.825 225 c 2
 384.608 144 l 2
 367.179 62 285.938 -5 203.938 -5 c 0
 121.938 -5 69.1787 62 86.6084 144 c 2
331.066 292 m 2
 267.066 292 l 1
 264.516 280 l 2
 258.139 250 227.825 225 197.825 225 c 2
 133.825 225 l 1
 116.608 144 l 2
 102.579 78 144.313 25 210.313 25 c 0
 276.313 25 340.579 78 354.608 144 c 2
 371.825 225 l 2
 379.478 261 367.066 292 331.066 292 c 2
EndSplineSet
EndChar
StartChar: uni0E0B
Encoding: 219 3595 235
Width: 410
Flags: W
HStem: -5 30<124.513 296.113> 225 30<133.825 222.143> 292 30<273.443 337.443>
VStem: 86.6084 352.414<144 400>
Fore
273.443 322 m 1
 337.443 322 l 2
 373.443 322 398.607 351 406.26 387 c 2
 409.022 400 l 1
 439.022 400 l 1
 436.26 387 l 2
 429.032 353 405.656 323 376.042 306 c 1
 398.429 289 409.052 259 401.825 225 c 2
 384.608 144 l 2
 367.179 62 285.938 -5 203.938 -5 c 0
 121.938 -5 69.1787 62 86.6084 144 c 2
 110.202 255 l 1
 204.202 255 l 2
 218.003 255 231.584 266.206 234.516 280 c 2
 249.89 352.329 l 1
 192.412 298.05 l 1
 189.111 312.043 181.877 356.598 146.28 378.869 c 1
 166.364 405.131 l 1
 180.737 396.139 199.337 376.898 210.413 352.165 c 1
 261.066 400 l 1
 290.022 400 l 1
 273.443 322 l 1
133.825 225 m 1
 116.608 144 l 2
 102.579 78 144.313 25 210.313 25 c 0
 276.313 25 340.579 78 354.608 144 c 2
 371.825 225 l 2
 379.478 261 367.066 292 331.066 292 c 2
 267.066 292 l 1
 264.516 280 l 2
 258.062 249.634 228.185 225 197.825 225 c 2
 133.825 225 l 1
EndSplineSet
EndChar
StartChar: uni0E0C
Encoding: 220 3596 236
Width: 633
Flags: W
HStem: -6 30<399.125 534.202> 0 30<92.377 116> 375 30<212.085 348.709>
Fore
132.377 30 m 1x60
 116 0 l 1
 56 0 l 1x60
 95.3232 185 l 2
 101.487 214 127.014 240 148.989 254 c 1
 102.941 282 l 1
 144.709 375 227.085 405 277.085 405 c 0
 359.085 405 411.844 338 394.414 256 c 2
 379.323 185 l 2
 364.444 115 411.102 24 473.102 24 c 0
 520.102 24 558.053 52 577.396 143 c 2
 632.022 400 l 1
 662.022 400 l 1
 607.396 143 l 2
 584.439 35 531.725 -6 466.725 -6 c 0xa0
 414.725 -6 378.14 43 361.043 99 c 1
 340 0 l 1
 310 0 l 1
 364.414 256 l 2
 380.356 331 330.709 375 270.709 375 c 0
 222.709 375 164.97 348 134.216 288 c 1
 183.414 256 l 1
 152.438 242 133.825 225 125.323 185 c 2
 92.377 30 l 1
 132.377 30 l 1x60
EndSplineSet
EndChar
StartChar: uni0E0D
Encoding: 221 3597 237
Width: 633
Flags: W
HStem: -115 29<386.42 500.82> -5 30<376.213 499.838> 0 30<92.377 116> 375 30<212.085 348.709>
Fore
132.377 30 m 1xb0
 116 0 l 1
 56 0 l 1xb0
 95.3232 185 l 2
 101.487 214 127.014 240 148.989 254 c 1
 102.941 282 l 1
 144.709 375 227.085 405 277.085 405 c 0
 359.085 405 411.844 338 394.414 256 c 2
 370.608 144 l 2
 356.367 77 393.313 25 450.313 25 c 0
 507.313 25 565.367 77 579.608 144 c 2
 634.022 400 l 1
 662.022 400 l 1
 584.227 34 l 2
 567.01 -47 496.556 -115 420.556 -115 c 0
 377.556 -115 345.02 -94 328.034 -61 c 1
 357.223 -46 l 1
 370.908 -71 395.72 -86 426.72 -86 c 0
 483.72 -86 541.773 -34 556.015 33 c 2
 559.415 49 l 1
 528.401 16 486.938 -5 443.938 -5 c 0xd0
 367.938 -5 323.179 62 340.396 143 c 2
 364.414 256 l 2
 380.356 331 330.709 375 270.709 375 c 0
 222.709 375 164.97 348 134.216 288 c 1
 183.414 256 l 1
 152.438 242 133.825 225 125.323 185 c 2
 92.377 30 l 1
 132.377 30 l 1xb0
EndSplineSet
Substitution2: "Single Substitution lookup 8" uni0E0D.descless
EndChar
StartChar: uni0E0E
Encoding: 222 3598 238
Width: 396
Flags: W
HStem: -141 30<-9.59375 102.406 280.406 286.406> 0 30<37.377 62.377> 375 30<212.085 348.709>
VStem: -25.9707 420.385<-141 256>
Fore
21 0 m 1
 37.377 30 l 1
 62.377 30 l 1
 95.3232 185 l 2
 101.487 214 127.014 240 148.989 254 c 1
 102.941 282 l 1
 144.709 375 227.085 405 277.085 405 c 0
 359.085 405 411.844 338 394.414 256 c 2
 310.029 -141 l 1
 266.029 -141 l 1
 194.72 -86 l 1
 106.029 -141 l 1
 -25.9707 -141 l 1
 -9.59375 -111 l 1
 102.406 -111 l 1
 200.372 -50 l 1
 280.406 -111 l 1
 286.406 -111 l 1
 364.414 256 l 2
 380.356 331 330.709 375 270.709 375 c 0
 222.709 375 164.97 348 134.216 288 c 1
 183.414 256 l 1
 152.438 242 133.825 225 125.323 185 c 2
 86 0 l 1
 21 0 l 1
EndSplineSet
EndChar
StartChar: uni0E0F
Encoding: 223 3599 239
Width: 396
Flags: W
HStem: -141 30<-9.59375 33.4062 282.406 286.406> 0 30<37.377 62.377> 375 30<212.085 348.709>
VStem: -25.9707 420.385<-141 256>
Fore
33.4062 -111 m 1
 104.223 -46 l 1
 157.469 -106 l 1
 232.223 -46 l 1
 282.406 -111 l 1
 286.406 -111 l 1
 364.414 256 l 2
 380.356 331 330.709 375 270.709 375 c 0
 222.709 375 164.97 348 134.216 288 c 1
 183.414 256 l 1
 152.438 242 133.825 225 125.323 185 c 2
 86 0 l 1
 21 0 l 1
 37.377 30 l 1
 62.377 30 l 1
 95.3232 185 l 2
 101.487 214 127.014 240 148.989 254 c 1
 102.941 282 l 1
 144.709 375 227.085 405 277.085 405 c 0
 359.085 405 411.844 338 394.414 256 c 2
 310.029 -141 l 1
 264.029 -141 l 1
 223.295 -88 l 1
 150.967 -146 l 1
 99.2949 -88 l 1
 41.0293 -141 l 1
 -25.9707 -141 l 1
 -9.59375 -111 l 1
 33.4062 -111 l 1
EndSplineSet
EndChar
StartChar: uni0E10
Encoding: 224 3600 240
Width: 392
Flags: W
HStem: -141 30<-13.5938 29.4062 278.406 282.406> 0 21G<306 336> 185 30<242.699 345.323> 375 30<180.909 315.985>
VStem: -29.9707 439.892<-141 376>
Fore
282.406 -111 m 1
 294.734 -53 l 1
 271.734 -53 l 1
 288.111 -23 l 1
 331.111 -23 l 1
 306.029 -141 l 1
 260.029 -141 l 1
 219.295 -88 l 1
 146.967 -146 l 1
 95.2949 -88 l 1
 37.0293 -141 l 1
 -29.9707 -141 l 1
 -13.5938 -111 l 1
 29.4062 -111 l 1
 100.223 -46 l 1
 153.469 -106 l 1
 228.223 -46 l 1
 278.406 -111 l 1
 282.406 -111 l 1
351.699 215 m 1
 360.414 256 l 2
 374.443 322 332.709 375 266.709 375 c 0
 200.709 375 136.443 322 122.414 256 c 1
 92.4141 256 l 1
 109.844 338 191.085 405 273.085 405 c 0
 306.085 405 333.747 394 354.921 376 c 1
 398.235 401 l 1
 409.921 376 l 1
 373.458 355 l 1
 391.931 329 398.491 294 390.414 256 c 2
 336 0 l 1
 306 0 l 1
 345.323 185 l 1
 226.323 185 l 1
 242.699 215 l 1
 351.699 215 l 1
EndSplineSet
Substitution2: "Single Substitution lookup 8" uni0E10.descless
EndChar
StartChar: uni0E11
Encoding: 225 3601 241
Width: 410
Flags: W
HStem: 0 21G<56 86 324 354> 376 30<324.577 428.147>
VStem: 56 351.564<0 252>
Fore
56 0 m 1
 95.5352 186 l 2
 95.5439 186.039 136.104 232.181 187.981 282.191 c 1
 202.89 352.329 l 1
 145.413 298.051 l 1
 142.112 312.043 134.878 356.599 99.2803 378.869 c 1
 119.364 405.131 l 1
 133.737 396.139 152.337 376.898 163.412 352.165 c 1
 214.066 400 l 1
 243.022 400 l 1
 225.365 316.93 l 1
 278.288 364.135 335.359 406 371.298 406 c 0
 449.085 406 423.245 325.772 407.564 252 c 2
 354 0 l 1
 324 0 l 1
 377.564 252 l 2
 390.718 313.881 413.556 376 364.921 376 c 0
 323.395 376 197.354 259.965 123.51 176.471 c 1
 86 0 l 1
 56 0 l 1
EndSplineSet
EndChar
StartChar: uni0E12
Encoding: 226 3602 242
Width: 653
Flags: W
HStem: -5 30<90.213 244.913 419.338 554.413> 213 30<192.651 220.651> 311 30<258.181 311.481>
Fore
176.274 213 m 1
 192.651 243 l 1
 220.651 243 l 2
 285.651 243 305.897 183 292.72 121 c 0
 282.517 73 243.938 -5 157.938 -5 c 0
 80.9375 -5 59.7051 88 80.9609 188 c 0
 98.1777 269 150.096 358 224.298 406 c 1
 243.158 363 264.481 341 285.481 341 c 0
 305.481 341 333.945 362 372.085 405 c 1
 410.496 374 429.293 326 418.453 275 c 2
 399.535 186 l 2
 384.656 116 431.313 25 493.313 25 c 0
 540.313 25 578.266 53 597.608 144 c 2
 652.022 400 l 1
 682.022 400 l 1
 627.608 144 l 2
 604.652 36 551.938 -5 486.938 -5 c 0
 434.938 -5 398.353 44 381.256 100 c 1
 360 0 l 1
 330 0 l 1
 388.453 275 l 2
 395.893 310 389.481 341 369.158 363 c 1
 337.356 331 304.105 311 279.105 311 c 0
 252.105 311 228.144 330 210.158 363 c 1
 160.868 324 125.414 256 110.961 188 c 0
 93.1055 104 107.313 25 164.313 25 c 0
 226.313 25 255.067 85 262.72 121 c 0
 272.497 167 259.274 213 214.274 213 c 2
 176.274 213 l 1
EndSplineSet
EndChar
StartChar: uni0E13
Encoding: 227 3603 243
Width: 633
Flags: W
HStem: -6 30<362.002 485.325> 0 30<92.377 116> 375 30<212.085 348.709>
Fore
134.216 288 m 1xa0
 183.414 256 l 1
 152.438 242 133.825 225 125.323 185 c 2
 92.377 30 l 1
 132.377 30 l 1
 116 0 l 1
 56 0 l 1x60
 95.3232 185 l 2
 101.487 214 127.014 240 148.989 254 c 1
 102.941 282 l 1
 144.709 375 227.085 405 277.085 405 c 0
 359.085 405 411.844 338 394.414 256 c 2
 370.396 143 l 2
 351.053 52 376.102 24 423.102 24 c 0xa0
 485.102 24 571.444 115 586.323 185 c 2
 632.022 400 l 1
 662.022 400 l 1
 577 0 l 1
 547 0 l 1x60
 568.043 99 l 1
 527.14 43 469.725 -6 417.725 -6 c 0
 352.725 -6 317.439 35 340.396 143 c 2
 364.414 256 l 2
 380.356 331 330.709 375 270.709 375 c 0
 222.709 375 164.97 348 134.216 288 c 1xa0
EndSplineSet
EndChar
StartChar: uni0E14
Encoding: 228 3604 244
Width: 416
Flags: W
HStem: -5 30<91.513 231.913> 213 30<192.651 220.651> 375 30<163.909 374.509>
VStem: 80.9609 333.453<188 256>
Fore
176.274 213 m 1
 192.651 243 l 1
 220.651 243 l 2
 285.651 243 305.897 183 292.72 121 c 0
 278.266 53 229.938 -5 157.938 -5 c 0
 81.9375 -5 58.8545 84 80.9609 188 c 0
 102.642 290 179.085 405 295.085 405 c 0
 377.085 405 431.844 338 414.414 256 c 2
 360 0 l 1
 330 0 l 1
 384.414 256 l 2
 398.443 322 354.709 375 288.709 375 c 0
 192.709 375 129.666 276 110.961 188 c 0
 92.2559 100 108.313 25 164.313 25 c 0
 216.313 25 251.666 69 262.72 121 c 0
 272.497 167 259.274 213 214.274 213 c 2
 176.274 213 l 1
EndSplineSet
EndChar
StartChar: uni0E15
Encoding: 229 3605 245
Width: 416
Flags: W
HStem: -5 30<90.213 244.913> 213 30<192.651 220.651> 311 30<258.181 311.481>
VStem: 80.9609 337.492<188 275>
Fore
176.274 213 m 1
 192.651 243 l 1
 220.651 243 l 2
 285.651 243 305.897 183 292.72 121 c 0
 282.517 73 243.938 -5 157.938 -5 c 0
 80.9375 -5 59.7051 88 80.9609 188 c 0
 98.1777 269 150.096 358 224.298 406 c 1
 243.158 363 264.481 341 285.481 341 c 0
 305.481 341 333.945 362 372.085 405 c 1
 410.496 374 429.293 326 418.453 275 c 2
 360 0 l 1
 330 0 l 1
 388.453 275 l 2
 395.893 310 389.481 341 369.158 363 c 1
 337.356 331 304.105 311 279.105 311 c 0
 252.105 311 228.144 330 210.158 363 c 1
 160.868 324 125.414 256 110.961 188 c 0
 93.1055 104 107.313 25 164.313 25 c 0
 226.313 25 255.067 85 262.72 121 c 0
 272.497 167 259.274 213 214.274 213 c 2
 176.274 213 l 1
EndSplineSet
EndChar
StartChar: uni0E16
Encoding: 230 3606 246
Width: 396
Flags: W
HStem: 0 30<92.377 116> 375 30<212.085 348.709>
VStem: 56 338.414<0 256>
Fore
134.216 288 m 1
 183.414 256 l 1
 152.438 242 133.825 225 125.323 185 c 2
 92.377 30 l 1
 132.377 30 l 1
 116 0 l 1
 56 0 l 1
 95.3232 185 l 2
 101.487 214 127.014 240 148.989 254 c 1
 102.941 282 l 1
 144.709 375 227.085 405 277.085 405 c 0
 359.085 405 411.844 338 394.414 256 c 2
 340 0 l 1
 310 0 l 1
 364.414 256 l 2
 380.356 331 330.709 375 270.709 375 c 0
 222.709 375 164.97 348 134.216 288 c 1
EndSplineSet
EndChar
StartChar: uni0E17
Encoding: 231 3607 247
Width: 410
Flags: W
HStem: 0 21G<56 86 324 354> 375 30<249.585 407.009>
VStem: 56 352.414<0 256>
Fore
56 0 m 1
 141.022 400 l 1
 171.022 400 l 1
 147.216 288 l 1
 195.183 349 266.085 405 321.085 405 c 0
 405.085 405 425.632 337 408.414 256 c 2
 354 0 l 1
 324 0 l 1
 378.414 256 l 2
 390.105 311 385.709 375 314.709 375 c 0
 251.709 375 145.941 282 131.487 214 c 2
 86 0 l 1
 56 0 l 1
EndSplineSet
EndChar
StartChar: uni0E18
Encoding: 232 3608 248
Width: 410
Flags: W
HStem: 0 30<92.377 211.377> 185 30<131.699 363.323> 375 30<198.909 370.509>
VStem: 56 352.414<0 256>
Fore
56 0 m 1
 88.3086 152 l 1
 118.309 152 l 1
 92.377 30 l 1
 211.377 30 l 2
 277.377 30 341.643 83 355.671 149 c 2
 363.323 185 l 1
 95.3232 185 l 1
 110.414 256 l 2
 127.844 338 209.085 405 291.085 405 c 0
 373.085 405 425.844 338 408.414 256 c 1
 378.414 256 l 1
 392.443 322 350.709 375 284.709 375 c 0
 218.709 375 154.443 322 140.414 256 c 2
 131.699 215 l 1
 399.699 215 l 1
 385.671 149 l 2
 368.241 67 287 0 205 0 c 2
 56 0 l 1
EndSplineSet
EndChar
StartChar: uni0E19
Encoding: 233 3609 249
Width: 410
Flags: W
HStem: -3 30<88.439 244.562>
VStem: 87.0332 351.989<146 400>
Fore
141.022 400 m 1
 171.022 400 l 1
 117.033 146 l 2
 105.343 91 109.739 27 180.739 27 c 0
 245.739 27 349.507 120 363.535 186 c 2
 409.022 400 l 1
 439.022 400 l 1
 354 0 l 1
 324 0 l 1
 347.807 112 l 1
 299.841 51 228.362 -3 174.362 -3 c 0
 90.3623 -3 69.8164 65 87.0332 146 c 2
 141.022 400 l 1
EndSplineSet
EndChar
StartChar: uni0E1A
Encoding: 234 3610 250
Width: 410
Flags: W
HStem: -5 30<124.513 296.113>
VStem: 86.6084 352.414<144 400>
Fore
141.022 400 m 1
 171.022 400 l 1
 116.608 144 l 2
 102.579 78 144.313 25 210.313 25 c 0
 276.313 25 340.579 78 354.608 144 c 1
 409.022 400 l 1
 439.022 400 l 1
 384.608 144 l 2
 367.179 62 285.938 -5 203.938 -5 c 0
 121.938 -5 69.1787 62 86.6084 144 c 2
 141.022 400 l 1
EndSplineSet
EndChar
StartChar: uni0E1B
Encoding: 235 3611 251
Width: 410
Flags: W
HStem: -5 30<124.513 296.113> 480 20G<430.278 460.278>
VStem: 86.6084 373.67<144 500>
Fore
141.022 400 m 1
 171.022 400 l 1
 116.608 144 l 2
 102.579 78 144.313 25 210.313 25 c 0
 276.313 25 340.579 78 354.608 144 c 2
 430.278 500 l 1
 460.278 500 l 1
 384.608 144 l 2
 367.179 62 285.938 -5 203.938 -5 c 0
 121.938 -5 69.1787 62 86.6084 144 c 2
 141.022 400 l 1
EndSplineSet
EndChar
StartChar: uni0E1C
Encoding: 236 3612 252
Width: 440
Flags: W
HStem: -5 30<91.713 181.538 250.338 356.938> 371 30<165.258 226.235>
VStem: 83.0859 385.936<198 400>
Fore
288.022 400 m 1
 317.022 400 l 1
 256.231 114 l 2
 247.304 72 249.313 25 298.313 25 c 0
 347.313 25 369.304 72 378.231 114 c 2
 439.022 400 l 1
 469.022 400 l 1
 408.231 114 l 2
 390.589 31 341.938 -5 291.938 -5 c 0
 259.938 -5 237.251 20 228.053 52 c 1
 205.251 20 171.938 -5 139.938 -5 c 0
 79.9375 -5 57.3672 77 83.0859 198 c 0
 108.593 318 166.235 401 226.235 401 c 1
 219.858 371 l 1
 177.858 371 132.854 291 113.086 198 c 0
 93.3184 105 104.313 25 146.313 25 c 0
 200.313 25 221.28 86 227.231 114 c 2
 288.022 400 l 1
EndSplineSet
EndChar
StartChar: uni0E1D
Encoding: 237 3613 253
Width: 440
Flags: W
HStem: -5 30<91.713 181.538 250.338 356.938> 371 30<165.258 226.235> 480 20G<460.278 490.278>
VStem: 83.0859 407.192<198 500>
Fore
288.022 400 m 1
 317.022 400 l 1
 256.231 114 l 2
 247.304 72 249.313 25 298.313 25 c 0
 347.313 25 369.304 72 378.231 114 c 2
 460.278 500 l 1
 490.278 500 l 1
 408.231 114 l 2
 390.589 31 341.938 -5 291.938 -5 c 0
 259.938 -5 237.251 20 228.053 52 c 1
 205.251 20 171.938 -5 139.938 -5 c 0
 79.9375 -5 57.3672 77 83.0859 198 c 0
 108.593 318 166.235 401 226.235 401 c 1
 219.858 371 l 1
 177.858 371 132.854 291 113.086 198 c 0
 93.3184 105 104.313 25 146.313 25 c 0
 200.313 25 221.28 86 227.231 114 c 2
 288.022 400 l 1
EndSplineSet
EndChar
StartChar: uni0E1E
Encoding: 238 3614 254
Width: 458
Flags: W
HStem: -5 30<88.013 191.838 264.038 374.538>
VStem: 80.2314 406.791<114 400>
Fore
141.022 400 m 1
 171.022 400 l 1
 110.231 114 l 2
 101.304 72 103.313 25 154.313 25 c 0
 209.313 25 231.43 82 238.231 114 c 2
 299.022 400 l 1
 329.022 400 l 1
 268.231 114 l 2
 259.304 72 262.313 25 313.313 25 c 0
 364.313 25 387.304 72 396.231 114 c 2
 457.022 400 l 1
 487.022 400 l 1
 426.231 114 l 2
 408.589 31 358.938 -5 306.938 -5 c 0
 273.938 -5 250.251 20 240.266 53 c 1
 216.251 20 181.938 -5 148.938 -5 c 0
 96.9375 -5 62.5889 31 80.2314 114 c 2
 141.022 400 l 1
EndSplineSet
EndChar
StartChar: uni0E1F
Encoding: 239 3615 255
Width: 458
Flags: W
HStem: -5 30<88.013 191.838 264.038 374.538> 480 20G<478.278 508.278>
VStem: 80.2314 428.047<114 500>
Fore
141.022 400 m 1
 171.022 400 l 1
 110.231 114 l 2
 101.304 72 103.313 25 154.313 25 c 0
 209.313 25 231.43 82 238.231 114 c 2
 299.022 400 l 1
 329.022 400 l 1
 268.231 114 l 2
 259.304 72 262.313 25 313.313 25 c 0
 364.313 25 387.304 72 396.231 114 c 2
 478.278 500 l 1
 508.278 500 l 1
 426.231 114 l 2
 408.589 31 358.938 -5 306.938 -5 c 0
 273.938 -5 250.251 20 240.266 53 c 1
 216.251 20 181.938 -5 148.938 -5 c 0
 96.9375 -5 62.5889 31 80.2314 114 c 2
 141.022 400 l 1
EndSplineSet
EndChar
StartChar: uni0E20
Encoding: 240 3616 256
Width: 396
Flags: W
HStem: 0 30<37.377 62.377> 375 30<212.085 348.709>
VStem: 21 373.414<0 256>
Fore
134.216 288 m 1
 183.414 256 l 1
 152.438 242 133.825 225 125.323 185 c 2
 86 0 l 1
 21 0 l 1
 37.377 30 l 1
 62.377 30 l 1
 95.3232 185 l 2
 101.487 214 127.014 240 148.989 254 c 1
 102.941 282 l 1
 144.709 375 227.085 405 277.085 405 c 0
 359.085 405 411.844 338 394.414 256 c 2
 340 0 l 1
 310 0 l 1
 364.414 256 l 2
 380.356 331 330.709 375 270.709 375 c 0
 222.709 375 164.97 348 134.216 288 c 1
EndSplineSet
EndChar
StartChar: uni0E21
Encoding: 241 3617 257
Width: 410
Flags: W
HStem: -5 30<162.438 332.613>
VStem: 56 383.022<0 400>
Fore
141.022 400 m 1
 171.022 400 l 1
 125.535 186 l 2
 111.082 118 177.313 25 240.313 25 c 0
 311.313 25 342.918 89 354.608 144 c 2
 409.022 400 l 1
 439.022 400 l 1
 384.608 144 l 2
 367.391 63 317.938 -5 233.938 -5 c 0
 178.938 -5 131.841 51 109.807 112 c 1
 86 0 l 1
 56 0 l 1
 141.022 400 l 1
EndSplineSet
EndChar
StartChar: uni0E22
Encoding: 242 3618 258
Width: 400
Flags: W
HStem: -5 30<112.913 287.113> 237 26<132.902 151.522 158.276 245.376> 371 30<194.558 280.235>
VStem: 69.4824 359.54<134 400>
Fore
400.022 400 m 1
 429.022 400 l 1
 372.482 134 l 2
 354.841 51 274.938 -5 193.938 -5 c 0
 112.938 -5 51.2031 48 69.4824 134 c 0
 80.5352 186 124.825 225 164.376 237 c 1
 96.376 237 l 1
 99.5645 252 l 2
 116.994 334 198.235 401 280.235 401 c 1
 273.858 371 l 1
 212.858 371 153.293 326 133.753 267 c 2
 132.902 263 l 1
 260.902 263 l 1
 245.376 237 l 1
 178.376 237 113.661 196 100.482 134 c 0
 86.666 69 133.313 25 201.313 25 c 0
 267.313 25 329.666 69 343.482 134 c 2
 400.022 400 l 1
EndSplineSet
EndChar
StartChar: uni0E23
Encoding: 243 3619 259
Width: 410
Flags: W
HStem: -5 30<203.938 296.113> 185 30<131.699 363.323> 375 30<198.909 370.509>
VStem: 95.3232 313.091<185 256>
CounterMasks: 1 00
Fore
399.699 215 m 1
 384.608 144 l 2
 367.179 62 285.938 -5 203.938 -5 c 1
 210.313 25 l 1
 276.313 25 340.579 78 354.608 144 c 2
 363.323 185 l 1
 95.3232 185 l 1
 110.414 256 l 2
 127.844 338 209.085 405 291.085 405 c 0
 373.085 405 425.844 338 408.414 256 c 1
 378.414 256 l 1
 392.443 322 350.709 375 284.709 375 c 0
 218.709 375 154.443 322 140.414 256 c 2
 131.699 215 l 1
 399.699 215 l 1
EndSplineSet
EndChar
StartChar: uni0E24
Encoding: 244 3620 260
Width: 396
Flags: W
HStem: 0 30<92.377 116> 375 30<212.085 348.709>
VStem: 56 338.414<0 256>
Fore
134.216 288 m 1
 183.414 256 l 1
 152.438 242 133.825 225 125.323 185 c 2
 92.377 30 l 1
 132.377 30 l 1
 116 0 l 1
 56 0 l 1
 95.3232 185 l 2
 101.487 214 127.014 240 148.989 254 c 1
 102.941 282 l 1
 144.709 375 227.085 405 277.085 405 c 0
 359.085 405 411.844 338 394.414 256 c 2
 307.691 -152 l 1
 277.691 -152 l 1
 364.414 256 l 2
 380.356 331 330.709 375 270.709 375 c 0
 222.709 375 164.97 348 134.216 288 c 1
EndSplineSet
EndChar
StartChar: uni0E25
Encoding: 245 3621 261
Width: 410
Flags: W
HStem: -5 30<124.513 210.313> 185 30<125.323 363.323> 375 30<198.909 370.509>
VStem: 86.6084 321.806<144 256>
CounterMasks: 1 00
Fore
324 0 m 1
 363.323 185 l 1
 125.323 185 l 1
 116.608 144 l 2
 102.579 78 144.313 25 210.313 25 c 1
 203.938 -5 l 1
 121.938 -5 69.1787 62 86.6084 144 c 2
 101.699 215 l 1
 369.699 215 l 1
 378.414 256 l 2
 392.443 322 350.709 375 284.709 375 c 0
 218.709 375 154.443 322 140.414 256 c 1
 110.414 256 l 1
 127.844 338 209.085 405 291.085 405 c 0
 373.085 405 425.844 338 408.414 256 c 2
 354 0 l 1
 324 0 l 1
EndSplineSet
EndChar
StartChar: uni0E26
Encoding: 246 3622 262
Width: 396
Flags: W
HStem: 0 30<37.377 62.377> 375 30<212.085 348.709>
VStem: 21 373.414<0 256>
Fore
134.216 288 m 1
 183.414 256 l 1
 152.438 242 133.825 225 125.323 185 c 2
 86 0 l 1
 21 0 l 1
 37.377 30 l 1
 62.377 30 l 1
 95.3232 185 l 2
 101.487 214 127.014 240 148.989 254 c 1
 102.941 282 l 1
 144.709 375 227.085 405 277.085 405 c 0
 359.085 405 411.844 338 394.414 256 c 2
 307.691 -152 l 1
 277.691 -152 l 1
 364.414 256 l 2
 380.356 331 330.709 375 270.709 375 c 0
 222.709 375 164.97 348 134.216 288 c 1
EndSplineSet
EndChar
StartChar: uni0E27
Encoding: 247 3623 263
Width: 407
Flags: W
HStem: -5 30<136.013 298.513> 375 30<207.809 372.909>
VStem: 64.8066 31.5508<30.7409 119.835>
Fore
64.8066 112 m 1
 96.3574 124 l 1
 104.903 56 151.313 25 202.313 25 c 0
 276.313 25 357.681 102 378.724 201 c 0
 399.767 300 350.709 375 276.709 375 c 0
 223.709 375 167.419 336 131.878 277 c 1
 106.216 288 l 1
 146.67 356 214.085 405 283.085 405 c 0
 378.085 405 432.105 311 408.512 200 c 0
 384.918 89 290.938 -5 195.938 -5 c 0
 125.938 -5 74.29 39 64.8066 112 c 1
EndSplineSet
EndChar
StartChar: uni0E28
Encoding: 248 3624 264
Width: 410
Flags: W
HStem: 0 21G<56 86 324 354> 185 30<131.699 234.323> 376 30<199.121 336.798>
VStem: 56 379.621<0 384>
Fore
324 0 m 1
 378.414 256 l 2
 392.443 322 350.921 376 284.921 376 c 0
 218.921 376 154.443 322 140.414 256 c 2
 131.699 215 l 1
 250.699 215 l 1
 234.323 185 l 1
 125.323 185 l 1
 86 0 l 1
 56 0 l 1
 110.627 257 l 2
 128.057 339 209.298 406 291.298 406 c 0
 326.298 406 355.747 394 376.496 374 c 1
 419.084 405 l 1
 435.621 384 l 1
 394.032 353 l 1
 410.506 327 416.279 293 408.414 256 c 2
 354 0 l 1
 324 0 l 1
EndSplineSet
EndChar
StartChar: uni0E29
Encoding: 249 3625 265
Width: 409
Flags: W
HStem: -5 30<123.513 295.113> 224 30<270.989 370.612 406.989 425.612>
VStem: 86.6084 355.381<144 254>
Fore
141.022 400 m 1
 171.022 400 l 1
 116.608 144 l 2
 102.579 78 143.313 25 209.313 25 c 0
 275.313 25 339.579 78 353.608 144 c 2
 370.612 224 l 1
 234.612 224 l 1
 244.603 271 l 1
 276.729 281 l 1
 270.989 254 l 1
 376.989 254 l 1
 408.022 400 l 1
 438.022 400 l 1
 406.989 254 l 1
 441.989 254 l 1
 425.612 224 l 1
 401.612 224 l 1
 384.608 144 l 2
 367.179 62 285.938 -5 203.938 -5 c 0
 121.938 -5 69.1787 62 86.6084 144 c 2
 141.022 400 l 1
EndSplineSet
EndChar
StartChar: uni0E2A
Encoding: 250 3626 266
Width: 410
Flags: W
HStem: -5 30<124.513 210.313> 185 30<125.323 363.323> 375 31<198.909 336.798>
VStem: 86.6084 349.013<144 384>
Fore
140.627 257 m 1
 110.627 257 l 1
 128.057 339 209.298 406 291.298 406 c 0
 326.298 406 355.747 394 376.496 374 c 1
 419.084 405 l 1
 435.621 384 l 1
 394.032 353 l 1
 410.506 327 416.279 293 408.414 256 c 2
 354 0 l 1
 324 0 l 1
 363.323 185 l 1
 125.323 185 l 1
 116.608 144 l 2
 102.579 78 144.313 25 210.313 25 c 1
 203.938 -5 l 1
 121.938 -5 69.1787 62 86.6084 144 c 2
 101.699 215 l 1
 369.699 215 l 1
 378.414 256 l 2
 392.443 322 350.709 375 284.709 375 c 0
 218.709 375 154.656 323 140.627 257 c 1
EndSplineSet
EndChar
StartChar: uni0E2B
Encoding: 251 3627 267
Width: 410
Flags: W
HStem: 0 21G<56 86 324 354> 318 23<301.593 391.293>
VStem: 56 376.047<0 386>
Fore
141.022 400 m 1
 171.022 400 l 1
 131.699 215 l 1
 189.404 303 327.26 387 392.235 401 c 1
 432.047 386 l 1
 391.559 379 349.521 360 319.481 341 c 1
 390.481 341 410.965 268 394.811 192 c 2
 354 0 l 1
 324 0 l 1
 364.811 192 l 2
 376.502 247 370.593 318 301.593 318 c 0
 249.593 318 128.874 197 114.058 132 c 2
 86 0 l 1
 56 0 l 1
 141.022 400 l 1
EndSplineSet
EndChar
StartChar: uni0E2C
Encoding: 252 3628 268
Width: 458
Flags: W
HStem: -5 30<89.013 191.838 264.038 374.538> 370 30<360.022 442.446>
VStem: 80.2314 421.67<114 470>
Fore
238.231 114 m 2
 299.022 400 l 1
 329.022 400 l 1
 268.231 114 l 2
 259.304 72 262.313 25 313.313 25 c 0
 364.313 25 387.304 72 396.231 114 c 2
 436.83 305 l 2
 444.481 341 431.646 370 395.646 370 c 2
 353.646 370 l 1
 360.022 400 l 1
 402.022 400 l 2
 438.022 400 463.187 429 470.839 465 c 2
 471.901 470 l 1
 501.901 470 l 1
 500.839 465 l 2
 493.612 431 470.235 401 440.622 384 c 1
 463.008 367 473.632 337 466.404 303 c 2
 426.231 114 l 2
 408.589 31 358.938 -5 306.938 -5 c 0
 273.938 -5 248.126 10 238.14 43 c 1
 214.126 10 181.938 -5 148.938 -5 c 0
 96.9375 -5 62.5889 31 80.2314 114 c 2
 141.022 400 l 1
 171.022 400 l 1
 110.231 114 l 2
 101.304 72 104.313 25 155.313 25 c 0
 210.313 25 231.43 82 238.231 114 c 2
EndSplineSet
EndChar
StartChar: uni0E2D
Encoding: 253 3629 269
Width: 446
Flags: W
HStem: -4 30<126.126 334.126> 185 30<110.323 251.323> 374 30<214.096 409.096>
VStem: 83.5117 364<181.652 214.118 200 200>
CounterMasks: 1 00
Fore
268.699 215 m 1
 251.323 185 l 1
 110.323 185 l 1
 98.1934 95 149.526 26 227.526 26 c 0
 309.526 26 394.894 103 415.512 200 c 0
 436.129 297 384.496 374 302.496 374 c 0
 234.496 374 167.568 332 133.689 262 c 1
 106.391 270 l 1
 147.245 354 227.873 404 308.873 404 c 0
 410.873 404 471.105 311 447.512 200 c 0
 423.918 89 324.149 -4 222.149 -4 c 0
 120.149 -4 59.918 89 83.5117 200 c 2
 86.6992 215 l 1
 268.699 215 l 1
EndSplineSet
EndChar
StartChar: uni0E2E
Encoding: 254 3630 270
Width: 446
Flags: W
HStem: -4 30<126.126 334.126> 185 30<110.323 251.323> 374 30<214.096 355.673>
VStem: 83.5117 373.472<200 381>
CounterMasks: 1 00
Fore
268.699 215 m 1
 251.323 185 l 1
 110.323 185 l 1
 98.1934 95 149.526 26 227.526 26 c 0
 309.526 26 394.894 103 415.512 200 c 0
 436.129 297 384.496 374 302.496 374 c 0
 234.496 374 167.568 332 133.689 262 c 1
 106.391 270 l 1
 147.245 354 227.873 404 308.873 404 c 0
 344.873 404 375.322 392 399.283 373 c 1
 439.235 401 l 1
 456.984 381 l 1
 418.032 353 l 1
 448.168 316 460.265 260 447.512 200 c 0
 423.918 89 324.149 -4 222.149 -4 c 0
 120.149 -4 59.918 89 83.5117 200 c 2
 86.6992 215 l 1
 268.699 215 l 1
EndSplineSet
EndChar
StartChar: uni0E2F
Encoding: 255 3631 271
Width: 378
Flags: W
HStem: 0 21G<292 322> 257 30<166.688 283.227> 376 30<163.221 220.298>
VStem: 110.293 296.729<326 400>
Fore
292 0 m 1
 365.119 344 l 1
 328.255 307 261.627 257 189.627 257 c 0
 145.627 257 100.729 281 110.293 326 c 0
 119.221 368 170.298 406 220.298 406 c 1
 213.921 376 l 1
 174.921 376 143.757 347 139.293 326 c 0
 132.704 295 178.004 287 195.004 287 c 0
 281.004 287 366.347 378 377.022 400 c 1
 407.022 400 l 1
 322 0 l 1
 292 0 l 1
EndSplineSet
EndChar
StartChar: uni0E30
Encoding: 256 3632 272
Width: 203
Flags: W
HStem: 40 30<100.879 173.502> 291 30<154.23 226.854>
VStem: 64.502 178.728<40 321>
Fore
154.23 321 m 1
 243.23 321 l 1
 226.854 291 l 1
 117.854 291 l 1
 130.395 350 l 1
 162.521 360 l 1
 154.23 321 l 1
100.879 70 m 1
 189.879 70 l 1
 173.502 40 l 1
 64.502 40 l 1
 77.043 99 l 1
 109.169 109 l 1
 100.879 70 l 1
EndSplineSet
EndChar
StartChar: uni0E31
Encoding: 257 3633 273
Width: 0
Flags: W
HStem: 452 30<-52.5479 170.075>
VStem: -88.9248 285.377<452 482>
Fore
-52.5479 482 m 1
 196.452 482 l 1
 170.075 452 l 1
 -88.9248 452 l 1
 -76.3838 511 l 1
 -44.2578 521 l 1
 -52.5479 482 l 1
EndSplineSet
EndChar
StartChar: uni0E32
Encoding: 258 3634 274
Width: 296
Flags: W
HStem: 0 21G<210 240> 375 30<171.985 293.009>
VStem: 112.844 181.57<256 338>
Fore
210 0 m 1
 264.414 256 l 2
 276.105 311 271.709 375 200.709 375 c 0
 175.709 375 143.521 360 112.844 338 c 1
 120.071 372 l 1
 149.322 392 180.085 405 207.085 405 c 0
 291.085 405 311.632 337 294.414 256 c 2
 240 0 l 1
 210 0 l 1
EndSplineSet
EndChar
StartChar: uni0E33
Encoding: 259 3635 275
Width: 296
Flags: W
HStem: 0 21G<210 240> 375 30<171.985 293.009> 441 23<18.726 52.526> 510 23<28.5043 62.3043>
VStem: -5.48535 299.899<256 487>
Fore
210 0 m 1
 264.414 256 l 2
 276.105 311 271.709 375 200.709 375 c 0
 175.709 375 143.521 360 112.844 338 c 1
 120.071 372 l 1
 149.322 392 180.085 405 207.085 405 c 0
 291.085 405 311.632 337 294.414 256 c 2
 240 0 l 1
 210 0 l 1
50.293 533 m 0
 75.293 533 91.8291 512 86.5146 487 c 0
 81.2012 462 55.7373 441 30.7373 441 c 0
 5.7373 441 -10.7988 462 -5.48535 487 c 0
 -0.170898 512 25.293 533 50.293 533 c 0
17.5146 487 m 0
 14.752 474 22.626 464 35.626 464 c 0
 48.626 464 60.752 474 63.5146 487 c 0
 66.2783 500 58.4043 510 45.4043 510 c 0
 32.4043 510 20.2783 500 17.5146 487 c 0
EndSplineSet
MultipleSubs2: "Multiple Substitution lookup 7" uni0E4D uni0E32
Substitution2: "Single Substitution lookup 6" uni0E32
LCarets2: 1 0 
EndChar
StartChar: uni0E34
Encoding: 260 3636 276
Width: 0
Flags: W
HStem: 452 30<-215.548 40.0752>
VStem: -241.925 288.377<452 482>
Fore
46.4521 482 m 1
 40.0752 452 l 1
 -241.925 452 l 1
 -215.548 482 l 1
 46.4521 482 l 1
EndSplineSet
LCarets2: 1 0 
EndChar
StartChar: uni0E35
Encoding: 261 3637 277
Width: 0
Flags: W
HStem: 452 30<-215.548 16.4521>
VStem: -241.925 296.667<452 521>
Fore
16.4521 482 m 1
 24.7422 521 l 1
 54.7422 521 l 1
 40.0752 452 l 1
 -241.925 452 l 1
 -215.548 482 l 1
 16.4521 482 l 1
EndSplineSet
LCarets2: 1 0 
EndChar
StartChar: uni0E36
Encoding: 262 3638 278
Width: 0
Flags: W
HStem: 452 30<-215.548 -12.5479> 452 23<12.0648 45.8648> 521 23<21.8422 55.6422>
VStem: -241.925 321.779<452 498>
Fore
43.6309 544 m 0xb0
 68.6309 544 85.167 523 79.8535 498 c 0
 74.5391 473 49.0752 452 24.0752 452 c 2
 -241.925 452 l 1x70
 -215.548 482 l 1
 -12.5479 482 l 1
 -13.4854 487 -13.4219 492 -12.1465 498 c 0
 -6.83301 523 18.6309 544 43.6309 544 c 0xb0
10.8535 498 m 0
 8.08984 485 15.9648 475 28.9648 475 c 0
 41.9648 475 54.0898 485 56.8535 498 c 0
 59.6162 511 51.7422 521 38.7422 521 c 0
 25.7422 521 13.6162 511 10.8535 498 c 0
EndSplineSet
EndChar
StartChar: uni0E37
Encoding: 263 3639 279
Width: 0
Flags: W
HStem: 452 69<-40.2578 -18.5479 24.7422 40.0752> 452 30<-215.548 -48.5479 -18.5479 16.4521>
VStem: -241.925 296.667<452 521>
Fore
16.4521 482 m 1x60
 24.7422 521 l 1
 54.7422 521 l 1
 40.0752 452 l 1xa0
 -241.925 452 l 1
 -215.548 482 l 1
 -48.5479 482 l 1x60
 -40.2578 521 l 1
 -10.2578 521 l 1xa0
 -18.5479 482 l 1
 16.4521 482 l 1x60
EndSplineSet
EndChar
StartChar: uni0E38
Encoding: 264 3640 280
Width: 0
Flags: W
HStem: -72 30<-120.928 -101.304>
VStem: -137.304 72.3763<-72 -42>
Fore
-120.928 -42 m 1
 -64.9277 -42 l 1
 -89.7969 -159 l 1
 -119.797 -159 l 1
 -101.304 -72 l 1
 -137.304 -72 l 1
 -120.928 -42 l 1
EndSplineSet
EndChar
StartChar: uni0E39
Encoding: 265 3641 281
Width: 0
Flags: W
HStem: -164 30<-198.582 -128.382>
VStem: -256.304 191.376<-72 -42>
Fore
-239.928 -42 m 1
 -192.928 -42 l 1
 -202.067 -85 l 2
 -207.807 -112 -190.482 -134 -163.482 -134 c 0
 -136.482 -134 -109.807 -112 -104.067 -85 c 2
 -94.9277 -42 l 1
 -64.9277 -42 l 1
 -74.0674 -85 l 2
 -83.4199 -129 -125.859 -164 -169.859 -164 c 0
 -213.859 -164 -241.42 -129 -232.067 -85 c 2
 -229.304 -72 l 1
 -256.304 -72 l 1
 -239.928 -42 l 1
EndSplineSet
EndChar
StartChar: uni0E3A
Encoding: 266 3642 282
Width: 0
Flags: W
HStem: -86 50<-96.8523 -71.0803>
VStem: -108.966 50.0002<-79.2 -42.8 -61 -61>
Fore
-108.966 -61 m 0
 -105.99 -47 -92.6523 -36 -78.6523 -36 c 0
 -64.6523 -36 -55.9902 -47 -58.9658 -61 c 0
 -61.9414 -75 -75.2803 -86 -89.2803 -86 c 0
 -103.28 -86 -111.941 -75 -108.966 -61 c 0
EndSplineSet
EndChar
StartChar: uni0E3F
Encoding: 267 3647 283
Width: 409
Flags: W
HStem: 0 30<84.377 155 192.377 325.577> 266 30<140.917 212.54 248.917 280.917> 470 30<177.901 255.901 292.278 324.278>
VStem: 48 378.771<0 380>
Fore
292.278 500 m 1
 324.278 500 l 2
 394.278 500 440.8 446 426.771 380 c 0
 417.844 338 386.192 302 345.729 281 c 1
 398.052 259 427.212 208 414.246 147 c 0
 396.816 65 310 0 222 0 c 2
 185 0 l 1
 174.372 -50 l 1
 144.372 -50 l 1
 155 0 l 1
 48 0 l 1
 154.278 500 l 1
 262.278 500 l 1
 272.906 550 l 1
 302.906 550 l 1
 292.278 500 l 1
285.901 470 m 1
 248.917 296 l 1
 280.917 296 l 2
 336.917 296 387.994 334 397.984 381 c 0
 407.975 428 373.901 470 317.901 470 c 2
 285.901 470 l 1
192.377 30 m 1
 229.377 30 l 2
 303.377 30 372.067 85 385.458 148 c 0
 398.85 211 353.54 266 279.54 266 c 2
 242.54 266 l 1
 192.377 30 l 1
218.917 296 m 1
 255.901 470 l 1
 177.901 470 l 1
 140.917 296 l 1
 218.917 296 l 1
162.377 30 m 1
 212.54 266 l 1
 134.54 266 l 1
 84.377 30 l 1
 162.377 30 l 1
EndSplineSet
EndChar
StartChar: uni0E40
Encoding: 268 3648 284
Width: 142
Flags: W
HStem: 0 400<86 141.022>
VStem: 56 115.022<0 400>
Fore
86 0 m 1
 56 0 l 1
 141.022 400 l 1
 171.022 400 l 1
 86 0 l 1
EndSplineSet
EndChar
StartChar: uni0E41
Encoding: 269 3649 285
Width: 232
Flags: W
HStem: 0 400<86 141.022>
VStem: 56 205.022<0 400>
Fore
86 0 m 1
 56 0 l 1
 141.022 400 l 1
 171.022 400 l 1
 86 0 l 1
176 0 m 1
 146 0 l 1
 231.022 400 l 1
 261.022 400 l 1
 176 0 l 1
EndSplineSet
EndChar
StartChar: uni0E42
Encoding: 270 3650 286
Width: 142
Flags: W
HStem: 0 30<92.377 112> 561 30<155.244 313.244>
VStem: 56 273.621<0 591>
Fore
56 0 m 1
 149.95 442 l 2
 161.641 497 157.244 561 86.2441 561 c 5
 102.621 591 l 1
 329.621 591 l 1
 313.244 561 l 1
 155.244 561 l 1
 182.355 538 190.152 490 179.95 442 c 2
 92.377 30 l 1
 128.377 30 l 1
 112 0 l 1
 56 0 l 1
EndSplineSet
EndChar
StartChar: uni0E43
Encoding: 271 3651 287
Width: 159
Flags: W
HStem: 0 30<109.377 125> 565 31<142.095 224.595>
VStem: 73 187.892<0 517>
Fore
73 0 m 1
 158.873 404 l 2
 174.602 478 224.09 485 230.679 516 c 0
 234.931 536 214.095 565 179.095 565 c 2
 178.095 565 l 2
 142.095 565 110.355 538 106.679 516 c 1
 76.6787 516 l 1
 84.1816 556 134.471 595 183.684 596 c 2
 184.684 596 l 2
 234.684 596 268.969 555 260.892 517 c 0
 250.477 468 202.477 468 189.085 405 c 2
 109.377 30 l 1
 141.377 30 l 1
 125 0 l 1
 73 0 l 1
EndSplineSet
EndChar
StartChar: uni0E44
Encoding: 272 3652 288
Width: 147
Flags: W
HStem: 0 30<97.377 115> 562 30<173.457 230.457>
VStem: 61 213.833<0 592>
Fore
61 0 m 1
 157.288 453 l 2
 167.703 502 201.931 536 230.457 562 c 1
 173.457 562 l 1
 127.042 513 l 1
 86.0312 560 l 1
 94.7461 601 l 1
 135.182 556 l 1
 166.833 592 l 1
 274.833 592 l 1
 269.095 565 l 1
 236.206 542 199.191 509 187.075 452 c 2
 97.377 30 l 1
 131.377 30 l 1
 115 0 l 1
 61 0 l 1
EndSplineSet
EndChar
StartChar: uni0E45
Encoding: 273 3653 289
Width: 296
Flags: W
HStem: 375 30<171.985 293.009>
VStem: 112.844 181.57<256 338>
Fore
177.691 -152 m 1
 264.414 256 l 2
 276.105 311 271.709 375 200.709 375 c 0
 175.709 375 143.521 360 112.844 338 c 1
 120.071 372 l 1
 149.322 392 180.085 405 207.085 405 c 0
 291.085 405 311.632 337 294.414 256 c 2
 207.691 -152 l 1
 177.691 -152 l 1
EndSplineSet
EndChar
StartChar: uni0E46
Encoding: 274 3654 290
Width: 395
Flags: W
HStem: 194 30<124.712 213.166> 310 32<245.33 283.715>
VStem: 103.279 294.387<274.652 294.349 276 293>
Fore
276.691 -152 m 1
 367.24 274 l 2
 374.68 309 365.27 340 345.945 362 c 1
 317.568 332 286.893 310 255.893 310 c 0
 223.893 310 201.781 333 185.37 364 c 1
 156.183 349 137.23 321 131.279 293 c 0
 123.627 257 137.612 224 180.612 224 c 0
 188.612 224 197.825 225 208.25 227 c 1
 209.086 198 l 1
 196.448 195 185.236 194 175.236 194 c 0
 114.236 194 92.4385 242 103.279 293 c 0
 112.206 335 143.771 380 193.811 399 c 2
 205.873 404 l 1
 210.747 394 l 2
 230.183 349 250.694 342 263.694 342 c 0
 276.694 342 300.183 349 338.747 394 c 2
 349.511 407 l 1
 360.598 398 l 2
 392.858 371 408.293 326 397.666 276 c 2
 306.691 -152 l 1
 276.691 -152 l 1
EndSplineSet
EndChar
StartChar: uni0E47
Encoding: 275 3655 291
Width: 0
Flags: W
HStem: 445.121 30.129<-21.3917 33.19> 452 30<-176.771 -144.548> 544 30<-156.369 77.6309>
VStem: -207.958 301.966<513 574>
Fore
77.6309 544 m 1x70
 -127.369 544 l 2
 -156.369 544 -176.195 526 -179.171 512 c 0
 -181.935 499 -169.335 483 -144.548 482 c 1x70
 -82.1084 517 l 1
 -22.7607 481 l 2
 -14.1104 477 -4.73242 475.25 5.01758 475.25 c 0xb0
 14.7676 475.25 24.8896 477 35.0273 480 c 1
 40.0752 452 l 1x70
 26.4521 447.607 12.043 445.121 -1.63379 445.121 c 0xb0
 -15.9785 445.121 -29.5176 447.857 -40.499 454 c 2
 -87.335 483 l 1
 -141.925 452 l 1
 -145.925 452 l 2
 -182.925 452 -215.823 476 -207.958 513 c 0
 -200.094 550 -156.992 574 -119.992 574 c 2
 94.0078 574 l 1
 77.6309 544 l 1x70
EndSplineSet
EndChar
StartChar: uni0E48
Encoding: 276 3656 292
Width: 0
Flags: W
VStem: 33.8818 47.4297<564 646>
Fore
63.8818 564 m 5
 33.8818 564 l 5
 51.3115 646 l 5
 81.3115 646 l 5
 63.8818 564 l 5
EndSplineSet
MultipleSubs2: "Multiple Substitution lookup 5" uni0E4D uni0E48
Substitution2: "Single Substitution lookup 4" uni0E48.low
LCarets2: 1 0 
EndChar
StartChar: uni0E49
Encoding: 277 3657 293
Width: 0
Flags: W
HStem: 564 30<10.2588 120.882> 615 30<-39.9014 -13.6541>
VStem: -56.2773 193.536<594 615>
Fore
-26.1182 564 m 1
 -18.4658 600 l 2
 -17.4033 605 -17.4902 614 -30.2773 615 c 2
 -56.2773 615 l 1
 -39.9014 645 l 1
 -23.9014 645 l 2
 15.0986 645 14.085 612 11.5342 600 c 2
 10.2588 594 l 1
 137.259 594 l 1
 120.882 564 l 1
 -26.1182 564 l 1
EndSplineSet
MultipleSubs2: "Multiple Substitution lookup 5" uni0E4D uni0E49
Substitution2: "Single Substitution lookup 4" uni0E49.low
EndChar
StartChar: uni0E4A
Encoding: 278 3658 294
Width: 0
Flags: W
HStem: 565 30<-34.4293 -16.9053 153.259 234.882> 638 30<-29.7887 56.1873>
VStem: -64.2773 315.536<594 615>
Fore
116.882 564 m 1
 130.485 628 l 1
 48.2197 575 l 1
 46.5342 600 45.6113 638 6.61133 638 c 0
 -21.3887 638 -31.3643 624 -33.2773 615 c 0
 -35.4033 605 -30.5293 595 -17.5293 595 c 2
 -10.5293 595 l 1
 -16.9053 565 l 1
 -23.9053 565 l 2
 -54.9053 565 -69.5918 590 -64.2773 615 c 0
 -58.5391 642 -31.0127 668 11.9873 668 c 0
 45.9873 668 64.7363 648 69.998 621 c 1
 130.075 659 l 1
 167.075 659 l 1
 153.259 594 l 1
 251.259 594 l 1
 234.882 564 l 1
 116.882 564 l 1
EndSplineSet
MultipleSubs2: "Multiple Substitution lookup 5" uni0E4D uni0E4A
Substitution2: "Single Substitution lookup 4" uni0E4A.low
EndChar
StartChar: uni0E4B
Encoding: 279 3659 295
Width: 0
Flags: W
HStem: 595 28<17.4229 40.4707 76.6357 99.2588>
VStem: 11.4707 94.1653<595 624>
Fore
11.4707 595 m 1
 17.4229 623 l 1
 46.4229 623 l 1
 53.0117 654 l 1
 83.0117 654 l 1
 76.6357 624 l 1
 105.636 624 l 1
 99.2588 594 l 1
 70.2588 594 l 1
 63.8818 564 l 1
 33.8818 564 l 1
 40.4707 595 l 1
 11.4707 595 l 1
EndSplineSet
MultipleSubs2: "Multiple Substitution lookup 5" uni0E4D uni0E4B
Substitution2: "Single Substitution lookup 4" uni0E4B.low
EndChar
StartChar: uni0E4C
Encoding: 280 3660 296
Width: 0
Flags: W
HStem: 601 30<86.7461 137.746>
VStem: 33.8818 120.241<564 631>
Fore
33.8818 564 m 1
 38.5586 586 l 2
 41.1084 598 54.123 631 93.123 631 c 2
 154.123 631 l 1
 137.746 601 l 1
 86.7461 601 l 2
 73.7461 601 69.6211 591 68.5586 586 c 2
 63.8818 564 l 1
 33.8818 564 l 1
EndSplineSet
MultipleSubs2: "Multiple Substitution lookup 5" uni0E4D uni0E4C
Substitution2: "Single Substitution lookup 4" uni0E4C.low
EndChar
StartChar: uni0E4D
Encoding: 281 3661 297
Width: 0
Flags: HW
HStem: 441 23<10.726 44.526> 510 23<20.5043 54.3043>
VStem: -13.4854 92<468.65 505.346 487 487>
Fore
42.293 533 m 0
 67.293 533 83.8291 512 78.5146 487 c 0
 73.2012 462 47.7373 441 22.7373 441 c 0
 -2.2627 441 -18.7988 462 -13.4854 487 c 0
 -8.1709 512 17.293 533 42.293 533 c 0
9.51465 487 m 0
 6.75195 474 14.626 464 27.626 464 c 0
 40.626 464 52.752 474 55.5146 487 c 0
 58.2783 500 50.4043 510 37.4043 510 c 0
 24.4043 510 12.2783 500 9.51465 487 c 0
EndSplineSet
Substitution2: "Single Substitution lookup 3" uni0E4D.high
LCarets2: 1 0 
EndChar
StartChar: uni0E4E
Encoding: 282 3662 298
Width: 0
Flags: W
HStem: 489 24<-104.858 -49.0529> 714 25<86.5922 135.828> 717 25<22.9033 139.609>
VStem: -139.794 278.873<542 739>
Fore
-35.9824 527 m 1xb0
 -17.5332 515 l 1
 -32.3594 497 -57.0596 489 -80.0596 489 c 0
 -119.06 489 -146.596 510 -139.794 542 c 0
 -130.229 587 -89.915 612 -40.002 621 c 1
 -48.0898 630 -52.5391 642 -48.9248 659 c 0
 -38.2979 709 29.7168 742 100.717 742 c 0xb0
 112.717 742 125.505 741 139.079 739 c 1
 129.766 714 l 1xd0
 117.19 716 105.403 717 94.4033 717 c 0
 39.4033 717 -16.4854 694 -23.9248 659 c 0
 -28.3887 638 -4.51465 628 17.8477 625 c 2
 39.8477 625 l 1
 10.5342 600 l 1
 1.53418 600 l 0
 -44.4658 600 -105.017 588 -115.007 541 c 0
 -118.62 524 -97.958 513 -74.958 513 c 0
 -52.958 513 -40.0459 522 -35.9824 527 c 1xb0
EndSplineSet
EndChar
StartChar: uni0E4F
Encoding: 283 3663 299
Width: 492
Flags: W
HStem: -5 31<125.726 375.326> 374 31<199.696 449.296>
VStem: 83.5117 410<181.653 218.349 200 200>
Fore
332.085 405 m 0
 445.085 405 517.53 313 493.512 200 c 0
 469.492 87 357.938 -5 244.938 -5 c 0
 131.938 -5 59.4922 87 83.5117 200 c 0
 107.53 313 219.085 405 332.085 405 c 0
113.512 200 m 0
 93.1055 104 154.526 26 250.526 26 c 0
 346.526 26 441.105 104 461.512 200 c 0
 481.917 296 420.496 374 324.496 374 c 0
 228.496 374 133.917 296 113.512 200 c 0
183.512 200 m 0
 195.84 258 252.83 305 310.83 305 c 0
 368.83 305 405.84 258 393.512 200 c 0
 381.183 142 324.193 95 266.193 95 c 0
 208.193 95 171.183 142 183.512 200 c 0
EndSplineSet
EndChar
StartChar: uni0E50
Encoding: 284 3664 300
Width: 470
Flags: W
HStem: -5 30<120.713 359.913> 305 30<180.23 419.43>
VStem: 76.0723 388<146.653 183.348 165 165>
Fore
306.206 335 m 0
 412.206 335 484.478 261 464.072 165 c 0
 443.666 69 339.938 -5 233.938 -5 c 0
 127.938 -5 55.666 69 76.0723 165 c 0
 96.4775 261 200.206 335 306.206 335 c 0
106.072 165 m 0
 89.918 89 148.313 25 240.313 25 c 0
 332.313 25 417.918 89 434.072 165 c 0
 450.227 241 391.83 305 299.83 305 c 0
 207.83 305 122.227 241 106.072 165 c 0
EndSplineSet
EndChar
StartChar: uni0E51
Encoding: 285 3665 301
Width: 470
Flags: W
HStem: -42 29<222.072 342.336> 32 30<119.779 245.879> 305 30<180.23 418.13>
VStem: 76.0723 387.363<146.652 180.349 162 165>
Fore
222.072 -42 m 1
 229.236 -13 l 1
 316.236 -13 410.479 54 433.435 162 c 0
 450.651 243 390.83 305 299.83 305 c 0
 207.83 305 122.227 241 106.072 165 c 0
 92.8936 103 137.179 62 195.179 62 c 0
 234.179 62 274.217 81 305.019 113 c 1
 325.193 95 l 1
 286.69 55 237.802 32 188.802 32 c 0
 115.802 32 59.0674 85 76.0723 165 c 0
 96.4775 261 200.206 335 306.206 335 c 0
 411.206 335 484.689 262 463.435 162 c 0
 437.077 38 327.072 -42 222.072 -42 c 1
EndSplineSet
EndChar
StartChar: uni0E52
Encoding: 286 3666 302
Width: 470
Flags: W
HStem: 0 30<126.377 373.477> 80 30<180.681 231.381> 304 30<222.217 315.694 378.294 465.73>
VStem: 72.6709 401.028<149 215>
Fore
297.135 170 m 1
 306.699 215 l 2
 315.414 256 314.617 304 271.617 304 c 0
 233.617 304 201.265 260 189.999 207 c 0
 178.946 155 192.381 110 231.381 110 c 1
 225.005 80 l 1
 170.005 80 144.695 135 159.999 207 c 0
 175.304 279 222.994 334 277.994 334 c 0
 306.994 334 328.019 320 336.642 290 c 1
 358.019 320 386.994 334 415.994 334 c 0
 462.994 334 490.917 296 473.699 215 c 2
 459.671 149 l 2
 442.454 68 368 0 292 0 c 2
 176 0 l 2
 100 0 55.4541 68 72.6709 149 c 2
 115.395 350 l 2
 123.897 390 121.298 406 111.36 411 c 1
 129.312 439 l 1
 162.124 424 150.921 376 145.607 351 c 2
 102.884 150 l 2
 88.6426 83 126.377 30 183.377 30 c 2
 299.377 30 l 2
 356.377 30 415.643 83 429.884 150 c 2
 443.912 216 l 2
 452.627 257 452.83 305 409.83 305 c 0
 366.83 305 345.627 257 336.912 216 c 2
 327.135 170 l 1
 297.135 170 l 1
EndSplineSet
EndChar
StartChar: uni0E53
Encoding: 287 3667 303
Width: 470
Flags: W
HStem: -5 30<91.313 156.313> 305 30<153.73 267.706 344.706 454.33>
VStem: 78.0723 384.84<165 216 165 216>
Fore
219 0 m 1
 264.912 216 l 2
 273.84 258 269.83 305 214.83 305 c 0
 167.83 305 123.651 243 107.072 165 c 0
 91.3428 91 106.313 25 156.313 25 c 1
 149.938 -5 l 1
 73.9375 -5 61.2803 86 78.0723 165 c 0
 94.4385 242 145.206 335 222.206 335 c 0
 257.206 335 285.019 320 295.791 286 c 1
 321.019 320 355.206 335 390.206 335 c 0
 443.206 335 480.767 300 462.912 216 c 2
 417 0 l 1
 387 0 l 1
 432.912 216 l 2
 441.84 258 437.83 305 382.83 305 c 0
 327.83 305 303.84 258 294.912 216 c 2
 249 0 l 1
 219 0 l 1
EndSplineSet
EndChar
StartChar: uni0E54
Encoding: 288 3668 304
Width: 470
Flags: W
HStem: -5 30<98.513 257.301> 9 29<296.37 387.909> 155 30<278.146 337.823> 298 29<360.358 469.042> 306 29<163.942 356.911>
VStem: 62.6348 482.052<170 429>
Fore
515.687 429 m 1x34
 544.687 429 l 1
 522.156 323 452.842 298 398.842 298 c 0x34
 368.842 298 338.542 306 283.542 306 c 0
 191.542 306 107.789 246 91.8477 171 c 0
 76.1182 97 125.813 25 216.813 25 c 0xac
 229.813 25 244.239 27 258.877 30 c 1
 235.553 52 226.717 81 232.669 109 c 0
 241.384 150 280.823 185 337.823 185 c 1
 331.446 155 l 1
 290.446 155 267.77 133 262.456 108 c 0
 257.354 84 268.766 53 307.152 36 c 1
 319.364 37 332.577 38 345.577 38 c 0
 378.577 38 411.515 33 438.539 19 c 1
 419.8 -8 l 1
 398.351 4 370.413 9 340.413 9 c 0x64
 284.413 9 253.438 -5 211.438 -5 c 0
 104.438 -5 43.292 79 62.6348 170 c 0
 82.8271 265 186.706 335 291.706 335 c 0xac
 347.706 335 382.006 327 406.006 327 c 0
 459.006 327 499.958 355 515.687 429 c 1x34
EndSplineSet
EndChar
StartChar: uni0E55
Encoding: 289 3669 305
Width: 470
Flags: W
HStem: -5 30<98.513 257.301> 9 29<296.37 387.909> 155 30<278.146 337.823> 298 29<354.049 469.042> 306 29<266.683 306.706> 393 28<290.335 339.735>
VStem: 62.6348 482.052<170 429>
Fore
515.687 429 m 1xb6
 544.687 429 l 1
 522.156 323 452.842 298 398.842 298 c 0xb6
 371.842 298 336.542 306 283.542 306 c 0
 191.542 306 107.789 246 91.8477 171 c 0
 76.1182 97 125.813 25 216.813 25 c 0xae
 229.813 25 244.239 27 258.877 30 c 1
 235.553 52 226.717 81 232.669 109 c 0
 241.384 150 280.823 185 337.823 185 c 1
 331.446 155 l 1
 290.446 155 267.77 133 262.456 108 c 0
 257.354 84 268.766 53 307.152 36 c 1
 319.364 37 332.577 38 345.577 38 c 0
 378.577 38 411.515 33 438.539 19 c 1
 419.8 -8 l 1
 398.351 4 370.413 9 340.413 9 c 0x66
 284.413 9 253.438 -5 211.438 -5 c 0
 104.438 -5 43.292 79 62.6348 170 c 0
 80.2764 253 160.668 316 249.856 331 c 1
 244.981 341 244.32 352 246.445 362 c 0
 253.035 393 285.986 421 321.986 421 c 0
 355.986 421 379.673 396 372.658 363 c 0
 370.107 351 363.77 340 355.856 331 c 1
 376.431 329 392.006 327 406.006 327 c 0
 459.006 327 499.958 355 515.687 429 c 1xb6
275.87 364 m 0
 273.532 353 275.919 336 306.706 335 c 1x2e
 324.132 337 338.895 350 341.87 364 c 0
 345.059 379 334.035 393 315.035 393 c 0
 296.035 393 279.059 379 275.87 364 c 0
EndSplineSet
EndChar
StartChar: uni0E56
Encoding: 290 3670 306
Width: 470
Flags: W
HStem: -5 30<99.813 342.913> 157 28<123.171 186.323> 307 28<234.606 402.855>
VStem: 46.5107 400.561<165 407>
Fore
186.323 185 m 1
 180.371 157 l 1
 136.371 157 112.058 132 106.956 108 c 0
 99.7295 74 128.313 25 223.313 25 c 0
 315.313 25 400.918 89 417.072 165 c 0
 433.227 241 375.255 307 283.255 307 c 0
 233.255 307 167.216 288 134.115 264 c 2
 106.864 244 l 1
 111.24 274 l 2
 119.568 332 78.8105 399 46.5107 407 c 1
 59.6748 436 l 1
 104.337 425 141.308 359 143.767 300 c 1
 187.656 323 247.206 335 289.206 335 c 0
 395.206 335 467.478 261 447.072 165 c 0
 426.666 69 322.938 -5 216.938 -5 c 0
 111.938 -5 65.0527 52 76.9561 108 c 0
 85.8838 150 127.323 185 186.323 185 c 1
EndSplineSet
EndChar
StartChar: uni0E57
Encoding: 291 3671 307
Width: 470
Flags: W
HStem: 1 30<69.0889 121.213 276.377 327.077> 305 31<127.33 235.319 303.419 385.53>
Fore
211.845 131 m 1
 232.888 230 l 2
 240.965 268 231.83 305 185.83 305 c 0
 140.83 305 97.8643 244 81.71 168 c 0
 65.5557 92 82.5889 31 127.589 31 c 1
 121.213 1 l 1
 58.2129 1 31.5166 73 51.9219 169 c 0
 72.3271 265 129.419 336 192.419 336 c 0
 225.419 336 250.443 322 260.854 291 c 1
 282.443 322 312.419 336 342.419 336 c 0
 399.419 336 422.54 266 401.922 169 c 0
 389.807 112 366.604 64 338.227 34 c 1
 398.565 45 435.854 84 453.922 169 c 2
 492.607 351 l 2
 497.921 376 508.124 424 548.312 439 c 1
 553.36 411 l 1
 538.085 405 529.409 383 522.607 351 c 2
 483.922 169 l 2
 457.353 44 386.213 1 293 0 c 2
 260 0 l 1
 276.377 30 l 1
 315.377 30 354.556 92 370.71 168 c 0
 386.864 244 373.83 305 334.83 305 c 0
 294.83 305 270.965 268 263.101 231 c 2
 241.845 131 l 1
 211.845 131 l 1
EndSplineSet
EndChar
StartChar: uni0E58
Encoding: 292 3672 308
Width: 470
Flags: W
HStem: -5 30<284.213 388.213> 297 30<359.858 469.329> 305 30<164.23 357.199>
VStem: 62.1348 483.052<170 429>
Fore
423.193 95 m 1xb0
 454.193 95 l 1
 439.739 27 388.938 -5 326.938 -5 c 0
 285.938 -5 251.102 24 235.879 70 c 1
 191.725 -6 l 1
 54 0 49.1689 109 62.1348 170 c 0
 82.3271 265 186.206 335 291.206 335 c 0xb0
 347.206 335 381.506 327 405.506 327 c 0
 458.506 327 499.458 355 515.187 429 c 1
 545.187 429 l 1
 522.656 323 453.129 297 399.129 297 c 0xd0
 369.129 297 338.83 305 283.83 305 c 0
 191.83 305 108.076 245 92.1348 170 c 0
 77.2559 100 102.227 34 180.526 26 c 1
 231.594 111 l 1
 259.594 111 l 1
 264.753 60 295.313 25 332.313 25 c 0
 375.313 25 411.928 42 423.193 95 c 1xb0
EndSplineSet
EndChar
StartChar: uni0E59
Encoding: 293 3673 309
Width: 470
Flags: W
HStem: -5 30<107.313 221.713> 308 30<169.768 300.944 391.055 452.155>
VStem: 345.287 30.851<-1 157.505> 510.726 30.849<388.455 454.898>
Fore
257.33 98 m 1
 289.33 98 l 1
 275.727 34 231.438 -5 160.438 -5 c 0
 96.4375 -5 46.8037 72 67.6348 170 c 0
 88.2529 267 172.344 338 246.344 338 c 0
 288.344 338 320.943 322 343.079 285 c 1
 362.03 313 387.132 337 421.132 337 c 0
 446.132 337 458.581 325 466.605 311 c 1
 483.919 336 496.083 365 503.311 399 c 0
 506.711 415 509.112 431 510.726 448 c 1
 541.575 452 l 1
 539.75 434 536.924 416 533.311 399 c 0
 521.619 344 497.417 296 454.914 256 c 1
 450.166 276 443.755 307 415.755 307 c 0
 396.755 307 379.991 294 357.489 254 c 1
 377.224 201 384.007 120 376.138 3 c 1
 345.287 -1 l 1
 362.276 253 307.968 308 239.968 308 c 0
 185.968 308 115.276 253 97.6348 170 c 0
 79.1426 83 120.813 25 165.813 25 c 0
 208.813 25 246.065 45 257.33 98 c 1
EndSplineSet
EndChar
StartChar: uni0E5A
Encoding: 294 3674 310
Width: 451
Flags: W
HStem: 0 21G<293 322 365 395> 257 30<166.688 283.227> 375 30<163.009 220.085>
VStem: 110.293 369.729<326 400>
Fore
365 0 m 1
 450.022 400 l 1
 480.022 400 l 1
 395 0 l 1
 365 0 l 1
293 0 m 1
 366.119 344 l 1
 329.255 307 261.627 257 189.627 257 c 0
 145.627 257 100.729 281 110.293 326 c 0
 119.221 368 170.085 405 220.085 405 c 1
 213.709 375 l 1
 174.709 375 143.757 347 139.293 326 c 0
 132.704 295 178.004 287 195.004 287 c 0
 281.004 287 366.347 378 377.022 400 c 1
 407.022 400 l 1
 322 0 l 1
 293 0 l 1
EndSplineSet
EndChar
StartChar: uni0E5B
Encoding: 295 3675 311
Width: 892
Flags: W
HStem: -5 30<123.613 287.413> 128 30<202.084 256.684> 180 20<833.612 896.044> 196 30<749.374 819.661> 242 30<221.938 260.938> 375 30<168.009 307.109>
Fore
247.815 272 m 0xec
 270.815 272 285.84 258 291.801 239 c 1
 294.289 246 295.776 253 297.265 260 c 0
 310.656 323 292.709 375 244.709 375 c 0
 185.709 375 121.491 294 100.661 196 c 0
 75.1543 76 138.313 25 187.313 25 c 0
 264.313 25 345.941 75 394.83 305 c 2
 400.781 333 l 2
 405.032 353 429.67 356 430.844 338 c 2
 442.396 143 l 1
 509.192 302 l 2
 517.23 321 539.23 321 538.979 301 c 2
 547.497 167 l 1
 597.24 274 l 2
 607.491 294 623.491 294 625.453 275 c 2
 637.897 183 l 1
 670.927 249 l 2
 682.028 273 690.028 273 698.776 253 c 2
 717.85 211 l 1
 746.188 222 768.038 226 787.038 226 c 0xdc
 825.038 226 843.512 200 876.512 200 c 0
 897.512 200 915.999 207 923.999 207 c 0
 926.999 207 928.787 206 928.149 203 c 0
 926.236 194 890.26 180 872.26 180 c 0xec
 836.26 180 810.661 196 780.661 196 c 0
 763.661 196 743.811 192 712.835 178 c 1
 704.772 173 696.622 177 694.11 184 c 2
 682.425 209 l 1
 642.42 129 l 2
 633.594 111 616.594 111 614.207 128 c 2
 602.125 217 l 1
 548.894 103 l 2
 540.854 84 520.43 82 520.681 102 c 2
 513.525 233 l 1
 446.941 75 l 2
 437.266 53 419.479 54 417.941 75 c 2
 408.313 232 l 1
 369.256 100 302.938 -5 182.938 -5 c 0
 113.938 -5 44.3906 63 72.6611 196 c 0xdc
 96.6797 309 171.085 405 251.085 405 c 0
 317.085 405 348.119 344 329.627 257 c 0
 313.26 180 268.207 128 217.207 128 c 0
 181.207 128 163.435 162 171.512 200 c 0
 179.589 238 211.815 272 247.815 272 c 0xec
200.512 200 m 0xec
 195.622 177 206.584 158 221.584 158 c 0
 248.584 158 261.535 186 264.512 200 c 0
 269.825 225 256.438 242 241.438 242 c 0
 226.438 242 205.825 225 200.512 200 c 0xec
EndSplineSet
EndChar
StartChar: Euro
Encoding: 313 8364 313
Width: 390
Flags: W
HStem: -5 30<161.813 303.513> 175 30<66.5742 95.1973 124.574 372.197> 295 30<92.0811 114.704 156.081 397.704> 476 29<257.677 399.377>
Fore
464.839 465 m 1
 440.524 440 l 1
 418.201 462 389.177 476 355.177 476 c 0
 280.177 476 199.998 414 156.081 325 c 1
 414.081 325 l 1
 397.704 295 l 1
 143.704 295 l 1
 138.122 280.5 133.631 265.25 130.389 250 c 0
 127.147 234.75 125.156 219.5 124.574 205 c 1
 388.574 205 l 1
 372.197 175 l 1
 124.197 175 l 1
 130.28 86 184.313 25 259.313 25 c 0
 293.313 25 327.652 36 359.328 58 c 1
 373.439 35 l 1
 336.126 10 294.938 -5 253.938 -5 c 0
 159.938 -5 99.3037 72 95.1973 175 c 1
 50.1973 175 l 1
 66.5742 205 l 1
 95.5742 205 l 1
 96.6562 219.5 98.8975 234.75 102.139 250 c 0
 105.381 265.25 109.622 280.5 114.704 295 c 1
 75.7041 295 l 1
 92.0811 325 l 1
 127.081 325 l 1
 174.975 428 268.341 505 362.341 505 c 0
 403.341 505 438.152 490 464.839 465 c 1
EndSplineSet
EndChar
StartChar: uni25CC
Encoding: 315 9676 314
Width: 466
Flags: W
HStem: 38 64<112.983 144.775 342.995 374.762> 148 64<96.364 128.156 414.377 446.143> 248 64<157.619 189.412 387.632 419.399>
VStem: 80.2598 382<161.651 198.344 180 180>
Fore
365.681 102 m 0
 383.131 102 394.59 87.46 390.879 70 c 0
 387.17 52.5498 369.527 38 352.077 38 c 0
 334.627 38 323.168 52.54 326.879 70 c 0
 330.588 87.4502 348.23 102 365.681 102 c 0
135.681 102 m 0
 153.131 102 164.59 87.46 160.879 70 c 0
 157.17 52.5498 139.537 38 122.077 38 c 0
 104.627 38 93.168 52.54 96.8789 70 c 0
 100.588 87.4502 118.221 102 135.681 102 c 0
410.317 312 m 0
 427.768 312 439.225 297.45 435.516 280 c 0
 431.807 262.55 414.164 248 396.714 248 c 0
 379.264 248 367.807 262.55 371.516 280 c 0
 375.225 297.45 392.867 312 410.317 312 c 0
245.053 52 m 0
 262.503 52 273.962 37.46 270.251 20 c 0
 266.542 2.5498 248.909 -12 231.449 -12 c 0
 213.999 -12 202.54 2.54004 206.251 20 c 0
 209.96 37.4502 227.593 52 245.053 52 c 0
180.317 312 m 0
 197.768 312 209.225 297.45 205.516 280 c 0
 201.807 262.55 184.174 248 166.714 248 c 0
 149.264 248 137.807 262.55 141.516 280 c 0
 145.225 297.45 162.857 312 180.317 312 c 0
119.062 212 m 0
 136.512 212 147.972 197.46 144.26 180 c 0
 140.551 162.55 122.918 148 105.458 148 c 0
 88.0088 148 76.5488 162.54 80.2598 180 c 0
 83.9697 197.45 101.602 212 119.062 212 c 0
313.071 372 m 0
 330.521 372 341.979 357.45 338.27 340 c 0
 334.561 322.55 316.928 308 299.468 308 c 0
 282.018 308 270.561 322.55 274.27 340 c 0
 277.979 357.45 295.611 372 313.071 372 c 0
437.062 212 m 0
 454.512 212 465.972 197.46 462.26 180 c 0
 458.551 162.55 440.908 148 423.458 148 c 0
 406.009 148 394.549 162.54 398.26 180 c 0
 401.97 197.45 419.612 212 437.062 212 c 0
EndSplineSet
EndChar
StartChar: uni0E10.descless
Encoding: 316 63232 315
Width: 392
Flags: W
HStem: 0 21G<306 336> 185 30<242.699 345.323> 375 30<180.909 315.985>
VStem: 92.4141 317.507<256 376>
Fore
351.699 215 m 1
 360.414 256 l 2
 374.443 322 332.709 375 266.709 375 c 0
 200.709 375 136.443 322 122.414 256 c 1
 92.4141 256 l 1
 109.844 338 191.085 405 273.085 405 c 0
 306.085 405 333.747 394 354.921 376 c 1
 398.235 401 l 1
 409.921 376 l 1
 373.458 355 l 1
 391.931 329 398.491 294 390.414 256 c 2
 336 0 l 1
 306 0 l 1
 345.323 185 l 1
 226.323 185 l 1
 242.699 215 l 1
 351.699 215 l 1
EndSplineSet
EndChar
StartChar: uni0E34.left
Encoding: 317 63233 316
Width: 0
Flags: W
HStem: 452 30<-286.548 -24.9248>
VStem: -312.925 294.377<452 482>
Fore
-18.5479 482 m 1
 -24.9248 452 l 1
 -312.925 452 l 1
 -286.548 482 l 1
 -18.5479 482 l 1
EndSplineSet
EndChar
StartChar: uni0E35.left
Encoding: 318 63234 317
Width: 0
Flags: W
HStem: 452 30<-286.548 -48.5479>
VStem: -312.925 302.667<452 521>
Fore
-48.5479 482 m 5
 -40.2578 521 l 5
 -10.2578 521 l 5
 -24.9248 452 l 5
 -312.925 452 l 5
 -286.548 482 l 5
 -48.5479 482 l 5
EndSplineSet
EndChar
StartChar: uni0E36.left
Encoding: 319 63235 318
Width: 0
Flags: W
HStem: 452 30<-286.548 -83.5479> 452 23<-58.9352 -25.1352> 521 23<-49.1578 -15.3578>
VStem: -312.925 321.779<452 498>
Fore
-27.3691 544 m 0xb0
 -2.36914 544 14.167 523 8.85352 498 c 0
 3.53906 473 -21.9248 452 -46.9248 452 c 2
 -312.925 452 l 1x70
 -286.548 482 l 1
 -83.5479 482 l 1
 -84.4854 487 -84.4219 492 -83.1465 498 c 0
 -77.833 523 -52.3691 544 -27.3691 544 c 0xb0
-60.1465 498 m 0
 -62.9102 485 -55.0352 475 -42.0352 475 c 0
 -29.0352 475 -16.9102 485 -14.1465 498 c 0
 -11.3838 511 -19.2578 521 -32.2578 521 c 0
 -45.2578 521 -57.3838 511 -60.1465 498 c 0
EndSplineSet
EndChar
StartChar: uni0E37.left
Encoding: 320 63236 319
Width: 0
Flags: W
HStem: 452 30<-286.548 -113.548 -84.5479 -48.5479> 452 69<-105.258 -84.5479 -40.2578 -24.9248>
VStem: -312.925 302.667<452 521>
Fore
-105.258 521 m 1x60
 -76.2578 521 l 1x60
 -84.5479 482 l 1
 -48.5479 482 l 1xa0
 -40.2578 521 l 1
 -10.2578 521 l 1
 -24.9248 452 l 1
 -312.925 452 l 1x60
 -286.548 482 l 1
 -113.548 482 l 1xa0
 -105.258 521 l 1x60
EndSplineSet
EndChar
StartChar: uni0E48.low_left
Encoding: 321 63237 320
Width: 0
Flags: W
VStem: -84.9248 47.4297<452 534>
Fore
-54.9248 452 m 5
 -84.9248 452 l 5
 -67.4951 534 l 5
 -37.4951 534 l 5
 -54.9248 452 l 5
EndSplineSet
EndChar
StartChar: uni0E49.low_left
Encoding: 322 63238 321
Width: 0
Flags: W
HStem: 452 30<-147.548 -36.9248> 503 30<-197.707 -169.884>
VStem: -214.084 193.536<482 503>
Fore
-183.925 452 m 1
 -176.272 488 l 2
 -174.997 494 -174.084 503 -188.084 503 c 2
 -214.084 503 l 1
 -197.707 533 l 1
 -181.707 533 l 2
 -139.707 533 -144.359 497 -146.272 488 c 2
 -147.548 482 l 1
 -20.5479 482 l 1
 -36.9248 452 l 1
 -183.925 452 l 1
EndSplineSet
EndChar
StartChar: uni0E4A.low_left
Encoding: 323 63239 322
Width: 0
Flags: W
HStem: 452 30<-271.448 -253.925 -82.5479 -0.924805> 525 30<-266.808 -183.608>
VStem: -301.297 316.749<482 502>
Fore
-68.9443 546 m 1
 -82.5479 482 l 1
 15.4521 482 l 1
 -0.924805 452 l 1
 -118.925 452 l 1
 -105.533 515 l 1
 -195.861 457 l 1
 -194.761 481 l 2
 -194.635 491 -194.408 525 -230.408 525 c 0
 -258.408 525 -268.384 511 -270.297 502 c 0
 -272.422 492 -267.548 482 -254.548 482 c 2
 -247.548 482 l 1
 -253.925 452 l 1
 -260.925 452 l 2
 -291.925 452 -306.61 477 -301.297 502 c 0
 -295.558 529 -268.031 555 -225.031 555 c 0
 -191.031 555 -172.282 535 -167.021 508 c 1
 -106.944 546 l 1
 -68.9443 546 l 1
EndSplineSet
EndChar
StartChar: uni0E4B.low_left
Encoding: 324 63240 323
Width: 0
Flags: W
HStem: 483 28<-101.384 -78.335 -42.1709 -19.5479>
VStem: -107.335 94.1641<483 512>
Fore
-107.335 483 m 1
 -101.384 511 l 1
 -72.3838 511 l 1
 -65.7939 542 l 1
 -35.7939 542 l 1
 -42.1709 512 l 1
 -13.1709 512 l 1
 -19.5479 482 l 1
 -48.5479 482 l 1
 -54.9248 452 l 1
 -84.9248 452 l 1
 -78.335 483 l 1
 -107.335 483 l 1
EndSplineSet
EndChar
StartChar: uni0E4C.low_left
Encoding: 325 63241 324
Width: 0
Flags: W
HStem: 489 30<-83.5596 -13.0596>
VStem: -116.925 120.241<452 519>
Fore
-116.925 452 m 1
 -112.248 474 l 2
 -109.697 486 -96.6836 519 -57.6836 519 c 2
 3.31641 519 l 1
 -13.0596 489 l 1
 -64.0596 489 l 2
 -79.0596 489 -81.1855 479 -82.248 474 c 2
 -86.9248 452 l 1
 -116.925 452 l 1
EndSplineSet
EndChar
StartChar: uni0E48.low
Encoding: 326 63242 325
Width: 0
Flags: W
VStem: 10.0752 47.4297<452 534>
Fore
40.0752 452 m 5
 10.0752 452 l 5
 27.5049 534 l 5
 57.5049 534 l 5
 40.0752 452 l 5
EndSplineSet
EndChar
StartChar: uni0E49.low
Encoding: 327 63243 326
Width: 0
Flags: W
HStem: 452 30<-25.5479 105.075> 503 30<-75.707 -47.884>
VStem: -92.084 213.536<482 503>
Fore
-61.9248 452 m 5
 -54.2725 488 l 6
 -53.21 493 -52.084 503 -66.084 503 c 6
 -92.084 503 l 5
 -75.707 533 l 5
 -59.707 533 l 6
 -20.707 533 -21.084 503 -24.2725 488 c 6
 -25.5479 482 l 5
 121.452 482 l 5
 105.075 452 l 5
 -61.9248 452 l 5
EndSplineSet
EndChar
StartChar: uni0E4A.low
Encoding: 328 63244 327
Width: 0
Flags: W
HStem: 453 30<-82.235 -64.7119 105.452 187.075> 526 30<-77.5953 5.60469>
VStem: -112.084 315.536<482 503>
Fore
70.0752 452 m 5
 83.6787 516 l 5
 -6.64941 458 l 5
 -5.54785 482 l 6
 -5.42188 492 -5.19531 526 -41.1953 526 c 4
 -69.1953 526 -79.1709 512 -81.084 503 c 4
 -83.21 493 -78.335 483 -65.335 483 c 6
 -58.335 483 l 5
 -64.7119 453 l 5
 -71.7119 453 l 6
 -102.712 453 -117.398 478 -112.084 503 c 4
 -106.345 530 -78.8184 556 -35.8184 556 c 4
 -1.81836 556 16.9307 536 22.1914 509 c 5
 82.2686 547 l 5
 119.269 547 l 5
 105.452 482 l 5
 203.452 482 l 5
 187.075 452 l 5
 70.0752 452 l 5
EndSplineSet
EndChar
StartChar: uni0E4B.low
Encoding: 329 63245 328
Width: 0
Flags: W
HStem: 483 28<-6.38379 16.665 52.8291 75.4521>
VStem: -12.335 94.1641<483 512>
Fore
-12.335 483 m 5
 -6.38379 511 l 5
 22.6162 511 l 5
 29.2061 542 l 5
 59.2061 542 l 5
 52.8291 512 l 5
 81.8291 512 l 5
 75.4521 482 l 5
 46.4521 482 l 5
 40.0752 452 l 5
 10.0752 452 l 5
 16.665 483 l 5
 -12.335 483 l 5
EndSplineSet
EndChar
StartChar: uni0E4C.low
Encoding: 330 63246 329
Width: 0
Flags: W
HStem: 489 30<2.94043 53.9404>
VStem: -49.9248 120.241<452 519>
Fore
-49.9248 452 m 5
 -45.248 474 l 6
 -42.0596 489 -29.6836 519 9.31641 519 c 6
 70.3164 519 l 5
 53.9404 489 l 5
 2.94043 489 l 6
 -10.0596 489 -14.1855 479 -15.248 474 c 6
 -19.9248 452 l 5
 -49.9248 452 l 5
EndSplineSet
LCarets2: 2 0 0 
EndChar
StartChar: uni0E0D.descless
Encoding: 331 63247 330
Width: 635
Flags: W
HStem: -5 30<375.213 523.413> 0 30<92.377 116> 375 30<212.085 348.709>
Fore
56 0 m 1x60
 95.3232 185 l 2
 101.487 214 126.014 240 147.989 254 c 1
 102.941 282 l 1
 144.709 375 227.085 405 277.085 405 c 0
 359.085 405 411.844 338 394.414 256 c 2
 370.396 143 l 2
 356.154 76 392.313 25 449.313 25 c 0
 506.313 25 565.154 76 579.396 143 c 2
 634.022 400 l 1
 664.022 400 l 1
 609.396 143 l 2
 592.179 62 518.938 -5 442.938 -5 c 0xa0
 366.938 -5 323.179 62 340.396 143 c 2
 364.202 255 l 2
 380.144 330 330.709 375 270.709 375 c 0
 222.709 375 164.97 348 134.216 288 c 1
 183.414 256 l 1
 152.438 242 134.038 226 125.535 186 c 2
 92.377 30 l 1
 132.377 30 l 1
 116 0 l 1
 56 0 l 1x60
EndSplineSet
EndChar
StartChar: uni0E31.left
Encoding: 332 63248 331
Width: 0
Flags: W
HStem: 452 30<-140.548 102.075>
VStem: -176.925 305.377<452 482>
Fore
-140.548 482 m 1
 128.452 482 l 1
 102.075 452 l 1
 -176.925 452 l 1
 -162.258 521 l 1
 -132.258 521 l 1
 -140.548 482 l 1
EndSplineSet
EndChar
StartChar: uni0E4D.left
Encoding: 333 63249 332
Width: 0
Flags: W
HStem: 441 23<-80.274 -46.474> 510 23<-70.4957 -36.6957>
VStem: -104.485 91.9996<468.652 505.346 487 487>
Fore
-48.707 533 m 0
 -23.707 533 -7.1709 512 -12.4854 487 c 0
 -17.7988 462 -43.2627 441 -68.2627 441 c 0
 -93.2627 441 -109.799 462 -104.485 487 c 0
 -99.1709 512 -73.707 533 -48.707 533 c 0
-81.4854 487 m 0
 -84.248 474 -76.374 464 -63.374 464 c 0
 -50.374 464 -38.248 474 -35.4854 487 c 0
 -32.7217 500 -40.5957 510 -53.5957 510 c 0
 -66.5957 510 -78.7217 500 -81.4854 487 c 0
EndSplineSet
EndChar
StartChar: uni0E47.left
Encoding: 334 63250 333
Width: 0
Flags: W
HStem: 445.121 30.129<-93.3917 -38.81> 452 30<-248.771 -216.548> 544 30<-228.369 5.63086>
VStem: -279.958 301.966<513 574>
Fore
5.63086 544 m 1x70
 -199.369 544 l 2
 -228.369 544 -248.195 526 -251.171 512 c 0
 -253.935 499 -241.335 483 -216.548 482 c 1x70
 -154.108 517 l 1
 -94.7607 481 l 2
 -86.1104 477 -76.7324 475.25 -66.9824 475.25 c 0xb0
 -57.2324 475.25 -47.1104 477 -36.9727 480 c 1
 -31.9248 452 l 1x70
 -45.5479 447.607 -59.957 445.121 -73.6338 445.121 c 0xb0
 -87.9785 445.121 -101.518 447.857 -112.499 454 c 2
 -159.335 483 l 1
 -213.925 452 l 1
 -217.925 452 l 2
 -254.925 452 -287.823 476 -279.958 513 c 0
 -272.094 550 -228.992 574 -191.992 574 c 2
 22.0078 574 l 1
 5.63086 544 l 1x70
EndSplineSet
EndChar
StartChar: uni0E48.left
Encoding: 335 63251 334
Width: 0
Flags: W
VStem: -31.1182 47.4297<564 646>
Fore
-1.11816 564 m 5
 -31.1182 564 l 5
 -13.6885 646 l 5
 16.3115 646 l 5
 -1.11816 564 l 5
EndSplineSet
EndChar
StartChar: uni0E49.left
Encoding: 336 63252 335
Width: 0
Flags: W
HStem: 564 30<-58.7412 51.8818> 615 30<-108.901 -81.0773>
VStem: -125.277 193.536<594 615>
Fore
-95.1182 564 m 1
 -87.4658 600 l 2
 -86.4033 605 -85.2773 615 -99.2773 615 c 2
 -125.277 615 l 1
 -108.901 645 l 1
 -92.9014 645 l 2
 -52.9014 645 -54.4902 614 -57.4658 600 c 2
 -58.7412 594 l 1
 68.2588 594 l 1
 51.8818 564 l 1
 -95.1182 564 l 1
EndSplineSet
EndChar
StartChar: uni0E4A.left
Encoding: 337 63253 336
Width: 0
Flags: W
HStem: 565 30<-91.4293 -73.9053 96.2588 177.882> 638 30<-86.7887 -3.5887>
VStem: -121.277 315.536<594 615>
Fore
60.8818 564 m 1
 74.4854 628 l 1
 -15.8428 570 l 1
 -14.7412 594 l 2
 -14.6162 604 -14.3887 638 -50.3887 638 c 0
 -78.3887 638 -88.3643 624 -90.2773 615 c 0
 -92.4033 605 -87.5293 595 -74.5293 595 c 2
 -67.5293 595 l 1
 -73.9053 565 l 1
 -80.9053 565 l 2
 -111.905 565 -126.592 590 -121.277 615 c 0
 -115.539 642 -88.0127 668 -45.0127 668 c 0
 -11.0127 668 7.73633 648 12.998 621 c 1
 73.0752 659 l 1
 110.075 659 l 1
 96.2588 594 l 1
 194.259 594 l 1
 177.882 564 l 1
 60.8818 564 l 1
EndSplineSet
EndChar
StartChar: uni0E4B.left
Encoding: 338 63254 337
Width: 0
Flags: W
HStem: 595 28<-47.5771 -24.5293 11.6357 34.2588>
VStem: -53.5293 94.165<595 624>
Fore
-53.5293 595 m 5
 -47.5771 623 l 5
 -18.5771 623 l 5
 -11.9883 654 l 5
 18.0117 654 l 5
 11.6357 624 l 5
 40.6357 624 l 5
 34.2588 594 l 5
 5.25879 594 l 5
 -1.11816 564 l 5
 -31.1182 564 l 5
 -24.5293 595 l 5
 -53.5293 595 l 5
EndSplineSet
EndChar
StartChar: uni0E4C.left
Encoding: 339 63255 338
Width: 0
Flags: W
HStem: 601 30<21.7461 72.7461>
VStem: -31.1182 120.241<564 631>
Fore
-31.1182 564 m 1
 -26.4414 586 l 2
 -23.8916 598 -8.87695 631 28.123 631 c 2
 89.123 631 l 1
 72.7461 601 l 1
 21.7461 601 l 2
 8.74609 601 4.62109 591 3.55859 586 c 2
 -1.11816 564 l 1
 -31.1182 564 l 1
EndSplineSet
EndChar
StartChar: uni0E38.low
Encoding: 340 63256 339
Width: 0
Flags: W
HStem: -192 30<-156.435 -126.811>
VStem: -172.811 82.3764<-192 -162>
Fore
-156.435 -162 m 5
 -90.4346 -162 l 5
 -116.366 -284 l 5
 -146.366 -284 l 5
 -126.811 -192 l 5
 -172.811 -192 l 5
 -156.435 -162 l 5
EndSplineSet
EndChar
StartChar: uni0E39.low
Encoding: 341 63257 340
Width: 0
Flags: W
HStem: -284 30<-224.089 -153.889>
VStem: -281.811 191.376<-192 -162>
Fore
-265.435 -162 m 5
 -218.435 -162 l 5
 -227.574 -205 l 6
 -233.313 -232 -215.989 -254 -188.989 -254 c 4
 -161.989 -254 -135.313 -232 -129.574 -205 c 6
 -120.435 -162 l 5
 -90.4346 -162 l 5
 -99.5742 -205 l 6
 -108.927 -249 -151.366 -284 -195.366 -284 c 4
 -239.366 -284 -266.927 -249 -257.574 -205 c 6
 -254.811 -192 l 5
 -281.811 -192 l 5
 -265.435 -162 l 5
EndSplineSet
EndChar
StartChar: uni0E3A.low
Encoding: 342 63258 341
Width: 0
Flags: W
HStem: -214 50<-124.059 -98.287>
VStem: -136.173 50.0001<-207.2 -170.8 -189 -189>
Fore
-136.173 -189 m 0
 -133.197 -175 -119.859 -164 -105.859 -164 c 0
 -91.8594 -164 -83.1973 -175 -86.1729 -189 c 0
 -89.1494 -203 -102.487 -214 -116.487 -214 c 0
 -130.487 -214 -139.149 -203 -136.173 -189 c 0
EndSplineSet
EndChar
StartChar: uniF780
Encoding: 343 63360 342
Width: 296
Flags: W
HStem: 0 21G<210 240> 375 30<171.985 293.009> 441 23<-70.274 -36.474> 510 23<-60.4957 -26.6957>
VStem: -94.4854 388.899<256 487>
Fore
210 0 m 1
 264.414 256 l 2
 276.105 311 271.709 375 200.709 375 c 0
 175.709 375 143.521 360 112.844 338 c 1
 120.071 372 l 1
 149.322 392 180.085 405 207.085 405 c 0
 291.085 405 311.632 337 294.414 256 c 2
 240 0 l 1
 210 0 l 1
-38.707 533 m 0
 -13.707 533 2.8291 512 -2.48535 487 c 0
 -7.79883 462 -33.2627 441 -58.2627 441 c 0
 -83.2627 441 -99.7988 462 -94.4854 487 c 0
 -89.1709 512 -63.707 533 -38.707 533 c 0
-71.4854 487 m 0
 -74.248 474 -66.374 464 -53.374 464 c 0
 -40.374 464 -28.248 474 -25.4854 487 c 0
 -22.7217 500 -30.5957 510 -43.5957 510 c 0
 -56.5957 510 -68.7217 500 -71.4854 487 c 0
EndSplineSet
EndChar
StartChar: uniF781
Encoding: 344 63361 343
Width: 0
Flags: W
HStem: 489 24<-164.858 -109.053> 714 25<26.5918 75.828> 717 25<-37.0967 79.6087>
VStem: -199.794 278.873<542 739>
Fore
-95.9824 527 m 1xb0
 -77.5332 515 l 1
 -92.3594 497 -117.06 489 -140.06 489 c 0
 -179.06 489 -206.596 510 -199.794 542 c 0
 -190.229 587 -149.915 612 -100.002 621 c 1
 -108.09 630 -112.539 642 -108.925 659 c 0
 -98.2979 709 -30.2832 742 40.7168 742 c 0xb0
 52.7168 742 65.5049 741 79.0791 739 c 1
 69.7656 714 l 1xd0
 57.1904 716 45.4033 717 34.4033 717 c 0
 -20.5967 717 -76.4854 694 -83.9248 659 c 0
 -88.3887 638 -64.5146 628 -42.1523 625 c 2
 -20.1523 625 l 1
 -49.4658 600 l 1
 -58.4658 600 l 0
 -104.466 600 -165.017 588 -175.007 541 c 0
 -178.62 524 -157.958 513 -134.958 513 c 0
 -112.958 513 -100.046 522 -95.9824 527 c 1xb0
EndSplineSet
EndChar
